<svg xmlns="http://www.w3.org/2000/svg" viewBox="0 0 251.36 289.64">
  <defs>
    <style>
      .cls-1 {
        opacity: 0.4;
      }

      .cls-2 {
        fill: #22c3e8;
      }

      .cls-3 {
        opacity: 0;
      }
    </style>
  </defs>
  <g id="Layer_2" data-name="Layer 2">
    <g id="middle_blades">
      <g class="cls-1">
        <path class="cls-2" d="M251.19,217.66a1.26,1.26,0,0,1-1.09.64,1.21,1.21,0,0,1-.38-.06,42.23,42.23,0,0,1-7.55-2.68c-33.92-18.4-67.73-37-101.7-55.32-4.85-2.6-11.18-4.65-16.86-6.78a1,1,0,0,1-.55-1.44l2-5.51-.48.33L113.7,153.4c-2.43,3.52-4.54,6.91-7,10-1.79,2.24-3.73,4.74-6.2,6Q55.84,192.18,11,214.49C8,216,4.8,216.69,1.67,217.67A1.28,1.28,0,0,1,0,216.45a1.23,1.23,0,0,1,.41-.92,41.4,41.4,0,0,1,6.1-5.19c32.9-20.18,65.91-40.16,98.76-60.42,4.67-2.89,9.62-7.36,14.29-11.21a1,1,0,0,1,1.53.25l3.79,4.48a2.74,2.74,0,0,1-.06-.59l-.25-12.69c-1.83-3.87-3.71-7.38-5.14-11.07-1.05-2.66-2.24-5.59-2.1-8.37q2.6-50.07,5.71-100.09c.2-3.25,1.18-6.43,1.89-9.63a1.28,1.28,0,0,1,1.24-1,1.25,1.25,0,0,1,1.24,1,41.79,41.79,0,0,1,1.45,7.88c1,38.58,1.82,77.16,2.95,115.74.16,5.49,1.56,12,2.55,18a1,1,0,0,1-1,1.2l-5.77,1a2.61,2.61,0,0,1,.54.25l11.11,6.13c4.26.34,8.24.47,12.15,1.07,2.83.43,6,.86,8.3,2.37q42.06,27.29,83.83,55c2.71,1.8,5,4.24,7.39,6.46A1.27,1.27,0,0,1,251.19,217.66Z"/>
      </g>
      <g class="cls-3">
        <path class="cls-2" d="M.17,72a1.26,1.26,0,0,1,1.09-.64,1.21,1.21,0,0,1,.38.06,42.23,42.23,0,0,1,7.55,2.68c33.92,18.4,67.73,37,101.7,55.32,4.85,2.6,11.18,4.65,16.86,6.78a1,1,0,0,1,.55,1.44l-2,5.51.48-.33,10.87-6.56c2.43-3.52,4.54-6.91,7-10,1.79-2.24,3.73-4.74,6.2-6q44.65-22.78,89.54-45.1c2.91-1.46,6.15-2.2,9.28-3.18a1.28,1.28,0,0,1,1.67,1.22,1.23,1.23,0,0,1-.41.92,41.4,41.4,0,0,1-6.1,5.19c-32.9,20.18-65.91,40.16-98.76,60.42-4.67,2.89-9.62,7.36-14.29,11.21a1,1,0,0,1-1.53-.25l-3.79-4.48a2.74,2.74,0,0,1,.06.59l.25,12.69c1.83,3.87,3.71,7.38,5.14,11.07,1,2.66,2.24,5.59,2.1,8.37Q131.44,229,128.32,279c-.2,3.25-1.18,6.43-1.89,9.63a1.28,1.28,0,0,1-1.24,1,1.25,1.25,0,0,1-1.24-1,41.79,41.79,0,0,1-1.45-7.88c-1-38.58-1.82-77.16-3-115.74-.16-5.49-1.56-12-2.55-18a1,1,0,0,1,1-1.2l5.77-1a2.61,2.61,0,0,1-.54-.25l-11.11-6.13c-4.26-.34-8.24-.47-12.15-1.07-2.83-.43-6-.86-8.3-2.37Q49.58,107.72,7.81,80c-2.71-1.8-5-4.24-7.39-6.46A1.27,1.27,0,0,1,.17,72Z"/>
      </g>
    </g>
  </g>
</svg>
