<svg xmlns="http://www.w3.org/2000/svg" viewBox="0 0 183.69 189.93"><defs><style>.cls-1{opacity:0.4;}.cls-2{fill:#22c3e8;}</style></defs><g id="Layer_2" data-name="Layer 2"><g id="right_blades"><g class="cls-1"><path class="cls-2" d="M145.15,189.88a1,1,0,0,1-1-.19,1,1,0,0,1-.19-.22,32.62,32.62,0,0,1-3-5.39c-10.3-27.9-20.43-55.86-30.8-83.74-1.49-4-4.11-8.38-6.32-12.5a.79.79,0,0,1,.41-1.11l4-2.18a2.66,2.66,0,0,1-.45-.06l-9.63-1.72C95,83.57,92,84.47,89,85c-2.18.39-4.57.85-6.64.33q-37.45-9.5-74.8-19.38a47.41,47.41,0,0,1-7-2.88A1,1,0,0,1,0,62a.94.94,0,0,1,.22-.46A1,1,0,0,1,1,61.18a31.72,31.72,0,0,1,6.17.1c29.32,5,58.6,10.23,87.92,15.19,4.18.7,9.32.62,14,.77a.8.8,0,0,1,.76.92l-.08,4.52a2.78,2.78,0,0,1,.26-.37l6.31-7.48c.9-3.17,1.6-6.16,2.65-9,.74-2.08,1.54-4.38,3-5.92q27-27.69,54.18-55.08a48.42,48.42,0,0,1,6-4.62,1,1,0,0,1,1.23,0,1,1,0,0,1,.22,1.2,31.89,31.89,0,0,1-3.17,5.3c-19,22.87-38.16,45.63-57.11,68.55-2.7,3.26-5.2,7.74-7.66,11.71a.8.8,0,0,1-1.18.2l-3.87-2.33a2,2,0,0,1,.19.42l3.32,9.2c2.29,2.36,4.53,4.46,6.49,6.8,1.43,1.68,3,3.53,3.61,5.59q10.5,37.19,20.61,74.46a48,48,0,0,1,1,7.5A1,1,0,0,1,145.15,189.88Z"/></g></g></g></svg>