<svg xmlns="http://www.w3.org/2000/svg" viewBox="0 0 427.04 427.04">
  <defs>
    <style>
      .cls-1 {
        fill: #22c3e8;
        opacity: 0.4;
      }

      .cls-2, .cls-3 {
        opacity: 0;
      }

      .cls-3 {
        fill: none;
        stroke: #22c3e8;
        stroke-miterlimit: 10;
        stroke-width: 0.94px;
      }
    </style>
  </defs>
  <g id="Layer_2" data-name="Layer 2">
    <g id="left_blades">
      <path class="cls-1" d="M400.36,324.45l-.28.49a1.38,1.38,0,0,1-1.61.63c-3-.92-6.19-1.61-8.94-3.05-26.74-14-53.58-27.83-80-42.4-25.24-13.86-50-28.47-75.06-42.78a8.18,8.18,0,0,0-5.07-1.45,15,15,0,0,1-8.41-1.42c-11.05-5.76-9.56-8.23-8.88-11.08a5.58,5.58,0,0,1-.13-.78l-.09.17c-2.06,3.88-9.56,5.94-13.83,7-3.1.76-6.29,2.52-7.41,5.15-5.86,13.88-17.72,19.83-30.18,25.91C121.17,280,82.15,299.74,42.93,319c-4.48,2.2-9.53,3.3-14.35,4.79a1.37,1.37,0,0,1-1.6-.61l-.29-.49A1.4,1.4,0,0,1,27,321c2.32-2.16,4.49-4.55,7.12-6.21,25.5-16.15,50.88-32.49,76.72-48.1,24.62-14.93,49.67-29.08,74.57-43.61a8.17,8.17,0,0,0,3.8-3.67,15.07,15.07,0,0,1,5.43-6.58c10.52-6.68,11.91-4.15,14-2.15a6.7,6.7,0,0,1,.74.27l-.1-.14c-2.33-3.74-.36-11.25.86-15.48.89-3.06,1-6.71-.75-9-9.09-12-8.32-25.25-7.35-39.08,3-43.61,5.45-87.27,8.35-130.89.33-5,1.9-9.89,3-14.82A1.38,1.38,0,0,1,214.73.47h.57a1.37,1.37,0,0,1,1.35,1.08c.72,3.09,1.7,6.16,1.83,9.27,1.23,30.16,2.69,60.31,3.29,90.5.62,28.78.35,57.54.49,86.39a8.11,8.11,0,0,0,1.27,5.11,15,15,0,0,1,3,8c.53,12.45-2.35,12.39-5.15,13.23a5.93,5.93,0,0,1-.6.5h.17c4.4-.15,9.92,5.31,13,8.49,2.21,2.3,5.33,4.19,8.17,3.84,14.94-1.86,26,5.43,37.52,13.18,36.25,24.43,72.85,48.35,109.18,72.67,4.15,2.78,7.61,6.6,11.32,10A1.39,1.39,0,0,1,400.36,324.45Z"/>
      <g class="cls-2">
        <path class="cls-1" d="M26.68,102.59l.28-.49a1.38,1.38,0,0,1,1.61-.63c3,.92,6.19,1.61,8.94,3,26.74,14,53.58,27.83,80,42.4,25.24,13.86,50,28.47,75.06,42.78a8.18,8.18,0,0,0,5.07,1.45,15,15,0,0,1,8.41,1.42c11.05,5.76,9.56,8.23,8.88,11.08a5.58,5.58,0,0,1,.13.78l.09-.17c2.06-3.88,9.56-5.94,13.83-7,3.1-.76,6.29-2.52,7.41-5.15,5.86-13.88,17.72-19.83,30.18-25.91C305.87,147,344.89,127.3,384.11,108c4.48-2.2,9.53-3.3,14.35-4.79a1.37,1.37,0,0,1,1.6.61l.29.49a1.4,1.4,0,0,1-.26,1.72c-2.32,2.16-4.49,4.55-7.12,6.21-25.5,16.15-50.88,32.49-76.72,48.1-24.62,14.93-49.67,29.08-74.57,43.61a8.17,8.17,0,0,0-3.8,3.67,15.07,15.07,0,0,1-5.43,6.58c-10.52,6.68-11.91,4.15-14,2.15a6.7,6.7,0,0,1-.74-.27l.1.14c2.33,3.74.36,11.25-.86,15.48-.89,3.06-1,6.71.75,9,9.09,12,8.32,25.25,7.35,39.08-3,43.61-5.45,87.27-8.35,130.89-.33,5-1.9,9.89-3,14.82a1.38,1.38,0,0,1-1.33,1.08h-.57a1.37,1.37,0,0,1-1.35-1.08c-.72-3.09-1.7-6.16-1.83-9.27-1.23-30.16-2.69-60.31-3.29-90.5-.62-28.78-.35-57.54-.49-86.39a8.11,8.11,0,0,0-1.27-5.11,15,15,0,0,1-3-8c-.53-12.45,2.35-12.39,5.15-13.23a5.93,5.93,0,0,1,.6-.5h-.17c-4.4.15-9.92-5.31-13-8.49-2.21-2.3-5.33-4.19-8.17-3.84-14.94,1.86-26-5.43-37.52-13.18C111.2,162.56,74.6,138.64,38.27,114.32c-4.15-2.78-7.61-6.6-11.32-10A1.39,1.39,0,0,1,26.68,102.59Z"/>
      </g>
      <rect class="cls-3" x="0.47" y="0.47" width="426.1" height="426.1"/>
    </g>
  </g>
</svg>
