<svg xmlns="http://www.w3.org/2000/svg" viewBox="0 0 197.95 285.35">
  <defs>
    <style>
      .cls-1 {
        opacity: 0.18;
      }

      .cls-2 {
        fill: #3c6;
      }

      .cls-2, .cls-3 {
        stroke: #3c6;
        stroke-linecap: round;
        stroke-linejoin: round;
        stroke-width: 2px;
      }

      .cls-3 {
        fill: none;
      }
    </style>
  </defs>
  <g id="Layer_2" data-name="Layer 2">
    <g id="Layer_1-2" data-name="Layer 1">
      <g>
        <g class="cls-1">
          <path class="cls-2" d="M99.84,284.33a1.81,1.81,0,0,1-.52,0,.8.8,0,0,1-.73-.61,1.25,1.25,0,0,1,.07-.43c.49-1.62,1-3.23,1.33-4.88.44-1.91.79-3.84,1.08-5.78a101.65,101.65,0,0,0,1-11.7c.14-3.92.12-7.85,0-11.78s-.18-7.82-.22-11.73v-.58c0-.23,0-.47-.07-.71l-.22,0c-.19.49-.4,1-.56,1.45-5,15.82-31,16.44-45.7,12.34a38,38,0,0,1-11.88-5.61c-6-4.3-10.53-9.92-14.56-15.63-7-9.94-12-19.77-13.83-31.46a1.34,1.34,0,0,1,.2-1.2,1.58,1.58,0,0,1,.78-.37c2-.5,4,.25,5.82,1,1.09.45,2.2.86,3.29,1.31a187.48,187.48,0,0,0,24.28,8.15c8,2.09,18.26,5.36,26.72,4a5.67,5.67,0,0,0,3.07-1c.74-.64.49-1.51-.46-1.86a22.9,22.9,0,0,0-2.67-.72c-1-.22-1.9-.36-2.85-.55-1.62-.32-3.24-.65-4.85-1-.8-.17-1.58-.4-2.37-.57s-1.67-.26-2.49-.43-1.84-.48-2.76-.66-1.88-.28-2.8-.47c-1.47-.3-2.93-.63-4.35-1-1.74-.45-3.44-1-5.17-1.44s-3.42-.72-5.12-1.11c-1.33-.31-2.66-.68-4-1l-4.55-1.12c-1.34-.34-2.67-.7-4-1-1.65-.4-3.32-.75-5-1.15s-3.57-.91-5.36-1.34c-1.09-.27-2.21-.42-3.29-.73A26.2,26.2,0,0,1,14,191.73a23.49,23.49,0,0,1-3.45-1.79A8.84,8.84,0,0,1,8.73,188c-6.62-8.22-9.93-39.32-6.11-40.52a1.07,1.07,0,0,1,.84.58c4.48,8.61,13.05,14.71,22.38,19.23a277,277,0,0,0,30.54,12,65.8,65.8,0,0,0,7.23,2.09,30.92,30.92,0,0,0,8.63,1,7.65,7.65,0,0,0,2.61-.69,2.12,2.12,0,0,0,1-1.28,1.66,1.66,0,0,0-.92-1.8q-2.82-1.58-5.69-3c-1.81-.86-3.66-1.6-5.49-2.39-2.31-1-4.63-2-6.91-3-1.74-.77-3.46-1.59-5.19-2.4-2.3-1.07-4.65-2.11-7-3.25-2-1-4-2.1-6-3.2s-4.06-2.27-6-3.51-4.06-2.66-6-4c-2.58-1.79-5.16-3.59-7.72-5.44a35.53,35.53,0,0,1-3-2.62c-2.42-2.18-5.23-4.26-6.56-7.14-1.25-2.7-.8-5.62-.57-8.44.64-7.58,1-15.34,4.25-22.52a34.78,34.78,0,0,1,2.11-4.06A30.55,30.55,0,0,1,16.76,101a1,1,0,0,1,.44-.38c.11,0,.3.16.31.3.1,1.5-.19,3-.12,4.5.12,2.6,1.89,4.85,3.45,7a56.48,56.48,0,0,0,8.21,9.47,145.41,145.41,0,0,0,12.5,9.68c.93.68,1.87,1.36,2.79,2.06,7.73,5.78,14.62,12.85,24.92,15.15a16.53,16.53,0,0,0,2.65.21,8,8,0,0,0,4.58-1.24,2.7,2.7,0,0,0,.74-3.82A10.86,10.86,0,0,0,74.55,141c-12.94-10.68-27.14-19.81-39.39-31.19-5-4.65-10.2-9.06-12.78-15.19a6.49,6.49,0,0,1,.26-4.5,38.69,38.69,0,0,1,5.79-10.23c1.37-1.85,2.62-3.78,4-5.67,3.76-5.07,11.42-13.51,19.35-12.95-2.23,1.33-4.7,2.15-6.2,4.27-2.55,3.6-.22,7.73,2.15,10.87,3.59,4.75,7.49,9.46,11.56,13.91,3.52,3.85,7.84,7.81,13.52,9.07a8.32,8.32,0,0,0,7.49-1.5C90.58,89.73,80,79,74.24,72a57.22,57.22,0,0,1-6.35-9.24,83.8,83.8,0,0,1-4-9.59,50.35,50.35,0,0,1-1.38-5.37,2.29,2.29,0,0,1-.07-.28,6.72,6.72,0,0,1,.84-4.7C69.8,31.73,95.67,9.18,97,8c8.42-7.45,10.33-10.86,11.6-.17,0,0,.19,1.59.56,3.41a54,54,0,0,1,.72,9.56c-.1,1.5-.08,3.29-.22,4.75-.22,2.3-.59,4.38-.92,6.65s-.7,4.33-1.1,6.56-.77,4.6-1.33,6.74c-.79,3-1.42,6.21-.14,9.21.5,1.18,1.58,2.45,3,2.33,2.3-.19,3.13-2.28,3.59-3.94,1.6-5.79,3.51-11.58,4.47-17.48a19.63,19.63,0,0,0,.18-3.32,31,31,0,0,0-1.85-9,2.64,2.64,0,0,1-.15-.69c.14.26.29.5.43.78a46.86,46.86,0,0,0,2.84,4.8c1.1,1.67,2.27,3.34,3.55,4.92,1.7,2.1,3.58,4,5.48,6,1.54,1.61,3.31,3,4.36,5.1a5,5,0,0,1,.68,2.63C132.16,55,128.7,62.65,124.68,70c-1.92,3.51-3.81,7.1-5.8,10.53C113.93,89,108.41,96.6,105.64,106c-.81,2.73-1.66,6,1,8.17a4.89,4.89,0,0,0,2.5,1,3.87,3.87,0,0,0,2.11-.1c15.29-6.33,37.79-40.93,39.08-57,.07-1,.5-1.2,1.34-.71C156.37,59.19,169.27,76.21,170,84a6.45,6.45,0,0,1-.37,3.54c-6.2,17.72-38.74,52.86-52.76,64.22a3.9,3.9,0,0,0-.65,1.6,1.91,1.91,0,0,0,1.7,2.43,20.92,20.92,0,0,0,2.5.37,8.36,8.36,0,0,0,4-.86c1.91-.74,3.83-1.5,5.73-2.35,9.83-4.38,18.49-12.94,24.78-20.62a88.45,88.45,0,0,0,10.66-16.8c2.67-5.38,4.37-11.3,8.35-16.11a.53.53,0,0,1,.62,0c3.46,3.19,4.48,7.76,6,11.8q2,5.55,4.38,11c1.17,2.73,3.58,6.38,2,9.33-7.15,13-18,23.08-30.59,32.41-9.43,7-19.88,12.88-29.23,19.92a2,2,0,0,0-.47.7,1,1,0,0,0,.65,1.48,4.58,4.58,0,0,0,3.14,0,199.56,199.56,0,0,0,31.78-12.35c8.39-4.28,16.29-7.8,23-14,2.61-2.39,3.59-5.78,4.54-7.18a.47.47,0,0,1,.77,0l.76,1.11a43.13,43.13,0,0,1,3.6,7.85A48.49,48.49,0,0,1,196.93,177a15.52,15.52,0,0,1-1.76,7.45A7.94,7.94,0,0,1,193,187c-.89.68-2.29,1.4-1.94,2.77,3.08,11.82.37,24.83-4.66,35.71s-13.11,20.78-24,26a39.33,39.33,0,0,1-24.28,3c-14-2.61-22-11.91-28-22.35-.8-1.38-1.63-2.75-2.29-4.17a5.05,5.05,0,0,0-.28-.51l-.25,0a19.18,19.18,0,0,0-.53,2.24c-1,9-.76,18.08-1,27.12a78.77,78.77,0,0,0,.46,10.07q.51,5,1.47,9.93c.25,1.24.52,2.47.82,3.7.13.54.27,1.07.42,1.61s.51,1.17.28,1.59c-.45.8-1.17.17-1.75-.1a5.69,5.69,0,0,0-2.39-.37,11.25,11.25,0,0,0-3.12.3A21.7,21.7,0,0,1,99.84,284.33Zm89.51-94-.14-.2c-.1,0-.22-.08-.31,0-1.19.47-2.37,1-3.56,1.42s-2.39.92-3.61,1.28c-1.6.47-3.22.83-4.83,1.26s-3,.82-4.53,1.24c-1.05.29-2.12.52-3.15.88-1.79.63-3.56,1.34-5.34,2-.81.3-1.63.57-2.44.84-1.31.44-2.62.89-3.94,1.3s-2.63.77-3.94,1.17c-1.07.32-2.13.66-3.19,1-.87.26-1.77.48-2.62.8-1.41.52-2.76,1.13-4.13,1.64-2.13.8-4.25,1.5-6.29,2.33a7.62,7.62,0,0,0-2.09,1.37c-.63.56-.54,1.06.17,1.53a5.7,5.7,0,0,0,3.53.83c1.1,0,2.2-.13,3.32-.23a25.66,25.66,0,0,0,2.74-.35c1.46-.3,2.93-.68,4.43-1s3.2-.69,4.79-1.07c1.34-.32,2.67-.66,4-1.06,2.32-.69,4.64-1.42,6.95-2.15,1.93-.62,3.89-1.18,5.78-1.93a42.72,42.72,0,0,0,5.21-2.47c1.83-1,3.61-2.18,5.35-3.39a49.09,49.09,0,0,0,4.43-3.48C187.14,192.79,188.22,191.54,189.35,190.37Z"/>
        </g>
        <path class="cls-3" d="M99.84,284.33a1.81,1.81,0,0,1-.52,0,.8.8,0,0,1-.73-.61,1.25,1.25,0,0,1,.07-.43c.49-1.62,1-3.23,1.33-4.88.44-1.91.79-3.84,1.08-5.78a101.65,101.65,0,0,0,1-11.7c.14-3.92.12-7.85,0-11.78s-.18-7.82-.22-11.73v-.58c0-.23,0-.47-.07-.71l-.22,0c-.19.49-.4,1-.56,1.45-5,15.82-31,16.44-45.7,12.34a38,38,0,0,1-11.88-5.61c-6-4.3-10.53-9.92-14.56-15.63-7-9.94-12-19.77-13.83-31.46a1.34,1.34,0,0,1,.2-1.2,1.58,1.58,0,0,1,.78-.37c2-.5,4,.25,5.82,1,1.09.45,2.2.86,3.29,1.31a187.48,187.48,0,0,0,24.28,8.15c8,2.09,18.26,5.36,26.72,4a5.67,5.67,0,0,0,3.07-1c.74-.64.49-1.51-.46-1.86a22.9,22.9,0,0,0-2.67-.72c-1-.22-1.9-.36-2.85-.55-1.62-.32-3.24-.65-4.85-1-.8-.17-1.58-.4-2.37-.57s-1.67-.26-2.49-.43-1.84-.48-2.76-.66-1.88-.28-2.8-.47c-1.47-.3-2.93-.63-4.35-1-1.74-.45-3.44-1-5.17-1.44s-3.42-.72-5.12-1.11c-1.33-.31-2.66-.68-4-1l-4.55-1.12c-1.34-.34-2.67-.7-4-1-1.65-.4-3.32-.75-5-1.15s-3.57-.91-5.36-1.34c-1.09-.27-2.21-.42-3.29-.73A26.2,26.2,0,0,1,14,191.73a23.49,23.49,0,0,1-3.45-1.79A8.84,8.84,0,0,1,8.73,188c-6.62-8.22-9.93-39.32-6.11-40.52a1.07,1.07,0,0,1,.84.58c4.48,8.61,13.05,14.71,22.38,19.23a277,277,0,0,0,30.54,12,65.8,65.8,0,0,0,7.23,2.09,30.92,30.92,0,0,0,8.63,1,7.65,7.65,0,0,0,2.61-.69,2.12,2.12,0,0,0,1-1.28,1.66,1.66,0,0,0-.92-1.8q-2.82-1.58-5.69-3c-1.81-.86-3.66-1.6-5.49-2.39-2.31-1-4.63-2-6.91-3-1.74-.77-3.46-1.59-5.19-2.4-2.3-1.07-4.65-2.11-7-3.25-2-1-4-2.1-6-3.2s-4.06-2.27-6-3.51-4.06-2.66-6-4c-2.58-1.79-5.16-3.59-7.72-5.44a35.53,35.53,0,0,1-3-2.62c-2.42-2.18-5.23-4.26-6.56-7.14-1.25-2.7-.8-5.62-.57-8.44.64-7.58,1-15.34,4.25-22.52a34.78,34.78,0,0,1,2.11-4.06A30.55,30.55,0,0,1,16.76,101a1,1,0,0,1,.44-.38c.11,0,.3.16.31.3.1,1.5-.19,3-.12,4.5.12,2.6,1.89,4.85,3.45,7a56.48,56.48,0,0,0,8.21,9.47,145.41,145.41,0,0,0,12.5,9.68c.93.68,1.87,1.36,2.79,2.06,7.73,5.78,14.62,12.85,24.92,15.15a16.53,16.53,0,0,0,2.65.21,8,8,0,0,0,4.58-1.24,2.7,2.7,0,0,0,.74-3.82A10.86,10.86,0,0,0,74.55,141c-12.94-10.68-27.14-19.81-39.39-31.19-5-4.65-10.2-9.06-12.78-15.19a6.49,6.49,0,0,1,.26-4.5,38.69,38.69,0,0,1,5.79-10.23c1.37-1.85,2.62-3.78,4-5.67,3.76-5.07,11.42-13.51,19.35-12.95-2.23,1.33-4.7,2.15-6.2,4.27-2.55,3.6-.22,7.73,2.15,10.87,3.59,4.75,7.49,9.46,11.56,13.91,3.52,3.85,7.84,7.81,13.52,9.07a8.32,8.32,0,0,0,7.49-1.5C90.58,89.73,80,79,74.24,72a57.22,57.22,0,0,1-6.35-9.24,83.8,83.8,0,0,1-4-9.59,50.35,50.35,0,0,1-1.38-5.37,2.29,2.29,0,0,1-.07-.28,6.72,6.72,0,0,1,.84-4.7C69.8,31.73,95.67,9.18,97,8c8.42-7.45,10.33-10.86,11.6-.17,0,0,.19,1.59.56,3.41a54,54,0,0,1,.72,9.56c-.1,1.5-.08,3.29-.22,4.75-.22,2.3-.59,4.38-.92,6.65s-.7,4.33-1.1,6.56-.77,4.6-1.33,6.74c-.79,3-1.42,6.21-.14,9.21.5,1.18,1.58,2.45,3,2.33,2.3-.19,3.13-2.28,3.59-3.94,1.6-5.79,3.51-11.58,4.47-17.48a19.63,19.63,0,0,0,.18-3.32,31,31,0,0,0-1.85-9,2.64,2.64,0,0,1-.15-.69c.14.26.29.5.43.78a46.86,46.86,0,0,0,2.84,4.8c1.1,1.67,2.27,3.34,3.55,4.92,1.7,2.1,3.58,4,5.48,6,1.54,1.61,3.31,3,4.36,5.1a5,5,0,0,1,.68,2.63C132.16,55,128.7,62.65,124.68,70c-1.92,3.51-3.81,7.1-5.8,10.53C113.93,89,108.41,96.6,105.64,106c-.81,2.73-1.66,6,1,8.17a4.89,4.89,0,0,0,2.5,1,3.87,3.87,0,0,0,2.11-.1c15.29-6.33,37.79-40.93,39.08-57,.07-1,.5-1.2,1.34-.71C156.37,59.19,169.27,76.21,170,84a6.45,6.45,0,0,1-.37,3.54c-6.2,17.72-38.74,52.86-52.76,64.22a3.9,3.9,0,0,0-.65,1.6,1.91,1.91,0,0,0,1.7,2.43,20.92,20.92,0,0,0,2.5.37,8.36,8.36,0,0,0,4-.86c1.91-.74,3.83-1.5,5.73-2.35,9.83-4.38,18.49-12.94,24.78-20.62a88.45,88.45,0,0,0,10.66-16.8c2.67-5.38,4.37-11.3,8.35-16.11a.53.53,0,0,1,.62,0c3.46,3.19,4.48,7.76,6,11.8q2,5.55,4.38,11c1.17,2.73,3.58,6.38,2,9.33-7.15,13-18,23.08-30.59,32.41-9.43,7-19.88,12.88-29.23,19.92a2,2,0,0,0-.47.7,1,1,0,0,0,.65,1.48,4.58,4.58,0,0,0,3.14,0,199.56,199.56,0,0,0,31.78-12.35c8.39-4.28,16.29-7.8,23-14,2.61-2.39,3.59-5.78,4.54-7.18a.47.47,0,0,1,.77,0l.76,1.11a43.13,43.13,0,0,1,3.6,7.85A48.49,48.49,0,0,1,196.93,177a15.52,15.52,0,0,1-1.76,7.45A7.94,7.94,0,0,1,193,187c-.89.68-2.29,1.4-1.94,2.77,3.08,11.82.37,24.83-4.66,35.71s-13.11,20.78-24,26a39.33,39.33,0,0,1-24.28,3c-14-2.61-22-11.91-28-22.35-.8-1.38-1.63-2.75-2.29-4.17a5.05,5.05,0,0,0-.28-.51l-.25,0a19.18,19.18,0,0,0-.53,2.24c-1,9-.76,18.08-1,27.12a78.77,78.77,0,0,0,.46,10.07q.51,5,1.47,9.93c.25,1.24.52,2.47.82,3.7.13.54.27,1.07.42,1.61s.51,1.17.28,1.59c-.45.8-1.17.17-1.75-.1a5.69,5.69,0,0,0-2.39-.37,11.25,11.25,0,0,0-3.12.3A21.7,21.7,0,0,1,99.84,284.33Zm89.51-94-.14-.2c-.1,0-.22-.08-.31,0-1.19.47-2.37,1-3.56,1.42s-2.39.92-3.61,1.28c-1.6.47-3.22.83-4.83,1.26s-3,.82-4.53,1.24c-1.05.29-2.12.52-3.15.88-1.79.63-3.56,1.34-5.34,2-.81.3-1.63.57-2.44.84-1.31.44-2.62.89-3.94,1.3s-2.63.77-3.94,1.17c-1.07.32-2.13.66-3.19,1-.87.26-1.77.48-2.62.8-1.41.52-2.76,1.13-4.13,1.64-2.13.8-4.25,1.5-6.29,2.33a7.62,7.62,0,0,0-2.09,1.37c-.63.56-.54,1.06.17,1.53a5.7,5.7,0,0,0,3.53.83c1.1,0,2.2-.13,3.32-.23a25.66,25.66,0,0,0,2.74-.35c1.46-.3,2.93-.68,4.43-1s3.2-.69,4.79-1.07c1.34-.32,2.67-.66,4-1.06,2.32-.69,4.64-1.42,6.95-2.15,1.93-.62,3.89-1.18,5.78-1.93a42.72,42.72,0,0,0,5.21-2.47c1.83-1,3.61-2.18,5.35-3.39a49.09,49.09,0,0,0,4.43-3.48C187.14,192.79,188.22,191.54,189.35,190.37Z"/>
      </g>
    </g>
  </g>
</svg>
