<svg xmlns="http://www.w3.org/2000/svg" xmlns:xlink="http://www.w3.org/1999/xlink" viewBox="0 0 563.18 425.57"><defs><style>.cls-1,.cls-2,.cls-3{fill-opacity:0.4;}.cls-1{fill:url(#linear-gradient);}.cls-2{fill:url(#linear-gradient-2);}.cls-3{fill:url(#linear-gradient-3);}</style><linearGradient id="linear-gradient" x1="552.67" y1="198.24" x2="552.67" y2="425.57" gradientUnits="userSpaceOnUse"><stop offset="0" stop-color="#22c3e8"/><stop offset="0.92" stop-color="#1d282e" stop-opacity="0.49"/></linearGradient><linearGradient id="linear-gradient-2" x1="296.06" y1="757.49" x2="296.06" y2="467.85" gradientTransform="matrix(1, 0, 0, -1, 0, 893.25)" xlink:href="#linear-gradient"/><linearGradient id="linear-gradient-3" x1="19.62" y1="893.25" x2="19.62" y2="467.79" gradientTransform="matrix(1, 0, 0, -1, 0, 893.25)" xlink:href="#linear-gradient"/></defs><g id="Layer_2" data-name="Layer 2"><g id="posts"><path class="cls-1" d="M558.44,212.93c.29,1.83.09,2.14-1,3.67-3.71,5.47-2.11,11.88-2,17.87,1,55.51,5.71,110.86,6.72,166.37.15,8.07,1.11,16.39,1,24.73h-16.4c-.09-1.38-.28-2.82-.26-4.34.71-65.2-2.41-130.77-1.73-196,.06-2.95-1-5.9-2.44-9.09a2.12,2.12,0,0,1-.18-.93l.52-11.82c.08-3.73.23-4.15,6.14-5.07a9.44,9.44,0,0,1,3.31.08l3,.61a2.31,2.31,0,0,1,1.82,1.91Z"/><path class="cls-2" d="M303.94,154.3c.41,2.32.16,2.73-1.12,4.7-4.6,7.06-2.41,15.2-2.13,22.84,2.57,70.78,5.41,141.55,8,212.33.39,10.28,0,20.58,0,31.23H289.28c-.14-1.76-.42-3.59-.43-5.53q-1-124.75-2-249.52c0-3.76-1.46-7.5-3.33-11.54a2.66,2.66,0,0,1-.24-1.18l.36-15.09c0-4.76.2-5.3,7.72-6.61a12.26,12.26,0,0,1,4.23,0l3.82.71a2.94,2.94,0,0,1,2.37,2.39Z"/><path class="cls-3" d="M26,2.69c2.63,4.17,3.3,10.25,3,15.43-.27,8.73-.22,13.76-1.84,19a28,28,0,0,1-1.88,4.19h0a3.12,3.12,0,0,0-.71,2.13c4.86,127.42,9.73,254.3,14.65,382.06H7.7c0-16.35.1-32.61,0-48.87Q6.4,210.32,4.92,44c0-2.29-1.94-4.54-2.8-6.88a30.29,30.29,0,0,1-2-6.72c-.21-3.36,0-9.24.14-12.6L1.57,2.68C1.64,1.76,3.82.6,5.16.28,14-.14,22.93-.56,26,2.69Z"/></g></g></svg>