<?xml version="1.0" encoding="utf-8"?>
<!-- Generator: Adobe Illustrator 25.3.1, SVG Export Plug-In . SVG Version: 6.00 Build 0)  -->
<svg version="1.1" id="Layer_1" xmlns="http://www.w3.org/2000/svg" xmlns:xlink="http://www.w3.org/1999/xlink" x="0px" y="0px"
	 viewBox="0 0 821 609" style="enable-background:new 0 0 821 609;" xml:space="preserve">
<style type="text/css">
	.st0{fill:#22C3E8;fill-opacity:0.4;}
	.st1{opacity:0.4;fill:#22C3E8;}
	.st2{fill:none;}
	.st3{fill:url(#SVGID_1_);fill-opacity:0.4;}
	.st4{fill:url(#SVGID_2_);fill-opacity:0.4;}
	.st5{fill:url(#SVGID_3_);fill-opacity:0.4;}
	.st6{fill:url(#SVGID_4_);fill-opacity:0.4;}
	.st7{fill:#22C3E8;stroke:#000000;stroke-miterlimit:10;}
	.st8{fill:url(#SVGID_5_);stroke:#000000;stroke-width:0.25;stroke-miterlimit:10;}
	.st9{fill:url(#SVGID_6_);fill-opacity:0.4;}
	.st10{opacity:0.4;fill:url(#SVGID_7_);}
</style>
<path class="st0" d="M240.4,201.9c-0.8-3.6,0.5-7.3,3.5-9.5c3-2.2,4.6-5.5,3.5-9.5c-4.2-14.5,1.3-26.6,7.2-39.1
	c18.5-39.6,36.4-79.5,54.8-119.1c2.3-4.9,5.8-9.1,8.8-13.7l2.6,1c-0.6,3.5-0.7,7.1-1.8,10.4c-9.7,28.6-19.2,57.3-29.4,85.6
	c-9.8,27.1-20.4,53.8-30.6,80.8c-0.8,2-1.1,3.6-0.6,5.5c0.7,2.4,0.8,4.9,0.2,7.3C251.6,226.2,245.6,224,240.4,201.9z"/>
<g>
	<g>
		<path class="st1" d="M-61.7-213c4.4-0.2,9.9,5.3,13,8.5c2.2,2.3,5.3,4.2,8.2,3.8c14.9-1.9,26,5.4,37.5,13.2
			c36.3,24.4,72.8,48.4,109.2,72.7c4.1,2.8,7.6,6.6,11.3,10c0.5,0.4,0.6,1.1,0.3,1.7l-0.3,0.5c-0.3,0.6-1,0.8-1.6,0.6
			c-3-0.9-6.2-1.6-8.9-3.1c-26.7-14-53.6-27.8-80-42.4c-25.2-13.9-50-28.5-75.1-42.8c-1.8-1-3.2-1.6-5.1-1.5
			c-2.9,0.3-5.8-0.1-8.4-1.4c-11.1-5.8-9.6-8.2-8.9-11.1C-70.5-204.1-72.8-212.6-61.7-213z"/>
	</g>
	<g>
		<path class="st1" d="M-70.7-204.8c-2.1,3.9-9.6,5.9-13.8,7c-3.1,0.8-6.3,2.5-7.4,5.2c-5.9,13.9-17.7,19.8-30.2,25.9
			c-39.3,19.2-78.3,38.9-117.5,58.2c-4.5,2.2-9.5,3.3-14.3,4.8c-0.6,0.2-1.3-0.1-1.6-0.6l-0.3-0.5c-0.3-0.6-0.2-1.3,0.3-1.7
			c2.3-2.2,4.5-4.5,7.1-6.2c25.5-16.1,50.9-32.5,76.7-48.1c24.6-14.9,49.7-29.1,74.6-43.6c1.8-1,3-2,3.8-3.7c1.2-2.6,3-5,5.4-6.6
			c10.5-6.7,11.9-4.2,14-2.2C-74-216.8-65.5-214.6-70.7-204.8z"/>
	</g>
	<g>
		<path class="st1" d="M-73.3-216.7c-2.3-3.7-0.4-11.3,0.9-15.5c0.9-3.1,1-6.7-0.8-9c-9.1-12-8.3-25.3-7.4-39.1
			c3-43.6,5.5-87.3,8.4-130.9c0.3-5,1.9-9.9,3-14.8c0.1-0.6,0.7-1.1,1.3-1.1l0.6,0c0.7,0,1.2,0.4,1.4,1.1c0.7,3.1,1.7,6.2,1.8,9.3
			c1.2,30.2,2.7,60.3,3.3,90.5c0.6,28.8,0.3,57.5,0.5,86.4c0,2.1,0.2,3.6,1.3,5.1c1.7,2.4,2.9,5.1,3,8c0.5,12.5-2.4,12.4-5.2,13.2
			C-61.2-213.5-67.4-207.3-73.3-216.7z"/>
	</g>
</g>
<g>
	<g>
		<path class="st1" d="M439.7-103.1l-0.3,0.5c-0.3,0.6-1,0.8-1.6,0.6c-3-0.9-6.2-1.6-8.9-3.1c-26.7-14-53.6-27.8-80-42.4
			c-25.2-13.9-50-28.5-75.1-42.8c-1.8-1-3.2-1.6-5.1-1.5c-2.9,0.3-5.8-0.1-8.4-1.4c-11-5.8-9.6-8.2-8.9-11.1c0,0-0.1-0.3-0.1-0.8
			c0,0-0.1,0.1-0.1,0.2c-2.1,3.9-9.6,5.9-13.8,7c-3.1,0.8-6.3,2.5-7.4,5.2c-5.9,13.9-17.7,19.8-30.2,25.9
			c-39.3,19.2-78.3,38.9-117.5,58.2c-4.5,2.2-9.5,3.3-14.3,4.8c-0.6,0.2-1.3-0.1-1.6-0.6l-0.3-0.5c-0.3-0.6-0.2-1.3,0.3-1.7
			c2.3-2.2,4.5-4.5,7.1-6.2c25.5-16.2,50.9-32.5,76.7-48.1c24.6-14.9,49.7-29.1,74.6-43.6c1.8-1,3-2,3.8-3.7c1.2-2.6,3-5,5.4-6.6
			c10.5-6.7,11.9-4.1,14-2.1c0,0,0.3,0.1,0.7,0.3c0,0-0.1-0.1-0.1-0.1c-2.3-3.7-0.4-11.2,0.9-15.5c0.9-3.1,1-6.7-0.8-9
			c-9.1-12-8.3-25.2-7.4-39.1c3-43.6,5.5-87.3,8.4-130.9c0.3-5,1.9-9.9,3-14.8c0.1-0.6,0.7-1.1,1.3-1.1h0.6c0.7,0,1.2,0.5,1.3,1.1
			c0.7,3.1,1.7,6.2,1.8,9.3c1.2,30.2,2.7,60.3,3.3,90.5c0.6,28.8,0.3,57.5,0.5,86.4c0,2.1,0.2,3.6,1.3,5.1c1.7,2.4,2.9,5.1,3,8
			c0.5,12.4-2.4,12.4-5.2,13.2c0,0-0.2,0.2-0.6,0.5c0,0,0.1,0,0.2,0c4.4-0.2,9.9,5.3,13,8.5c2.2,2.3,5.3,4.2,8.2,3.8
			c14.9-1.9,26,5.4,37.5,13.2c36.2,24.4,72.9,48.3,109.2,72.7c4.1,2.8,7.6,6.6,11.3,10C439.9-104.3,440-103.7,439.7-103.1z"/>
	</g>
</g>
<path class="st0" d="M233.7,214.7c-3.7,1-7.4,0.8-9,2.6c-12.3,13.6-29,13-45,14.8c-35.2,3.9-70.5,7.6-105.7,11.4
	c-8.3,0.9-16.7,1.5-25,1.8c-3.2,0.1-6.4-1.1-9.6-1.7l-0.2-2.2c5.7-1.8,11.3-4.1,17.1-5.2c56.3-10.7,112.6-21.2,169-31.6
	c3.8-0.7,7.8-0.8,9.4-4.4c0.9-2,2.8-3.3,5-3.4C261.9,195,264.3,199.6,233.7,214.7z"/>
<path class="st0" d="M258.2,210.8c2.6,0.9,4.4,3.2,4.7,5.9c0.8,6.5,4.7,10.3,11.8,11.6c7.8,1.4,12.1,6.8,16.4,12.7
	c28.5,38.8,57.2,77.5,85.6,116.4c2.9,3.9,4.5,8.8,6.7,13.3l-2.2,1.6c-3.3-2.9-7-5.4-10-8.6c-20.7-22.9-41.5-45.7-61.8-68.9
	c-16.3-18.6-32-37.6-47.9-56.4c-0.3-0.3-0.5-0.6-0.7-1c-0.4-0.7-0.7-1.4-0.9-2.2C237.4,210,240.8,205,258.2,210.8z"/>
<rect x="39" y="10.9" class="st2" width="821" height="609"/>
<linearGradient id="SVGID_1_" gradientUnits="userSpaceOnUse" x1="528.8325" y1="280.0571" x2="528.8325" y2="-9.7769" gradientTransform="matrix(1 0 0 -1 0 610)">
	<stop  offset="0" style="stop-color:#22C3E8"/>
	<stop  offset="0.9167" style="stop-color:#1D282E;stop-opacity:0.49"/>
</linearGradient>
<path class="st3" d="M537.2,342.3c13.7,3.1,27.3,5.5,39.4,14.5c22.7,16.8,46.8,31.7,70.2,47.5c2.9,2,5.1,4.8,6.5,8
	c-39.3-18.5-77.5-39.1-114.7-61.6c-7.2,7.6-4.5,16.8-4.1,25.4c2.6,70.8,5.4,141.5,8,212.3c0.4,10.3,0,20.6,0,31.2H523
	c-0.1-1.8-0.4-3.6-0.4-5.5c-0.7-83.2-1.3-166.4-2-249.5c0-3.9-1.6-7.8-3.6-12.1c-4.8,13.2-16.8,16.4-27,21.7
	c-24.6,12.6-49.2,25.1-74,37.5c-3.3,1.7-7,2.4-10.6,3.6l-1-2c2.6-2.3,5.3-4.4,8.2-6.3c32.7-20.2,65.4-40.3,98.2-60.3
	c4-2.5,6.8-4.6,6.5-9.9c-0.3-5.3,0.3-5.3,9.9-7"/>
<linearGradient id="SVGID_2_" gradientUnits="userSpaceOnUse" x1="528.545" y1="410.2191" x2="528.545" y2="267.6761" gradientTransform="matrix(1 0 0 -1 0 610)">
	<stop  offset="0" style="stop-color:#22C3E8"/>
	<stop  offset="0.9167" style="stop-color:#1D282E;stop-opacity:0.49"/>
</linearGradient>
<path class="st4" d="M527.2,329.9c-1.8-3.9-3.7-7.4-5.1-11.1c-1-2.7-2.2-5.6-2.1-8.4c1.7-33.4,3.6-66.7,5.7-100.1
	c0.2-3.2,1.2-6.4,1.9-9.6c0.1-0.6,0.6-1,1.2-1l0,0c0.6,0,1.1,0.4,1.2,1c0.6,2.6,1.4,5.2,1.4,7.9c1,38.6,1.8,77.2,2.9,115.7
	c0.2,5.8,1.7,11.7,2.7,17.9L527.2,329.9z"/>
<linearGradient id="SVGID_3_" gradientUnits="userSpaceOnUse" x1="766.8784" y1="292.5691" x2="766.8784" y2="-9.9449" gradientTransform="matrix(1 0 0 -1 0 610)">
	<stop  offset="0" style="stop-color:#22C3E8"/>
	<stop  offset="0.9167" style="stop-color:#1D282E;stop-opacity:0.49"/>
</linearGradient>
<path class="st5" d="M674.1,379.2c4,0.4,8,0.5,12,1.2c28.4,4.9,56.8,9.9,85.3,14.8c1.6,0.3,3.5-1.3,5.3-1.7c4.5-0.8,9-1.4,14.8-2.2
	c-0.8,0.8-0.3,0.5-0.3,0.2c0.5-9.7,7.4-15.3,13.5-21.5c15.7-15.8,31.5-31.6,47.2-47.4c2.1-1.9,4.4-3.7,6.7-5.3l1.4,1.2
	c-1.3,2.4-2.8,4.7-4.5,7c-19.4,23.2-38.9,46.3-58.5,69.3c-7.5,8.7-7.5,14.4,0.7,22.3c1.7,1.6,3.1,3.5,3.8,5.8
	c6.8,25.3,13.4,50.7,20,76.1c0.8,3.1,0.8,6.4,0.1,9.5c-12.3-26.4-21.3-54-32.2-81.1c2.5,64.1,4.9,128.2,7.4,192.5h-16.4
	c-0.1-1.9-0.3-3.8-0.3-5.7c-0.5-64.5-0.9-128.9-1.5-193.4c0-5.7-1.9-11.4-3.4-17c-0.2-0.9-3.3-2.1-4.2-1.6
	c-7.9,4.2-15.4,1.4-23.1-0.5c-21.7-5.6-43.5-11.2-65.2-16.8c-3.1-1-6.1-2.1-9.1-3.4L674.1,379.2z"/>
<linearGradient id="SVGID_4_" gradientUnits="userSpaceOnUse" x1="253.3434" y1="415.6241" x2="253.3434" y2="-9.8369" gradientTransform="matrix(1 0 0 -1 0 610)">
	<stop  offset="0" style="stop-color:#22C3E8"/>
	<stop  offset="0.9167" style="stop-color:#1D282E;stop-opacity:0.49"/>
</linearGradient>
<path class="st6" d="M259.7,197.1c2.6,4.2,3.3,10.3,3,15.4c-0.3,8.7-0.2,13.8-1.8,19c-0.2,0.6-1.2,3-1.9,4.2l0,0
	c-0.5,0.3-0.7,1.6-0.7,2.1c4.9,127.4,9.7,254.3,14.7,382.1h-31.5c0-16.4,0.1-32.6,0-48.9c-0.9-110.8-1.8-221.7-2.8-332.6
	c0-2.3-1.9-4.5-2.8-6.9c-0.9-2.2-1.6-4.4-2-6.7c-0.2-3.4,0-9.2,0.1-12.6l1.3-15.2c0.1-0.9,2.2-2.1,3.6-2.4
	C247.8,194.2,256.7,193.8,259.7,197.1z"/>
<line class="st7" x1="1036.4" y1="-50.6" x2="1036.4" y2="209.6"/>
<linearGradient id="SVGID_5_" gradientUnits="userSpaceOnUse" x1="528.1324" y1="342.6313" x2="528.1324" y2="192.0835">
	<stop  offset="0" style="stop-color:#22C3E8"/>
	<stop  offset="0.9167" style="stop-color:#1D282E;stop-opacity:0.49"/>
</linearGradient>
<line class="st8" x1="528.8" y1="192.1" x2="527.4" y2="342.6"/>
<linearGradient id="SVGID_6_" gradientUnits="userSpaceOnUse" x1="528.4593" y1="410.2191" x2="528.4593" y2="265.2966" gradientTransform="matrix(1 0 0 -1 0 610)">
	<stop  offset="0" style="stop-color:#22C3E8"/>
	<stop  offset="0.9167" style="stop-color:#1D282E;stop-opacity:0.49"/>
</linearGradient>
<path class="st9" d="M527.2,329.9c-1.8-3.9-3.7-7.4-5.1-11.1c-1-2.7-2.2-5.6-2.1-8.4c1.7-33.4,3.6-66.7,5.7-100.1
	c0.2-3.2,1.2-6.4,1.9-9.6c0.1-0.6,0.6-1,1.2-1l0,0c0.6,0,1.1,0.4,1.2,1c0.6,2.6,1.4,5.2,1.4,7.9c1,38.6,1.8,77.2,2.9,115.7
	c0.2,5.5,1.6,12,2.6,18c0.1,0.6-0.4,1.2-1,1.2l-6.2,1.1c-1.6,0.2-2.3-0.7-2.3-2.1l0,0L527.2,329.9z"/>
<g>
	
		<linearGradient id="SVGID_7_" gradientUnits="userSpaceOnUse" x1="682.2122" y1="912.8736" x2="682.2122" y2="767.951" gradientTransform="matrix(1 0 0 -1 0 610)">
		<stop  offset="0" style="stop-color:#22C3E8"/>
		<stop  offset="0.9167" style="stop-color:#1D282E;stop-opacity:0.49"/>
	</linearGradient>
	<path class="st10" d="M680.9-172.7c-1.8-3.9-3.7-7.4-5.1-11.1c-1-2.7-2.2-5.6-2.1-8.4c1.7-33.4,3.6-66.7,5.7-100.1
		c0.2-3.2,1.2-6.4,1.9-9.6c0.1-0.6,0.6-1,1.2-1l0,0c0.6,0,1.1,0.4,1.2,1c0.6,2.6,1.4,5.2,1.4,7.9c1,38.6,1.8,77.2,2.9,115.7
		c0.2,5.5,1.6,12,2.6,18c0.1,0.6-0.4,1.2-1,1.2l-6.2,1.1c-1.6,0.2-2.3-0.7-2.3-2.1v0L680.9-172.7z"/>
</g>
</svg>
