<?xml version="1.0" encoding="utf-8"?>
<!-- Generator: Adobe Illustrator 25.3.1, SVG Export Plug-In . SVG Version: 6.00 Build 0)  -->
<svg version="1.1" id="Layer_1" xmlns="http://www.w3.org/2000/svg" xmlns:xlink="http://www.w3.org/1999/xlink" x="0px" y="0px"
	 viewBox="0 0 821 609" style="enable-background:new 0 0 821 609;" xml:space="preserve">
<style type="text/css">
	.st0{clip-path:url(#SVGID_2_);fill:#22C3E8;fill-opacity:0.4;}
	.st1{clip-path:url(#SVGID_2_);fill:url(#SVGID_3_);fill-opacity:0.4;}
	.st2{clip-path:url(#SVGID_2_);fill:url(#SVGID_4_);fill-opacity:0.4;}
	.st3{clip-path:url(#SVGID_2_);fill:url(#SVGID_5_);fill-opacity:0.4;}
</style>
<g>
	<defs>
		<rect id="SVGID_1_" x="-2.8" y="-1.2" width="821" height="609"/>
	</defs>
	<clipPath id="SVGID_2_">
		<use xlink:href="#SVGID_1_"  style="overflow:visible;"/>
	</clipPath>
	<path class="st0" d="M198.6,189.8c-0.8-3.6,0.5-7.3,3.5-9.5c3-2.2,4.6-5.5,3.5-9.5c-4.2-14.5,1.3-26.6,7.2-39.1
		c18.5-39.6,36.4-79.5,54.8-119.1c2.3-4.9,5.8-9.1,8.8-13.7l2.6,1c-0.6,3.5-0.7,7.1-1.8,10.4c-9.7,28.6-19.2,57.3-29.4,85.6
		c-9.8,27.1-20.4,53.8-30.6,80.8c-0.8,2-1.1,3.6-0.6,5.5c0.7,2.4,0.8,4.9,0.2,7.3C209.7,214.1,203.8,211.9,198.6,189.8z"/>
	<path class="st0" d="M191.9,202.7c-3.7,1-7.4,0.8-9,2.6c-12.3,13.6-29,13-45,14.8c-35.2,3.9-70.5,7.6-105.7,11.4
		c-8.3,0.9-16.7,1.5-25,1.8c-3.2,0.1-6.4-1.1-9.6-1.7l-0.2-2.2c5.7-1.8,11.3-4.1,17.1-5.2c56.3-10.7,112.6-21.2,169-31.6
		c3.8-0.7,7.8-0.8,9.4-4.4c0.9-2,2.8-3.3,5-3.4C220,182.9,222.5,187.5,191.9,202.7z"/>
	<path class="st0" d="M216.3,198.8c2.6,0.9,4.4,3.2,4.7,5.9c0.8,6.5,4.7,10.3,11.8,11.6c7.8,1.4,12.1,6.8,16.4,12.7
		c28.5,38.8,57.2,77.5,85.6,116.4c2.9,3.9,4.5,8.8,6.7,13.3l-2.2,1.6c-3.3-2.9-7-5.4-10-8.6c-20.7-22.9-41.5-45.7-61.8-68.9
		c-16.3-18.6-32-37.6-47.9-56.4c-0.3-0.3-0.5-0.6-0.7-1c-0.4-0.7-0.7-1.4-0.9-2.2C195.5,197.9,199,192.9,216.3,198.8z"/>
	
		<linearGradient id="SVGID_3_" gradientUnits="userSpaceOnUse" x1="486.9926" y1="422.2996" x2="486.9926" y2="2.3036" gradientTransform="matrix(1 0 0 -1 0 610)">
		<stop  offset="0" style="stop-color:#22C3E8"/>
		<stop  offset="0.9167" style="stop-color:#1D282E;stop-opacity:0.49"/>
	</linearGradient>
	<path class="st1" d="M362.6,401.4c2.6-2.3,5.3-4.4,8.2-6.3c32.7-20.2,65.4-40.3,98.2-60.3c4-2.5,6.8-4.6,6.5-9.9
		c-0.3-5.3,0.3-5.3,9.9-7c-1.8-3.9-3.7-7.4-5.1-11.1c-1-2.7-2.2-5.6-2.1-8.4c1.7-33.4,3.6-66.7,5.7-100.1c0.2-3.6,1.4-7.1,2.1-10.6
		h2.1c0.6,3,1.6,5.9,1.7,8.9c1,38.6,1.8,77.2,2.9,115.7c0.2,5.8,1.7,11.7,2.7,17.9c13.7,3.1,27.3,5.5,39.4,14.5
		c22.7,16.8,46.8,31.7,70.2,47.5c2.9,2,5.1,4.8,6.5,8c-39.3-18.5-77.5-39.1-114.7-61.6c-7.2,7.6-4.5,16.8-4.1,25.4
		c2.6,70.8,5.4,141.6,8,212.3c0.4,10.3,0,20.6,0,31.2h-19.4c-0.1-1.8-0.4-3.6-0.4-5.5c-0.7-83.2-1.3-166.4-2-249.5
		c0-3.9-1.6-7.8-3.6-12.1c-4.8,13.2-16.8,16.4-27,21.7c-24.6,12.6-49.2,25.1-74,37.5c-3.3,1.7-7,2.4-10.6,3.6L362.6,401.4z"/>
	
		<linearGradient id="SVGID_4_" gradientUnits="userSpaceOnUse" x1="725.0386" y1="304.6496" x2="725.0386" y2="2.1356" gradientTransform="matrix(1 0 0 -1 0 610)">
		<stop  offset="0" style="stop-color:#22C3E8"/>
		<stop  offset="0.9167" style="stop-color:#1D282E;stop-opacity:0.49"/>
	</linearGradient>
	<path class="st2" d="M632.3,367.1c4,0.4,8,0.5,12,1.2c28.4,4.9,56.8,9.9,85.3,14.8c1.6,0.3,3.5-1.3,5.3-1.7c4.5-0.8,9-1.4,14.8-2.2
		c-0.8,0.8-0.3,0.5-0.3,0.2c0.5-9.7,7.4-15.3,13.5-21.5c15.7-15.8,31.5-31.6,47.2-47.4c2.1-1.9,4.4-3.7,6.7-5.3l1.4,1.2
		c-1.3,2.4-2.8,4.7-4.5,7c-19.4,23.2-38.9,46.3-58.5,69.3c-7.5,8.7-7.5,14.4,0.7,22.3c1.7,1.6,3.1,3.5,3.8,5.8
		c6.8,25.3,13.4,50.7,20,76.1c0.8,3.1,0.8,6.4,0.1,9.5c-12.3-26.4-21.3-54-32.2-81.1c2.5,64.1,4.9,128.2,7.4,192.5h-16.4
		c-0.1-1.9-0.3-3.8-0.3-5.7c-0.5-64.5-0.9-128.9-1.5-193.4c0-5.7-1.9-11.4-3.4-17c-0.2-0.9-3.3-2.1-4.2-1.6
		c-7.9,4.2-15.4,1.4-23.1-0.5c-21.7-5.6-43.5-11.2-65.2-16.8c-3.1-1-6.1-2.1-9.1-3.4L632.3,367.1z"/>
	
		<linearGradient id="SVGID_5_" gradientUnits="userSpaceOnUse" x1="211.5036" y1="427.7046" x2="211.5036" y2="2.2436" gradientTransform="matrix(1 0 0 -1 0 610)">
		<stop  offset="0" style="stop-color:#22C3E8"/>
		<stop  offset="0.9167" style="stop-color:#1D282E;stop-opacity:0.49"/>
	</linearGradient>
	<path class="st3" d="M217.9,185c2.6,4.2,3.3,10.3,3,15.4c-0.3,8.7-0.2,13.8-1.8,19c-0.2,0.6-1.2,3-1.9,4.2l0,0
		c-0.5,0.3-0.7,1.6-0.7,2.1c4.9,127.4,9.7,254.3,14.7,382.1h-31.5c0-16.4,0.1-32.6,0-48.9c-0.9-110.8-1.8-221.7-2.8-332.6
		c0-2.3-1.9-4.5-2.8-6.9c-0.9-2.2-1.6-4.4-2-6.7c-0.2-3.4,0-9.2,0.1-12.6l1.3-15.2c0.1-0.9,2.2-2.1,3.6-2.4
		C205.9,182.2,214.8,181.7,217.9,185z"/>
</g>
</svg>
