<svg width="821" height="609" viewBox="0 0 821 609" fill="none" xmlns="http://www.w3.org/2000/svg">
<g clip-path="url(#clip0_173_27)">
<path d="M194.699 203.813C190.988 204.806 187.276 204.651 185.696 206.409C173.4 219.986 156.662 219.424 140.655 221.182C105.415 225.034 70.1717 228.818 34.9242 232.535C26.6152 233.42 18.2583 234.042 9.90139 234.317C6.71666 234.425 3.47208 233.216 0.26341 232.606L0.0239563 230.381C5.73491 228.623 11.3261 226.29 17.1568 225.19C73.4522 214.535 129.771 204.009 186.115 193.609C190.736 192.748 195.753 192.772 196.256 186.133C196.327 185.212 198.506 184.051 199.847 183.74C205.714 182.245 210.012 177.759 208.36 171.958C204.193 157.483 209.677 145.401 215.544 132.841C234.041 93.2338 251.988 53.3635 270.366 13.6966C272.617 8.83988 276.173 4.56935 279.118 0.0356445L281.716 1.01655C281.142 4.49758 281.034 8.13411 279.92 11.4237C270.234 40.0136 260.764 68.6752 250.48 97.0618C240.71 124.144 230.126 150.892 219.89 177.855C218.764 180.798 218.513 182.76 220.656 186.145C223.29 190.32 223.96 196.397 223.697 201.576C223.254 210.715 227.097 215.835 235.67 217.414C243.464 218.85 247.738 224.185 252.06 230.07C280.531 268.912 309.229 307.586 337.652 346.451C340.538 350.399 342.142 355.268 344.345 359.706L342.154 361.297C338.814 358.426 335.114 355.89 332.181 352.66C311.456 329.788 290.696 306.94 270.354 283.745C253.952 265.036 238.088 245.861 222.033 226.853C221.51 226.02 221.107 225.118 220.835 224.173L219.207 225.226C224.084 352.951 228.989 480.848 233.921 608.916H202.386C202.386 592.564 202.493 576.307 202.386 560.05C201.524 449.2 200.598 338.349 199.608 227.499C199.608 225.202 197.668 222.953 196.806 220.62C195.875 218.464 195.197 216.209 194.783 213.897C194.573 210.54 194.545 207.174 194.699 203.813Z" fill="url(#paint0_linear_173_27)" fill-opacity="0.4"/>
<path d="M365.381 402.579C367.995 400.327 370.729 398.219 373.57 396.262C406.232 376.054 438.957 355.942 471.746 335.925C475.793 333.46 478.547 331.331 478.295 325.996C478.044 320.661 478.57 320.661 488.149 319.022C486.317 315.158 484.437 311.641 483 307.957C481.959 305.289 480.761 302.359 480.905 299.583C482.637 266.208 484.541 232.846 486.616 199.495C486.832 195.906 488.005 192.401 488.723 188.86H490.783C491.357 191.815 492.363 194.758 492.435 197.724C493.464 236.303 494.255 274.881 495.38 313.46C495.56 319.309 497.128 325.123 498.122 331.403C511.818 334.537 525.384 336.918 537.5 345.901C560.152 362.732 584.265 377.613 607.671 393.439C610.547 395.464 612.809 398.241 614.209 401.466C574.948 382.927 536.668 362.381 499.523 339.908C492.339 347.516 495.069 356.715 495.38 365.292C497.954 436.073 500.792 506.842 503.414 577.623C503.797 587.91 503.414 598.21 503.414 608.856H483.97C483.826 607.098 483.551 605.267 483.539 603.33C482.877 520.152 482.198 436.978 481.504 353.808C481.504 349.873 479.899 345.961 477.912 341.702C473.123 354.861 461.15 358.151 450.926 363.414C426.334 376.038 401.682 388.551 376.971 400.952C373.678 402.614 369.931 403.344 366.387 404.54L365.381 402.579Z" fill="url(#paint1_linear_173_27)" fill-opacity="0.4"/>
<path d="M635.101 368.295C639.088 368.69 643.111 368.821 647.073 369.491C675.497 374.384 703.896 379.432 732.331 384.241C733.959 384.516 735.827 382.913 737.658 382.59C742.148 381.788 746.686 381.226 752.433 380.389C751.607 381.142 752.121 380.903 752.133 380.628C752.636 370.939 759.544 365.316 765.674 359.168C781.422 343.393 797.162 327.607 812.895 311.809C815.033 309.909 817.284 308.14 819.635 306.51L821.036 307.706C819.709 310.12 818.221 312.442 816.582 314.656C797.138 337.815 777.707 360.998 758.036 383.978C750.565 392.71 750.565 398.416 758.766 406.251C760.514 407.811 761.827 409.798 762.573 412.017C769.35 437.345 776.011 462.705 782.556 488.097C783.318 491.205 783.355 494.447 782.664 497.571C770.404 471.135 761.412 443.55 750.469 416.515C752.92 480.577 755.382 544.747 757.856 609.024H741.454C741.346 607.146 741.178 605.244 741.154 603.342C740.675 538.889 740.292 474.436 739.61 409.984C739.61 404.301 737.706 398.584 736.246 392.997C736.018 392.1 732.977 390.88 732.055 391.37C724.165 395.521 716.611 392.818 708.948 390.832C687.206 385.198 665.439 379.671 643.721 373.989C640.639 373.019 637.61 371.889 634.646 370.604L635.101 368.295Z" fill="url(#paint2_linear_173_27)" fill-opacity="0.4"/>
</g>
<defs>
<linearGradient id="paint0_linear_173_27" x1="172.185" y1="0.0356445" x2="172.185" y2="608.916" gradientUnits="userSpaceOnUse">
<stop stop-color="#22C3E8"/>
<stop offset="0.916667" stop-color="#1D282E" stop-opacity="0.49"/>
</linearGradient>
<linearGradient id="paint1_linear_173_27" x1="489.795" y1="188.86" x2="489.795" y2="608.856" gradientUnits="userSpaceOnUse">
<stop stop-color="#22C3E8"/>
<stop offset="0.916667" stop-color="#1D282E" stop-opacity="0.49"/>
</linearGradient>
<linearGradient id="paint2_linear_173_27" x1="727.841" y1="306.51" x2="727.841" y2="609.024" gradientUnits="userSpaceOnUse">
<stop stop-color="#22C3E8"/>
<stop offset="0.916667" stop-color="#1D282E" stop-opacity="0.49"/>
</linearGradient>
<clipPath id="clip0_173_27">
<rect width="821" height="609" fill="white"/>
</clipPath>
</defs>
</svg>
