<svg width="1512" height="724" viewBox="0 0 1512 724" fill="none" xmlns="http://www.w3.org/2000/svg">
<ellipse cx="553.574" cy="219.298" rx="2.03421" ry="2.03416" transform="rotate(-180 553.574 219.298)" fill="#E3FAFF" fill-opacity="0.13"/>
<circle cx="581.036" cy="330.16" r="3.05124" transform="rotate(-180 581.036 330.16)" fill="#E3FAFF" fill-opacity="0.13"/>
<ellipse cx="492.922" cy="283.361" rx="1.59454" ry="1.59459" transform="rotate(-180 492.922 283.361)" fill="#E3FAFF" fill-opacity="0.13"/>
<ellipse cx="642.259" cy="636.524" rx="1.5946" ry="1.59459" transform="rotate(-180 642.259 636.524)" fill="#E3FAFF" fill-opacity="0.13"/>
<ellipse cx="1008.51" cy="639.487" rx="1.5946" ry="1.59459" transform="rotate(-180 1008.51 639.487)" fill="#E3FAFF" fill-opacity="0.13"/>
<ellipse cx="1380.58" cy="653.306" rx="1.5946" ry="1.59459" transform="rotate(-180 1380.58 653.306)" fill="#E3FAFF" fill-opacity="0.13"/>
<circle cx="1192.42" cy="663.937" r="1.59459" transform="rotate(-180 1192.42 663.937)" fill="#E3FAFF" fill-opacity="0.13"/>
<ellipse cx="92.3193" cy="625.446" rx="2.03418" ry="2.03416" transform="rotate(-180 92.3193 625.446)" fill="#E3FAFF" fill-opacity="0.13"/>
<ellipse cx="528.174" cy="474.491" rx="2.03418" ry="2.03416" transform="rotate(-180 528.174 474.491)" fill="#E3FAFF" fill-opacity="0.13"/>
<path d="M397.361 263.541C397.361 262.136 398.5 260.998 399.904 260.998C401.308 260.998 402.447 262.136 402.447 263.541C402.447 264.945 401.308 266.083 399.904 266.083C398.5 266.083 397.361 264.945 397.361 263.541Z" fill="#E3FAFF" fill-opacity="0.13"/>
<ellipse cx="626.804" cy="239.64" rx="2.03412" ry="2.03416" transform="rotate(-180 626.804 239.64)" fill="#E3FAFF" fill-opacity="0.13"/>
<ellipse cx="566.796" cy="303.716" rx="2.03415" ry="2.03416" transform="rotate(-180 566.796 303.716)" fill="#E3FAFF" fill-opacity="0.13"/>
<ellipse cx="716.133" cy="656.878" rx="2.03415" ry="2.03416" transform="rotate(-180 716.133 656.878)" fill="#E3FAFF" fill-opacity="0.13"/>
<ellipse cx="1082.38" cy="659.841" rx="2.03416" ry="2.03416" transform="rotate(-180 1082.38 659.841)" fill="#E3FAFF" fill-opacity="0.13"/>
<ellipse cx="1454.45" cy="673.661" rx="2.03416" ry="2.03416" transform="rotate(-180 1454.45 673.661)" fill="#E3FAFF" fill-opacity="0.13"/>
<ellipse cx="1266.29" cy="684.291" rx="2.03415" ry="2.03416" transform="rotate(-180 1266.29 684.291)" fill="#E3FAFF" fill-opacity="0.13"/>
<ellipse cx="165.549" cy="645.788" rx="2.03418" ry="2.03416" transform="rotate(-180 165.549 645.788)" fill="#E3FAFF" fill-opacity="0.13"/>
<ellipse cx="601.403" cy="494.833" rx="2.03415" ry="2.03416" transform="rotate(-180 601.403 494.833)" fill="#E3FAFF" fill-opacity="0.13"/>
<ellipse cx="456.247" cy="230.74" rx="1.06305" ry="1.06308" transform="rotate(-180 456.247 230.74)" fill="#E3FAFF" fill-opacity="0.13"/>
<ellipse cx="605.583" cy="583.902" rx="1.06305" ry="1.06306" transform="rotate(-180 605.583 583.902)" fill="#E3FAFF" fill-opacity="0.13"/>
<ellipse cx="971.83" cy="586.865" rx="1.06308" ry="1.06306" transform="rotate(-180 971.83 586.865)" fill="#E3FAFF" fill-opacity="0.13"/>
<ellipse cx="1343.9" cy="600.685" rx="1.06306" ry="1.06306" transform="rotate(-180 1343.9 600.685)" fill="#E3FAFF" fill-opacity="0.13"/>
<ellipse cx="1155.74" cy="611.316" rx="1.06306" ry="1.06306" transform="rotate(-180 1155.74 611.316)" fill="#E3FAFF" fill-opacity="0.13"/>
<ellipse cx="621.529" cy="476.533" rx="1.06302" ry="1.06306" transform="rotate(-180 621.529 476.533)" fill="#E3FAFF" fill-opacity="0.13"/>
<ellipse cx="852.213" cy="616.857" rx="1.06305" ry="1.06306" transform="rotate(-180 852.213 616.857)" fill="#E3FAFF" fill-opacity="0.13"/>
<ellipse cx="813.943" cy="680.641" rx="1.06305" ry="1.06306" transform="rotate(-180 813.943 680.641)" fill="#E3FAFF" fill-opacity="0.13"/>
<ellipse cx="1180.19" cy="683.604" rx="1.06305" ry="1.06306" transform="rotate(-180 1180.19 683.604)" fill="#E3FAFF" fill-opacity="0.13"/>
<ellipse cx="1364.1" cy="708.054" rx="1.06306" ry="1.06306" transform="rotate(-180 1364.1 708.054)" fill="#E3FAFF" fill-opacity="0.13"/>
<ellipse rx="1.06307" ry="1.06307" transform="matrix(0.661676 0.74979 -0.749793 0.661672 859.234 506.786)" fill="#E3FAFF" fill-opacity="0.13"/>
<circle cx="1197.3" cy="584.29" r="1.06306" transform="rotate(48.5723 1197.3 584.29)" fill="#E3FAFF" fill-opacity="0.13"/>
<ellipse rx="1.00018" ry="1.00018" transform="matrix(0.661672 0.749794 -0.74979 0.661676 769.51 544.254)" fill="#E3FAFF" fill-opacity="0.13"/>
<circle cx="1135.76" cy="547.216" r="1.00017" transform="rotate(48.5723 1135.76 547.216)" fill="#E3FAFF" fill-opacity="0.13"/>
<ellipse rx="1.00018" ry="1.00018" transform="matrix(0.661675 0.749791 -0.749793 0.661673 1507.83 561.036)" fill="#E3FAFF" fill-opacity="0.13"/>
<circle cx="1319.67" cy="571.667" r="1.00017" transform="rotate(48.5723 1319.67 571.667)" fill="#E3FAFF" fill-opacity="0.13"/>
<ellipse cx="543.403" cy="257.947" rx="2.03418" ry="2.03416" transform="rotate(-180 543.403 257.947)" fill="#E3FAFF" fill-opacity="0.13"/>
<ellipse cx="528.534" cy="247.749" rx="2.12616" ry="2.12613" transform="rotate(-180 528.534 247.749)" fill="#E3FAFF" fill-opacity="0.13"/>
<ellipse cx="497.634" cy="222.349" rx="3.05127" ry="3.05122" transform="rotate(-180 497.634 222.349)" fill="#E3FAFF" fill-opacity="0.13"/>
<ellipse cx="619.685" cy="288.459" rx="2.03415" ry="2.03416" transform="rotate(-180 619.685 288.459)" fill="#E3FAFF" fill-opacity="0.13"/>
<ellipse cx="218.021" cy="631.884" rx="2.12616" ry="2.12612" transform="rotate(-180 218.021 631.884)" fill="#E3FAFF" fill-opacity="0.13"/>
<ellipse cx="653.875" cy="480.93" rx="2.12613" ry="2.12611" transform="rotate(-180 653.875 480.93)" fill="#E3FAFF" fill-opacity="0.13"/>
<ellipse cx="607.479" cy="266.592" rx="3.05121" ry="2.54269" transform="rotate(-180 607.479 266.592)" fill="#E3FAFF" fill-opacity="0.13"/>
<ellipse cx="477.553" cy="220.156" rx="1.01697" ry="1.01707" transform="rotate(-180 477.553 220.156)" fill="#E3FAFF" fill-opacity="0.13"/>
<ellipse cx="626.89" cy="573.318" rx="1.01709" ry="1.01708" transform="rotate(-180 626.89 573.318)" fill="#E3FAFF" fill-opacity="0.13"/>
<ellipse cx="993.137" cy="576.281" rx="1.01709" ry="1.01708" transform="rotate(-180 993.137 576.281)" fill="#E3FAFF" fill-opacity="0.13"/>
<ellipse cx="1365.21" cy="590.101" rx="1.01707" ry="1.01708" transform="rotate(-180 1365.21 590.101)" fill="#E3FAFF" fill-opacity="0.13"/>
<ellipse cx="1177.05" cy="600.731" rx="1.01707" ry="1.01708" transform="rotate(-180 1177.05 600.731)" fill="#E3FAFF" fill-opacity="0.13"/>
<circle cx="642.836" cy="465.949" r="1.01709" transform="rotate(-180 642.836 465.949)" fill="#E3FAFF" fill-opacity="0.13"/>
<ellipse cx="873.52" cy="606.272" rx="1.01712" ry="1.01708" transform="rotate(-180 873.52 606.272)" fill="#E3FAFF" fill-opacity="0.13"/>
<ellipse cx="835.25" cy="670.056" rx="1.01706" ry="1.01708" transform="rotate(-180 835.25 670.056)" fill="#E3FAFF" fill-opacity="0.13"/>
<ellipse cx="1201.5" cy="673.019" rx="1.01707" ry="1.01708" transform="rotate(-180 1201.5 673.019)" fill="#E3FAFF" fill-opacity="0.13"/>
<ellipse cx="1385.41" cy="697.469" rx="1.01708" ry="1.01708" transform="rotate(-180 1385.41 697.469)" fill="#E3FAFF" fill-opacity="0.13"/>
<circle cx="837.199" cy="497.813" r="1.01708" transform="rotate(48.5723 837.199 497.813)" fill="#E3FAFF" fill-opacity="0.13"/>
<ellipse rx="0.956917" ry="0.956916" transform="matrix(0.66167 0.749796 -0.749788 0.661678 748.779 535.812)" fill="#E3FAFF" fill-opacity="0.13"/>
<circle cx="483.886" cy="333.857" r="1.06305" transform="rotate(-180 483.886 333.857)" fill="#E3FAFF" fill-opacity="0.13"/>
<ellipse cx="633.223" cy="687.019" rx="1.06308" ry="1.06306" transform="rotate(-180 633.223 687.019)" fill="#E3FAFF" fill-opacity="0.13"/>
<ellipse cx="498.352" cy="352.575" rx="2.54272" ry="2.54271" transform="rotate(-180 498.352 352.575)" fill="#E3FAFF" fill-opacity="0.13"/>
<ellipse cx="426.948" cy="286.934" rx="1.52563" ry="1.52562" transform="rotate(-180 426.948 286.934)" fill="#E3FAFF" fill-opacity="0.13"/>
<ellipse cx="576.285" cy="640.096" rx="1.5256" ry="1.52562" transform="rotate(-180 576.285 640.096)" fill="#E3FAFF" fill-opacity="0.13"/>
<ellipse cx="565.779" cy="337.279" rx="2.03415" ry="2.03416" transform="rotate(-180 565.779 337.279)" fill="#E3FAFF" fill-opacity="0.13"/>
<ellipse cx="715.116" cy="690.441" rx="2.03418" ry="2.03416" transform="rotate(-180 715.116 690.441)" fill="#E3FAFF" fill-opacity="0.13"/>
<ellipse cx="457.969" cy="251.844" rx="2.03412" ry="2.03416" transform="rotate(-180 457.969 251.844)" fill="#E3FAFF" fill-opacity="0.13"/>
<ellipse cx="56.7217" cy="593.917" rx="2.03418" ry="2.03416" transform="rotate(-180 56.7217 593.917)" fill="#E3FAFF" fill-opacity="0.13"/>
<ellipse cx="492.576" cy="442.962" rx="2.03418" ry="2.03416" transform="rotate(-180 492.576 442.962)" fill="#E3FAFF" fill-opacity="0.13"/>
<ellipse cx="417.285" cy="584.43" rx="3.05127" ry="3.05125" transform="rotate(-180 417.285 584.43)" fill="#E3FAFF" fill-opacity="0.13"/>
<circle cx="943.116" cy="426.782" r="3.05124" transform="rotate(-180 943.116 426.782)" fill="#E3FAFF" fill-opacity="0.13"/>
<circle cx="1506.58" cy="469.5" r="3.05125" transform="rotate(-180 1506.58 469.5)" fill="#E3FAFF" fill-opacity="0.13"/>
<ellipse cx="338.97" cy="338.296" rx="3.05121" ry="3.05124" transform="rotate(-180 338.97 338.296)" fill="#E3FAFF" fill-opacity="0.13"/>
<ellipse cx="1130.26" cy="593.584" rx="3.05124" ry="3.05124" transform="rotate(-180 1130.26 593.584)" fill="#E3FAFF" fill-opacity="0.13"/>
<ellipse cx="384.23" cy="520.863" rx="4.5769" ry="4.57687" transform="rotate(-180 384.23 520.863)" fill="#E3FAFF" fill-opacity="0.13"/>
<ellipse cx="910.061" cy="363.215" rx="4.57687" ry="4.57689" transform="rotate(-180 910.061 363.215)" fill="#E3FAFF" fill-opacity="0.13"/>
<ellipse cx="1473.52" cy="405.932" rx="4.57686" ry="4.57687" transform="rotate(-180 1473.52 405.932)" fill="#E3FAFF" fill-opacity="0.13"/>
<ellipse cx="305.915" cy="274.729" rx="4.5769" ry="4.57687" transform="rotate(-180 305.915 274.729)" fill="#E3FAFF" fill-opacity="0.13"/>
<ellipse cx="239.296" cy="443.056" rx="3.05121" ry="3.05124" transform="rotate(-180 239.296 443.056)" fill="#E3FAFF" fill-opacity="0.13"/>
<circle cx="765.126" cy="285.408" r="3.05124" transform="rotate(-180 765.126 285.408)" fill="#E3FAFF" fill-opacity="0.13"/>
<ellipse cx="1328.59" cy="328.126" rx="3.05125" ry="3.05124" transform="rotate(-180 1328.59 328.126)" fill="#E3FAFF" fill-opacity="0.13"/>
<ellipse cx="160.981" cy="196.922" rx="3.05127" ry="3.05124" transform="rotate(-180 160.981 196.922)" fill="#E3FAFF" fill-opacity="0.13"/>
<ellipse cx="293.201" cy="672.916" rx="3.05121" ry="3.05124" transform="rotate(-180 293.201 672.916)" fill="#E3FAFF" fill-opacity="0.13"/>
<circle cx="819.032" cy="515.269" r="3.05124" transform="rotate(-180 819.032 515.269)" fill="#E3FAFF" fill-opacity="0.13"/>
<ellipse cx="1157.1" cy="592.772" rx="3.05124" ry="3.05125" transform="rotate(-180 1157.1 592.772)" fill="#E3FAFF" fill-opacity="0.13"/>
<circle cx="1382.49" cy="557.986" r="3.05125" transform="rotate(-180 1382.49 557.986)" fill="#E3FAFF" fill-opacity="0.13"/>
<ellipse cx="214.886" cy="426.782" rx="3.05121" ry="3.05124" transform="rotate(-180 214.886 426.782)" fill="#E3FAFF" fill-opacity="0.13"/>
<circle cx="740.717" cy="269.135" r="3.05124" transform="rotate(-180 740.717 269.135)" fill="#E3FAFF" fill-opacity="0.13"/>
<ellipse cx="1304.18" cy="311.853" rx="3.05125" ry="3.05124" transform="rotate(-180 1304.18 311.853)" fill="#E3FAFF" fill-opacity="0.13"/>
<ellipse cx="1006.18" cy="682.07" rx="3.05124" ry="3.05124" transform="rotate(-180 1006.18 682.07)" fill="#E3FAFF" fill-opacity="0.13"/>
<ellipse cx="204.207" cy="649.014" rx="4.57684" ry="4.57687" transform="rotate(-180 204.207 649.014)" fill="#E3FAFF" fill-opacity="0.13"/>
<ellipse cx="730.037" cy="491.367" rx="4.57687" ry="4.57687" transform="rotate(-180 730.037 491.367)" fill="#E3FAFF" fill-opacity="0.13"/>
<ellipse cx="1068.1" cy="568.871" rx="4.57687" ry="4.57686" transform="rotate(-180 1068.1 568.871)" fill="#E3FAFF" fill-opacity="0.13"/>
<ellipse cx="1293.5" cy="534.084" rx="4.57687" ry="4.57686" transform="rotate(-180 1293.5 534.084)" fill="#E3FAFF" fill-opacity="0.13"/>
<ellipse cx="125.892" cy="402.881" rx="4.57684" ry="4.57686" transform="rotate(-180 125.892 402.881)" fill="#E3FAFF" fill-opacity="0.13"/>
<ellipse cx="917.181" cy="658.168" rx="4.57687" ry="4.57686" transform="rotate(-180 917.181 658.168)" fill="#E3FAFF" fill-opacity="0.13"/>
<ellipse cx="740.717" cy="666.813" rx="3.05124" ry="3.05124" transform="rotate(-180 740.717 666.813)" fill="#E3FAFF" fill-opacity="0.13"/>
<ellipse cx="1452.47" cy="687.994" rx="3.05124" ry="3.05124" transform="rotate(-180 1452.47 687.994)" fill="#E3FAFF" fill-opacity="0.13"/>
<ellipse cx="711.381" cy="570.919" rx="2.12616" ry="2.12613" transform="rotate(-180 711.381 570.919)" fill="#E3FAFF" fill-opacity="0.13"/>
<ellipse cx="247.424" cy="677.317" rx="1.52563" ry="2.03416" transform="rotate(-180 247.424 677.317)" fill="#E3FAFF" fill-opacity="0.13"/>
<ellipse cx="692.777" cy="538.496" rx="1.59464" ry="1.59459" transform="rotate(-180 692.777 538.496)" fill="#E3FAFF" fill-opacity="0.13"/>
<ellipse cx="699.224" cy="418.994" rx="1.52563" ry="2.03416" transform="rotate(-180 699.224 418.994)" fill="#E3FAFF" fill-opacity="0.13"/>
<ellipse cx="929.307" cy="559.226" rx="2.12613" ry="2.12611" transform="rotate(-180 929.307 559.226)" fill="#E3FAFF" fill-opacity="0.13"/>
<ellipse cx="891.638" cy="623.101" rx="1.52563" ry="2.03416" transform="rotate(-180 891.638 623.101)" fill="#E3FAFF" fill-opacity="0.13"/>
<ellipse rx="1.52562" ry="2.03417" transform="matrix(0.661674 0.749791 -0.749792 0.661673 764.683 486.603)" fill="#E3FAFF" fill-opacity="0.13"/>
<ellipse cx="668.858" cy="525.208" rx="2.12611" ry="2.1261" transform="rotate(90 668.858 525.208)" fill="#E3FAFF" fill-opacity="0.13"/>
<ellipse cx="1424.7" cy="580.362" rx="1.52562" ry="2.03416" transform="rotate(-180 1424.7 580.362)" fill="#E3FAFF" fill-opacity="0.13"/>
<ellipse cx="185.899" cy="583.413" rx="1.52557" ry="2.03416" transform="rotate(-180 185.899 583.413)" fill="#E3FAFF" fill-opacity="0.13"/>
<ellipse cx="711.73" cy="425.766" rx="1.5256" ry="2.03416" transform="rotate(-180 711.73 425.766)" fill="#E3FAFF" fill-opacity="0.13"/>
<ellipse cx="1275.19" cy="468.483" rx="1.52562" ry="2.03416" transform="rotate(-180 1275.19 468.483)" fill="#E3FAFF" fill-opacity="0.13"/>
<ellipse cx="107.584" cy="337.279" rx="1.52563" ry="2.03416" transform="rotate(-180 107.584 337.279)" fill="#E3FAFF" fill-opacity="0.13"/>
<ellipse cx="538.318" cy="617.994" rx="3.05121" ry="3.05124" transform="rotate(-180 538.318 617.994)" fill="#E3FAFF" fill-opacity="0.13"/>
<ellipse cx="460.003" cy="371.86" rx="3.05121" ry="3.05124" transform="rotate(-180 460.003 371.86)" fill="#E3FAFF" fill-opacity="0.13"/>
<circle cx="1251.29" cy="627.148" r="3.05124" transform="rotate(-180 1251.29 627.148)" fill="#E3FAFF" fill-opacity="0.13"/>
<ellipse cx="559.168" cy="569.682" rx="4.57684" ry="4.57686" transform="rotate(-180 559.168 569.682)" fill="#E3FAFF" fill-opacity="0.13"/>
<ellipse cx="480.853" cy="323.549" rx="4.5769" ry="4.57687" transform="rotate(-180 480.853 323.549)" fill="#E3FAFF" fill-opacity="0.13"/>
<circle cx="1272.14" cy="578.836" r="4.57686" transform="rotate(-180 1272.14 578.836)" fill="#E3FAFF" fill-opacity="0.13"/>
<ellipse cx="360.329" cy="476.619" rx="3.05121" ry="3.05125" transform="rotate(-180 360.329 476.619)" fill="#E3FAFF" fill-opacity="0.13"/>
<circle cx="886.16" cy="318.972" r="3.05124" transform="rotate(-180 886.16 318.972)" fill="#E3FAFF" fill-opacity="0.13"/>
<circle cx="1449.62" cy="361.689" r="3.05124" transform="rotate(-180 1449.62 361.689)" fill="#E3FAFF" fill-opacity="0.13"/>
<ellipse cx="282.014" cy="230.486" rx="3.05127" ry="3.05124" transform="rotate(-180 282.014 230.486)" fill="#E3FAFF" fill-opacity="0.13"/>
<ellipse cx="414.234" cy="706.479" rx="3.05121" ry="3.05124" transform="rotate(-180 414.234 706.479)" fill="#E3FAFF" fill-opacity="0.13"/>
<ellipse cx="940.065" cy="548.832" rx="3.05124" ry="3.05125" transform="rotate(-180 940.065 548.832)" fill="#E3FAFF" fill-opacity="0.13"/>
<ellipse cx="1278.13" cy="626.336" rx="3.05125" ry="3.05124" transform="rotate(-180 1278.13 626.336)" fill="#E3FAFF" fill-opacity="0.13"/>
<circle cx="1503.53" cy="591.55" r="3.05124" transform="rotate(-180 1503.53 591.55)" fill="#E3FAFF" fill-opacity="0.13"/>
<ellipse cx="335.919" cy="460.346" rx="3.05121" ry="3.05124" transform="rotate(-180 335.919 460.346)" fill="#E3FAFF" fill-opacity="0.13"/>
<circle cx="861.75" cy="302.699" r="3.05124" transform="rotate(-180 861.75 302.699)" fill="#E3FAFF" fill-opacity="0.13"/>
<ellipse cx="1425.21" cy="345.416" rx="3.05125" ry="3.05124" transform="rotate(-180 1425.21 345.416)" fill="#E3FAFF" fill-opacity="0.13"/>
<ellipse cx="1127.21" cy="715.633" rx="3.05124" ry="3.05124" transform="rotate(-180 1127.21 715.633)" fill="#E3FAFF" fill-opacity="0.13"/>
<ellipse cx="861.75" cy="700.377" rx="3.05124" ry="3.05124" transform="rotate(-180 861.75 700.377)" fill="#E3FAFF" fill-opacity="0.13"/>
<ellipse cx="781.909" cy="591.041" rx="1.52563" ry="1.52562" transform="rotate(-180 781.909 591.041)" fill="#E3FAFF" fill-opacity="0.13"/>
<ellipse cx="1148.16" cy="594.004" rx="1.52563" ry="1.52563" transform="rotate(-180 1148.16 594.004)" fill="#E3FAFF" fill-opacity="0.13"/>
<ellipse cx="1332.07" cy="618.454" rx="1.52561" ry="1.52562" transform="rotate(-180 1332.07 618.454)" fill="#E3FAFF" fill-opacity="0.13"/>
<circle cx="1494.88" cy="600.195" r="1.52562" transform="rotate(-180 1494.88 600.195)" fill="#E3FAFF" fill-opacity="0.13"/>
<ellipse cx="256.078" cy="603.246" rx="1.52557" ry="1.52562" transform="rotate(-180 256.078 603.246)" fill="#E3FAFF" fill-opacity="0.13"/>
<ellipse cx="182.727" cy="697.859" rx="1.52557" ry="1.52562" transform="rotate(-180 182.727 697.859)" fill="#E3FAFF" fill-opacity="0.13"/>
<ellipse cx="358.132" cy="648.958" rx="1.52557" ry="1.52562" transform="rotate(-180 358.132 648.958)" fill="#E3FAFF" fill-opacity="0.13"/>
<ellipse cx="452.744" cy="699.985" rx="1.52563" ry="1.52562" transform="rotate(-180 452.744 699.985)" fill="#E3FAFF" fill-opacity="0.13"/>
<ellipse cx="483.573" cy="594.741" rx="1.52563" ry="1.52562" transform="rotate(-180 483.573 594.741)" fill="#E3FAFF" fill-opacity="0.13"/>
<ellipse cx="781.909" cy="445.599" rx="1.52563" ry="1.52562" transform="rotate(-180 781.909 445.599)" fill="#E3FAFF" fill-opacity="0.13"/>
<ellipse cx="1119.97" cy="523.103" rx="1.5256" ry="1.52562" transform="rotate(-180 1119.97 523.103)" fill="#E3FAFF" fill-opacity="0.13"/>
<circle cx="1345.37" cy="488.316" r="1.52562" transform="rotate(-180 1345.37 488.316)" fill="#E3FAFF" fill-opacity="0.13"/>
<ellipse cx="177.763" cy="357.113" rx="1.52557" ry="1.52563" transform="rotate(-180 177.763 357.113)" fill="#E3FAFF" fill-opacity="0.13"/>
<ellipse cx="969.052" cy="612.4" rx="1.5256" ry="1.52562" transform="rotate(-180 969.052 612.4)" fill="#E3FAFF" fill-opacity="0.13"/>
<ellipse cx="500.686" cy="542.729" rx="3.05127" ry="3.05125" transform="rotate(-180 500.686 542.729)" fill="#E3FAFF" fill-opacity="0.13"/>
<ellipse cx="422.371" cy="296.596" rx="3.05127" ry="3.05124" transform="rotate(-180 422.371 296.596)" fill="#E3FAFF" fill-opacity="0.13"/>
<ellipse cx="1213.66" cy="551.883" rx="3.05124" ry="3.05125" transform="rotate(-180 1213.66 551.883)" fill="#E3FAFF" fill-opacity="0.13"/>
<ellipse cx="322.697" cy="401.355" rx="3.05127" ry="3.05124" transform="rotate(-180 322.697 401.355)" fill="#E3FAFF" fill-opacity="0.13"/>
<ellipse cx="244.381" cy="155.222" rx="3.05121" ry="3.05124" transform="rotate(-180 244.381 155.222)" fill="#E3FAFF" fill-opacity="0.13"/>
<ellipse cx="376.602" cy="631.216" rx="3.05127" ry="3.05125" transform="rotate(-180 376.602 631.216)" fill="#E3FAFF" fill-opacity="0.13"/>
<ellipse cx="902.433" cy="473.568" rx="3.05127" ry="3.05124" transform="rotate(-180 902.433 473.568)" fill="#E3FAFF" fill-opacity="0.13"/>
<ellipse cx="1240.5" cy="551.072" rx="3.05124" ry="3.05125" transform="rotate(-180 1240.5 551.072)" fill="#E3FAFF" fill-opacity="0.13"/>
<ellipse cx="1465.9" cy="516.286" rx="3.05124" ry="3.05125" transform="rotate(-180 1465.9 516.286)" fill="#E3FAFF" fill-opacity="0.13"/>
<ellipse cx="298.287" cy="385.082" rx="3.05127" ry="3.05124" transform="rotate(-180 298.287 385.082)" fill="#E3FAFF" fill-opacity="0.13"/>
<ellipse cx="1089.58" cy="640.37" rx="3.05124" ry="3.05124" transform="rotate(-180 1089.58 640.37)" fill="#E3FAFF" fill-opacity="0.13"/>
<ellipse cx="325.24" cy="589.007" rx="4.57684" ry="4.57687" transform="rotate(-180 325.24 589.007)" fill="#E3FAFF" fill-opacity="0.13"/>
<ellipse cx="851.071" cy="431.359" rx="4.57687" ry="4.57686" transform="rotate(-180 851.071 431.359)" fill="#E3FAFF" fill-opacity="0.13"/>
<ellipse cx="1189.14" cy="508.864" rx="4.57687" ry="4.57687" transform="rotate(-180 1189.14 508.864)" fill="#E3FAFF" fill-opacity="0.13"/>
<ellipse cx="1414.53" cy="474.077" rx="4.57687" ry="4.57686" transform="rotate(-180 1414.53 474.077)" fill="#E3FAFF" fill-opacity="0.13"/>
<ellipse cx="246.924" cy="342.874" rx="4.57684" ry="4.57689" transform="rotate(-180 246.924 342.874)" fill="#E3FAFF" fill-opacity="0.13"/>
<ellipse cx="1038.21" cy="598.16" rx="4.57684" ry="4.57687" transform="rotate(-180 1038.21 598.16)" fill="#E3FAFF" fill-opacity="0.13"/>
<circle cx="824.118" cy="625.113" r="3.05124" transform="rotate(-180 824.118 625.113)" fill="#E3FAFF" fill-opacity="0.13"/>
<ellipse cx="760.281" cy="547.532" rx="2.12616" ry="2.12612" transform="rotate(-180 760.281 547.532)" fill="#E3FAFF" fill-opacity="0.13"/>
<ellipse cx="1473.01" cy="556.46" rx="2.03416" ry="1.52562" transform="rotate(-180 1473.01 556.46)" fill="#E3FAFF" fill-opacity="0.13"/>
<ellipse cx="234.211" cy="559.511" rx="2.03418" ry="1.52562" transform="rotate(-180 234.211 559.511)" fill="#E3FAFF" fill-opacity="0.13"/>
<ellipse cx="760.041" cy="401.864" rx="2.03412" ry="1.5256" transform="rotate(-180 760.041 401.864)" fill="#E3FAFF" fill-opacity="0.13"/>
<ellipse cx="1323.5" cy="444.581" rx="2.03416" ry="1.52562" transform="rotate(-180 1323.5 444.581)" fill="#E3FAFF" fill-opacity="0.13"/>
<ellipse cx="155.896" cy="313.378" rx="2.03412" ry="1.52563" transform="rotate(-180 155.896 313.378)" fill="#E3FAFF" fill-opacity="0.13"/>
<ellipse cx="960.137" cy="568.793" rx="2.12613" ry="2.12612" transform="rotate(-180 960.137 568.793)" fill="#E3FAFF" fill-opacity="0.13"/>
<ellipse cx="625.787" cy="593.584" rx="3.05124" ry="3.05124" transform="rotate(-180 625.787 593.584)" fill="#E3FAFF" fill-opacity="0.13"/>
<ellipse cx="547.472" cy="347.45" rx="3.05121" ry="3.05124" transform="rotate(-180 547.472 347.45)" fill="#E3FAFF" fill-opacity="0.13"/>
<ellipse cx="1338.76" cy="602.737" rx="3.05124" ry="3.05125" transform="rotate(-180 1338.76 602.737)" fill="#E3FAFF" fill-opacity="0.13"/>
<ellipse cx="447.797" cy="452.21" rx="3.05121" ry="3.05124" transform="rotate(-180 447.797 452.21)" fill="#E3FAFF" fill-opacity="0.13"/>
<ellipse cx="973.628" cy="294.562" rx="3.05124" ry="3.05122" transform="rotate(-180 973.628 294.562)" fill="#E3FAFF" fill-opacity="0.13"/>
<ellipse cx="369.482" cy="206.076" rx="3.05121" ry="3.05124" transform="rotate(-180 369.482 206.076)" fill="#E3FAFF" fill-opacity="0.13"/>
<ellipse cx="501.703" cy="682.07" rx="3.05121" ry="3.05124" transform="rotate(-180 501.703 682.07)" fill="#E3FAFF" fill-opacity="0.13"/>
<ellipse cx="423.388" cy="435.936" rx="3.05121" ry="3.05124" transform="rotate(-180 423.388 435.936)" fill="#E3FAFF" fill-opacity="0.13"/>
<circle cx="949.218" cy="278.289" r="3.05124" transform="rotate(-180 949.218 278.289)" fill="#E3FAFF" fill-opacity="0.13"/>
<ellipse cx="1512.68" cy="321.006" rx="3.05124" ry="3.05124" transform="rotate(-180 1512.68 321.006)" fill="#E3FAFF" fill-opacity="0.13"/>
<ellipse cx="1214.68" cy="691.224" rx="3.05124" ry="3.05124" transform="rotate(-180 1214.68 691.224)" fill="#E3FAFF" fill-opacity="0.13"/>
<ellipse cx="506.28" cy="662.237" rx="4.57684" ry="4.57686" transform="rotate(-180 506.28 662.237)" fill="#E3FAFF" fill-opacity="0.13"/>
<ellipse cx="481.76" cy="620.883" rx="3.18921" ry="3.18918" transform="rotate(-180 481.76 620.883)" fill="#E3FAFF" fill-opacity="0.13"/>
<ellipse cx="427.965" cy="416.103" rx="4.57684" ry="4.57689" transform="rotate(-180 427.965 416.103)" fill="#E3FAFF" fill-opacity="0.13"/>
<ellipse cx="953.795" cy="258.455" rx="4.57681" ry="4.57689" transform="rotate(-180 953.795 258.455)" fill="#E3FAFF" fill-opacity="0.13"/>
<ellipse cx="1219.25" cy="671.39" rx="4.57687" ry="4.57686" transform="rotate(-180 1219.25 671.39)" fill="#E3FAFF" fill-opacity="0.13"/>
<ellipse cx="949.218" cy="675.967" rx="3.05124" ry="3.05124" transform="rotate(-180 949.218 675.967)" fill="#E3FAFF" fill-opacity="0.13"/>
<ellipse cx="832.762" cy="576.802" rx="1.5256" ry="1.52562" transform="rotate(-180 832.762 576.802)" fill="#E3FAFF" fill-opacity="0.13"/>
<ellipse cx="306.932" cy="589.007" rx="1.52563" ry="1.52562" transform="rotate(-180 306.932 589.007)" fill="#E3FAFF" fill-opacity="0.13"/>
<ellipse cx="233.581" cy="683.619" rx="1.52563" ry="1.52562" transform="rotate(-180 233.581 683.619)" fill="#E3FAFF" fill-opacity="0.13"/>
<ellipse cx="408.986" cy="634.719" rx="1.52563" ry="1.52562" transform="rotate(-180 408.986 634.719)" fill="#E3FAFF" fill-opacity="0.13"/>
<ellipse cx="522.757" cy="683.141" rx="1.52557" ry="1.52562" transform="rotate(-180 522.757 683.141)" fill="#E3FAFF" fill-opacity="0.13"/>
<ellipse cx="534.427" cy="580.502" rx="1.52563" ry="1.52561" transform="rotate(-180 534.427 580.502)" fill="#E3FAFF" fill-opacity="0.13"/>
<ellipse cx="550.373" cy="473.134" rx="1.52557" ry="1.52562" transform="rotate(-180 550.373 473.134)" fill="#E3FAFF" fill-opacity="0.13"/>
<ellipse cx="781.056" cy="613.457" rx="1.5256" ry="1.52562" transform="rotate(-180 781.056 613.457)" fill="#E3FAFF" fill-opacity="0.13"/>
<ellipse cx="742.787" cy="677.241" rx="1.5256" ry="1.52562" transform="rotate(-180 742.787 677.241)" fill="#E3FAFF" fill-opacity="0.13"/>
<ellipse cx="1109.03" cy="680.204" rx="1.52562" ry="1.52562" transform="rotate(-180 1109.03 680.204)" fill="#E3FAFF" fill-opacity="0.13"/>
<ellipse cx="1481.11" cy="694.024" rx="1.52562" ry="1.52562" transform="rotate(-180 1481.11 694.024)" fill="#E3FAFF" fill-opacity="0.13"/>
<ellipse cx="1292.94" cy="704.654" rx="1.52563" ry="1.52562" transform="rotate(-180 1292.94 704.654)" fill="#E3FAFF" fill-opacity="0.13"/>
<ellipse rx="1.52563" ry="1.52563" transform="matrix(0.661678 0.749788 -0.749795 0.66167 903.767 562.388)" fill="#E3FAFF" fill-opacity="0.13"/>
<ellipse rx="1.43538" ry="1.43538" transform="matrix(0.661676 0.74979 -0.749794 0.661672 811.409 596.566)" fill="#E3FAFF" fill-opacity="0.13"/>
<ellipse cx="436.649" cy="570.457" rx="1.52557" ry="1.52561" transform="rotate(-180 436.649 570.457)" fill="#E3FAFF" fill-opacity="0.13"/>
<ellipse cx="363.298" cy="665.069" rx="1.52563" ry="1.52562" transform="rotate(-180 363.298 665.069)" fill="#E3FAFF" fill-opacity="0.13"/>
<ellipse cx="538.702" cy="616.168" rx="1.52557" ry="1.52562" transform="rotate(-180 538.702 616.168)" fill="#E3FAFF" fill-opacity="0.13"/>
<ellipse cx="633.314" cy="667.195" rx="1.5256" ry="1.52562" transform="rotate(-180 633.314 667.195)" fill="#E3FAFF" fill-opacity="0.13"/>
<ellipse cx="664.143" cy="561.952" rx="1.52563" ry="1.52562" transform="rotate(-180 664.143 561.952)" fill="#E3FAFF" fill-opacity="0.13"/>
<ellipse cx="1030.39" cy="564.915" rx="1.52563" ry="1.52562" transform="rotate(-180 1030.39 564.915)" fill="#E3FAFF" fill-opacity="0.13"/>
<ellipse cx="1402.46" cy="578.735" rx="1.52562" ry="1.52561" transform="rotate(-180 1402.46 578.735)" fill="#E3FAFF" fill-opacity="0.13"/>
<ellipse cx="1214.3" cy="589.365" rx="1.52562" ry="1.52561" transform="rotate(-180 1214.3 589.365)" fill="#E3FAFF" fill-opacity="0.13"/>
<ellipse cx="680.09" cy="454.583" rx="1.52563" ry="1.52562" transform="rotate(-180 680.09 454.583)" fill="#E3FAFF" fill-opacity="0.13"/>
<ellipse cx="910.773" cy="594.907" rx="1.52563" ry="1.52563" transform="rotate(-180 910.773 594.907)" fill="#E3FAFF" fill-opacity="0.13"/>
<ellipse cx="872.504" cy="658.691" rx="1.52563" ry="1.52562" transform="rotate(-180 872.504 658.691)" fill="#E3FAFF" fill-opacity="0.13"/>
<ellipse rx="1.52563" ry="1.52563" transform="matrix(0.661678 0.749788 -0.749795 0.66167 804.029 477.401)" fill="#E3FAFF" fill-opacity="0.13"/>
<ellipse rx="1.52563" ry="1.52563" transform="matrix(0.661676 0.749789 -0.749794 0.661671 1142.09 554.906)" fill="#E3FAFF" fill-opacity="0.13"/>
<ellipse rx="1.43537" ry="1.43537" transform="matrix(0.661671 0.749794 -0.749789 0.661677 717.57 516.608)" fill="#E3FAFF" fill-opacity="0.13"/>
<ellipse cx="390.937" cy="560.889" rx="1.52563" ry="1.52562" transform="rotate(-180 390.937 560.889)" fill="#E3FAFF" fill-opacity="0.13"/>
<ellipse cx="317.586" cy="655.502" rx="1.52563" ry="1.52562" transform="rotate(-180 317.586 655.502)" fill="#E3FAFF" fill-opacity="0.13"/>
<ellipse cx="492.991" cy="606.601" rx="1.52557" ry="1.52562" transform="rotate(-180 492.991 606.601)" fill="#E3FAFF" fill-opacity="0.13"/>
<ellipse cx="587.603" cy="657.628" rx="1.5256" ry="1.52562" transform="rotate(-180 587.603 657.628)" fill="#E3FAFF" fill-opacity="0.13"/>
<circle cx="618.431" cy="552.385" r="1.5256" transform="rotate(-180 618.431 552.385)" fill="#E3FAFF" fill-opacity="0.13"/>
<ellipse cx="348.415" cy="592.781" rx="1.52557" ry="1.52563" transform="rotate(-180 348.415 592.781)" fill="#E3FAFF" fill-opacity="0.13"/>
<ellipse cx="275.063" cy="687.393" rx="1.52557" ry="1.52562" transform="rotate(-180 275.063 687.393)" fill="#E3FAFF" fill-opacity="0.13"/>
<ellipse cx="450.469" cy="638.492" rx="1.52563" ry="1.52562" transform="rotate(-180 450.469 638.492)" fill="#E3FAFF" fill-opacity="0.13"/>
<ellipse cx="545.081" cy="689.519" rx="1.5257" ry="1.52562" transform="rotate(-180 545.081 689.519)" fill="#E3FAFF" fill-opacity="0.13"/>
<ellipse cx="575.91" cy="584.277" rx="1.5256" ry="1.52562" transform="rotate(-180 575.91 584.277)" fill="#E3FAFF" fill-opacity="0.13"/>
<ellipse cx="326.091" cy="605.538" rx="1.52563" ry="1.52562" transform="rotate(-180 326.091 605.538)" fill="#E3FAFF" fill-opacity="0.13"/>
<ellipse cx="252.739" cy="700.15" rx="1.52563" ry="1.52562" transform="rotate(-180 252.739 700.15)" fill="#E3FAFF" fill-opacity="0.13"/>
<ellipse cx="428.144" cy="651.249" rx="1.52557" ry="1.52562" transform="rotate(-180 428.144 651.249)" fill="#E3FAFF" fill-opacity="0.13"/>
<ellipse cx="522.757" cy="702.276" rx="1.52557" ry="1.52562" transform="rotate(-180 522.757 702.276)" fill="#E3FAFF" fill-opacity="0.13"/>
<ellipse cx="553.585" cy="597.033" rx="1.5256" ry="1.52562" transform="rotate(-180 553.585 597.033)" fill="#E3FAFF" fill-opacity="0.13"/>
<ellipse cx="569.531" cy="489.664" rx="1.5256" ry="1.52562" transform="rotate(-180 569.531 489.664)" fill="#E3FAFF" fill-opacity="0.13"/>
<ellipse cx="800.215" cy="629.988" rx="1.5256" ry="1.52562" transform="rotate(-180 800.215 629.988)" fill="#E3FAFF" fill-opacity="0.13"/>
<ellipse cx="1166.46" cy="632.951" rx="1.5256" ry="1.52562" transform="rotate(-180 1166.46 632.951)" fill="#E3FAFF" fill-opacity="0.13"/>
<ellipse cx="1493.94" cy="722.1" rx="1.52562" ry="1.52562" transform="rotate(-106.711 1493.94 722.1)" fill="#E3FAFF" fill-opacity="0.13"/>
<ellipse cx="1350.37" cy="657.402" rx="1.52562" ry="1.52562" transform="rotate(-180 1350.37 657.402)" fill="#E3FAFF" fill-opacity="0.13"/>
<ellipse cx="761.945" cy="693.772" rx="1.5256" ry="1.52562" transform="rotate(-180 761.945 693.772)" fill="#E3FAFF" fill-opacity="0.13"/>
<ellipse rx="1.52562" ry="1.52562" transform="matrix(0.661671 0.749794 -0.749789 0.661676 903.486 537.085)" fill="#E3FAFF" fill-opacity="0.13"/>
<ellipse rx="1.43538" ry="1.43537" transform="matrix(0.66167 0.749796 -0.749788 0.661678 811.143 572.76)" fill="#E3FAFF" fill-opacity="0.13"/>
<circle cx="1177.39" cy="575.723" r="1.43538" transform="rotate(48.5723 1177.39 575.723)" fill="#E3FAFF" fill-opacity="0.13"/>
<ellipse rx="1.43538" ry="1.43538" transform="matrix(0.661672 0.749794 -0.74979 0.661676 1361.3 600.174)" fill="#E3FAFF" fill-opacity="0.13"/>
<ellipse cx="355.856" cy="571.52" rx="1.52557" ry="1.52562" transform="rotate(-180 355.856 571.52)" fill="#E3FAFF" fill-opacity="0.13"/>
<ellipse cx="282.505" cy="666.132" rx="1.52557" ry="1.52562" transform="rotate(-180 282.505 666.132)" fill="#E3FAFF" fill-opacity="0.13"/>
<ellipse cx="457.91" cy="617.231" rx="1.52563" ry="1.52562" transform="rotate(-180 457.91 617.231)" fill="#E3FAFF" fill-opacity="0.13"/>
<ellipse cx="552.522" cy="668.259" rx="1.52563" ry="1.52562" transform="rotate(-180 552.522 668.259)" fill="#E3FAFF" fill-opacity="0.13"/>
<ellipse cx="583.351" cy="563.015" rx="1.52563" ry="1.52562" transform="rotate(-180 583.351 563.015)" fill="#E3FAFF" fill-opacity="0.13"/>
<circle cx="599.297" cy="455.646" r="1.5256" transform="rotate(-180 599.297 455.646)" fill="#E3FAFF" fill-opacity="0.13"/>
<ellipse cx="829.98" cy="595.97" rx="1.5256" ry="1.52562" transform="rotate(-180 829.98 595.97)" fill="#E3FAFF" fill-opacity="0.13"/>
<ellipse cx="791.711" cy="659.754" rx="1.5256" ry="1.52562" transform="rotate(-180 791.711 659.754)" fill="#E3FAFF" fill-opacity="0.13"/>
<ellipse rx="1.52562" ry="1.52562" transform="matrix(0.661671 0.749794 -0.749789 0.661676 858.284 537.275)" fill="#E3FAFF" fill-opacity="0.13"/>
<ellipse rx="1.43538" ry="1.43538" transform="matrix(0.661677 0.749789 -0.749794 0.661671 768.616 572.94)" fill="#E3FAFF" fill-opacity="0.13"/>
<circle cx="832.762" cy="431.36" r="1.5256" transform="rotate(-180 832.762 431.36)" fill="#E3FAFF" fill-opacity="0.13"/>
<ellipse cx="1170.83" cy="508.864" rx="1.5256" ry="1.52562" transform="rotate(-180 1170.83 508.864)" fill="#E3FAFF" fill-opacity="0.13"/>
<ellipse cx="1396.23" cy="474.077" rx="1.52562" ry="1.52561" transform="rotate(-180 1396.23 474.077)" fill="#E3FAFF" fill-opacity="0.13"/>
<ellipse cx="228.617" cy="342.873" rx="1.52563" ry="1.52562" transform="rotate(-180 228.617 342.873)" fill="#E3FAFF" fill-opacity="0.13"/>
<ellipse cx="1019.91" cy="598.161" rx="1.52563" ry="1.52562" transform="rotate(-180 1019.91 598.161)" fill="#E3FAFF" fill-opacity="0.13"/>
<ellipse cx="224.04" cy="527.473" rx="2.03424" ry="2.03416" transform="rotate(-180 224.04 527.473)" fill="#E3FAFF" fill-opacity="0.13"/>
<ellipse cx="749.871" cy="369.826" rx="2.03415" ry="2.03416" transform="rotate(-180 749.871 369.826)" fill="#E3FAFF" fill-opacity="0.13"/>
<ellipse cx="1313.33" cy="412.543" rx="2.03415" ry="2.03416" transform="rotate(-180 1313.33 412.543)" fill="#E3FAFF" fill-opacity="0.13"/>
<ellipse cx="145.725" cy="281.34" rx="2.03418" ry="2.03416" transform="rotate(-180 145.725 281.34)" fill="#E3FAFF" fill-opacity="0.13"/>
<ellipse cx="307.556" cy="602.949" rx="3.05127" ry="3.05125" transform="rotate(-180 307.556 602.949)" fill="#E3FAFF" fill-opacity="0.13"/>
<circle cx="836.959" cy="447.742" r="3.05124" transform="rotate(-180 836.959 447.742)" fill="#E3FAFF" fill-opacity="0.13"/>
<ellipse cx="1175.02" cy="525.247" rx="3.05124" ry="3.05125" transform="rotate(-180 1175.02 525.247)" fill="#E3FAFF" fill-opacity="0.13"/>
<ellipse cx="1439.45" cy="475.603" rx="3.05125" ry="3.05125" transform="rotate(-180 1439.45 475.603)" fill="#E3FAFF" fill-opacity="0.13"/>
<ellipse cx="231.016" cy="375.454" rx="3.05127" ry="3.05124" transform="rotate(-180 231.016 375.454)" fill="#E3FAFF" fill-opacity="0.13"/>
<ellipse cx="379.479" cy="697.562" rx="3.05127" ry="3.05124" transform="rotate(-180 379.479 697.562)" fill="#E3FAFF" fill-opacity="0.13"/>
<ellipse cx="1020.87" cy="623.147" rx="3.05124" ry="3.05124" transform="rotate(-180 1020.87 623.147)" fill="#E3FAFF" fill-opacity="0.13"/>
<ellipse cx="226.074" cy="530.016" rx="4.0683" ry="4.57686" transform="rotate(-180 226.074 530.016)" fill="#E3FAFF" fill-opacity="0.13"/>
<ellipse cx="751.905" cy="372.369" rx="4.06833" ry="4.57689" transform="rotate(-180 751.905 372.369)" fill="#E3FAFF" fill-opacity="0.13"/>
<ellipse cx="1315.37" cy="415.086" rx="4.06831" ry="4.57689" transform="rotate(-180 1315.37 415.086)" fill="#E3FAFF" fill-opacity="0.13"/>
<ellipse cx="147.759" cy="283.883" rx="4.0683" ry="4.57687" transform="rotate(-180 147.759 283.883)" fill="#E3FAFF" fill-opacity="0.13"/>
<ellipse cx="987.776" cy="529.46" rx="4.25226" ry="4.25224" transform="rotate(-180 987.776 529.46)" fill="#E3FAFF" fill-opacity="0.13"/>
<ellipse cx="130.468" cy="449.158" rx="3.05121" ry="3.05124" transform="rotate(-180 130.468 449.158)" fill="#E3FAFF" fill-opacity="0.13"/>
<circle cx="656.299" cy="291.511" r="3.05124" transform="rotate(-180 656.299 291.511)" fill="#E3FAFF" fill-opacity="0.13"/>
<circle cx="1219.76" cy="334.228" r="3.05124" transform="rotate(-180 1219.76 334.228)" fill="#E3FAFF" fill-opacity="0.13"/>
<ellipse cx="52.1533" cy="203.025" rx="3.05127" ry="3.05124" transform="rotate(-180 52.1533 203.025)" fill="#E3FAFF" fill-opacity="0.13"/>
<ellipse cx="184.374" cy="679.019" rx="3.05121" ry="3.05124" transform="rotate(-180 184.374 679.019)" fill="#E3FAFF" fill-opacity="0.13"/>
<ellipse cx="715.771" cy="537.04" rx="3.05121" ry="3.05125" transform="rotate(-180 715.771 537.04)" fill="#E3FAFF" fill-opacity="0.13"/>
<ellipse cx="1273.67" cy="564.088" rx="3.05124" ry="3.05125" transform="rotate(-180 1273.67 564.088)" fill="#E3FAFF" fill-opacity="0.13"/>
<ellipse cx="106.059" cy="432.885" rx="3.05121" ry="3.05124" transform="rotate(-180 106.059 432.885)" fill="#E3FAFF" fill-opacity="0.13"/>
<circle cx="631.889" cy="275.237" r="3.05124" transform="rotate(-180 631.889 275.237)" fill="#E3FAFF" fill-opacity="0.13"/>
<ellipse cx="1195.35" cy="317.955" rx="3.05122" ry="3.05124" transform="rotate(-180 1195.35 317.955)" fill="#E3FAFF" fill-opacity="0.13"/>
<ellipse cx="631.889" cy="672.916" rx="3.05124" ry="3.05124" transform="rotate(-180 631.889 672.916)" fill="#E3FAFF" fill-opacity="0.13"/>
<ellipse cx="553.574" cy="426.782" rx="3.05121" ry="3.05124" transform="rotate(-180 553.574 426.782)" fill="#E3FAFF" fill-opacity="0.13"/>
<ellipse cx="1344.86" cy="682.07" rx="3.05125" ry="3.05124" transform="rotate(-180 1344.86 682.07)" fill="#E3FAFF" fill-opacity="0.13"/>
<ellipse cx="648.672" cy="574.768" rx="1.5256" ry="1.52561" transform="rotate(-180 648.672 574.768)" fill="#E3FAFF" fill-opacity="0.13"/>
<ellipse cx="1014.92" cy="577.731" rx="1.5256" ry="1.52562" transform="rotate(-180 1014.92 577.731)" fill="#E3FAFF" fill-opacity="0.13"/>
<ellipse cx="1386.99" cy="591.551" rx="1.52562" ry="1.52563" transform="rotate(-180 1386.99 591.551)" fill="#E3FAFF" fill-opacity="0.13"/>
<circle cx="1198.83" cy="602.181" r="1.52562" transform="rotate(-180 1198.83 602.181)" fill="#E3FAFF" fill-opacity="0.13"/>
<ellipse cx="522.757" cy="321.701" rx="1.52557" ry="1.52562" transform="rotate(-180 522.757 321.701)" fill="#E3FAFF" fill-opacity="0.13"/>
<ellipse cx="672.094" cy="674.863" rx="1.5256" ry="1.52562" transform="rotate(-180 672.094 674.863)" fill="#E3FAFF" fill-opacity="0.13"/>
<ellipse cx="1038.34" cy="677.826" rx="1.5256" ry="1.52562" transform="rotate(-180 1038.34 677.826)" fill="#E3FAFF" fill-opacity="0.13"/>
<ellipse cx="1410.41" cy="691.646" rx="1.52562" ry="1.52562" transform="rotate(-180 1410.41 691.646)" fill="#E3FAFF" fill-opacity="0.13"/>
<ellipse cx="1222.25" cy="702.276" rx="1.52562" ry="1.52562" transform="rotate(-180 1222.25 702.276)" fill="#E3FAFF" fill-opacity="0.13"/>
<ellipse cx="1361.65" cy="583.922" rx="1.52562" ry="1.52563" transform="rotate(-180 1361.65 583.922)" fill="#E3FAFF" fill-opacity="0.13"/>
<ellipse cx="122.841" cy="586.972" rx="1.52557" ry="1.52563" transform="rotate(-180 122.841 586.972)" fill="#E3FAFF" fill-opacity="0.13"/>
<ellipse cx="648.672" cy="429.325" rx="1.5256" ry="1.52562" transform="rotate(-180 648.672 429.325)" fill="#E3FAFF" fill-opacity="0.13"/>
<circle cx="1212.13" cy="472.043" r="1.52562" transform="rotate(-180 1212.13 472.043)" fill="#E3FAFF" fill-opacity="0.13"/>
<ellipse cx="44.5251" cy="340.84" rx="1.52563" ry="1.5256" transform="rotate(-180 44.5251 340.84)" fill="#E3FAFF" fill-opacity="0.13"/>
<ellipse cx="359.312" cy="532.559" rx="3.05121" ry="3.05125" transform="rotate(-180 359.312 532.559)" fill="#E3FAFF" fill-opacity="0.13"/>
<circle cx="885.142" cy="374.911" r="3.05124" transform="rotate(-180 885.142 374.911)" fill="#E3FAFF" fill-opacity="0.13"/>
<ellipse cx="1448.6" cy="417.629" rx="3.05125" ry="3.05124" transform="rotate(-180 1448.6 417.629)" fill="#E3FAFF" fill-opacity="0.13"/>
<ellipse cx="280.997" cy="286.425" rx="3.05121" ry="3.05122" transform="rotate(-180 280.997 286.425)" fill="#E3FAFF" fill-opacity="0.13"/>
<ellipse cx="1072.29" cy="541.712" rx="3.05124" ry="3.05125" transform="rotate(-180 1072.29 541.712)" fill="#E3FAFF" fill-opacity="0.13"/>
<ellipse cx="181.323" cy="391.184" rx="3.05121" ry="3.05124" transform="rotate(-180 181.323 391.184)" fill="#E3FAFF" fill-opacity="0.13"/>
<ellipse cx="103.007" cy="145.051" rx="3.05127" ry="3.05124" transform="rotate(-180 103.007 145.051)" fill="#E3FAFF" fill-opacity="0.13"/>
<ellipse cx="235.228" cy="621.045" rx="3.05127" ry="3.05125" transform="rotate(-180 235.228 621.045)" fill="#E3FAFF" fill-opacity="0.13"/>
<ellipse cx="761.058" cy="463.397" rx="3.05121" ry="3.05124" transform="rotate(-180 761.058 463.397)" fill="#E3FAFF" fill-opacity="0.13"/>
<ellipse cx="1099.12" cy="540.902" rx="3.05124" ry="3.05125" transform="rotate(-180 1099.12 540.902)" fill="#E3FAFF" fill-opacity="0.13"/>
<ellipse cx="1324.52" cy="506.115" rx="3.05125" ry="3.05125" transform="rotate(-180 1324.52 506.115)" fill="#E3FAFF" fill-opacity="0.13"/>
<ellipse cx="156.913" cy="374.911" rx="3.05121" ry="3.05124" transform="rotate(-180 156.913 374.911)" fill="#E3FAFF" fill-opacity="0.13"/>
<ellipse cx="948.202" cy="630.199" rx="3.05124" ry="3.05124" transform="rotate(-180 948.202 630.199)" fill="#E3FAFF" fill-opacity="0.13"/>
<ellipse cx="682.744" cy="614.943" rx="3.05121" ry="3.05125" transform="rotate(-180 682.744 614.943)" fill="#E3FAFF" fill-opacity="0.13"/>
<ellipse cx="604.428" cy="368.809" rx="3.05121" ry="3.05124" transform="rotate(-180 604.428 368.809)" fill="#E3FAFF" fill-opacity="0.13"/>
<circle cx="1395.72" cy="624.096" r="3.05125" transform="rotate(-180 1395.72 624.096)" fill="#E3FAFF" fill-opacity="0.13"/>
<ellipse cx="678.167" cy="541.204" rx="1.5256" ry="1.52563" transform="rotate(-180 678.167 541.204)" fill="#E3FAFF" fill-opacity="0.13"/>
<circle cx="694.112" cy="433.835" r="1.52563" transform="rotate(-180 694.112 433.835)" fill="#E3FAFF" fill-opacity="0.13"/>
<ellipse cx="924.797" cy="574.159" rx="1.52563" ry="1.52561" transform="rotate(-180 924.797 574.159)" fill="#E3FAFF" fill-opacity="0.13"/>
<ellipse cx="886.526" cy="637.943" rx="1.52563" ry="1.52562" transform="rotate(-180 886.526 637.943)" fill="#E3FAFF" fill-opacity="0.13"/>
<ellipse rx="1.52563" ry="1.52563" transform="matrix(0.661676 0.749789 -0.749794 0.661671 779.193 480.616)" fill="#E3FAFF" fill-opacity="0.13"/>
<ellipse rx="1.43538" ry="1.43538" transform="matrix(0.661677 0.749789 -0.749794 0.661671 694.203 519.631)" fill="#E3FAFF" fill-opacity="0.13"/>
<ellipse cx="599.851" cy="295.07" rx="1.52563" ry="1.52562" transform="rotate(-180 599.851 295.07)" fill="#E3FAFF" fill-opacity="0.13"/>
<ellipse cx="749.188" cy="648.233" rx="1.52563" ry="1.52562" transform="rotate(-180 749.188 648.233)" fill="#E3FAFF" fill-opacity="0.13"/>
<ellipse cx="1115.44" cy="651.196" rx="1.52562" ry="1.52562" transform="rotate(-180 1115.44 651.196)" fill="#E3FAFF" fill-opacity="0.13"/>
<ellipse cx="1487.51" cy="665.015" rx="1.52562" ry="1.52562" transform="rotate(-180 1487.51 665.015)" fill="#E3FAFF" fill-opacity="0.13"/>
<ellipse cx="1299.34" cy="675.646" rx="1.52562" ry="1.52562" transform="rotate(-180 1299.34 675.646)" fill="#E3FAFF" fill-opacity="0.13"/>
<ellipse cx="1391.14" cy="550.358" rx="1.52561" ry="1.52562" transform="rotate(-180 1391.14 550.358)" fill="#E3FAFF" fill-opacity="0.13"/>
<ellipse cx="152.336" cy="553.409" rx="1.5257" ry="1.52562" transform="rotate(-180 152.336 553.409)" fill="#E3FAFF" fill-opacity="0.13"/>
<ellipse cx="678.167" cy="395.761" rx="1.5256" ry="1.52563" transform="rotate(-180 678.167 395.761)" fill="#E3FAFF" fill-opacity="0.13"/>
<circle cx="1241.63" cy="438.479" r="1.52562" transform="rotate(-180 1241.63 438.479)" fill="#E3FAFF" fill-opacity="0.13"/>
<ellipse cx="74.0208" cy="307.276" rx="1.52563" ry="1.52562" transform="rotate(-180 74.0208 307.276)" fill="#E3FAFF" fill-opacity="0.13"/>
<ellipse cx="1021.53" cy="504.702" rx="2.02887" ry="2.03416" fill="#E3FAFF" fill-opacity="0.29"/>
<ellipse cx="994.141" cy="393.84" rx="3.04327" ry="3.05124" fill="#E3FAFF" fill-opacity="0.29"/>
<ellipse cx="1082.02" cy="440.639" rx="1.59039" ry="1.59459" fill="#E3FAFF" fill-opacity="0.29"/>
<ellipse cx="933.078" cy="87.4759" rx="1.59048" ry="1.59459" fill="#E3FAFF" fill-opacity="0.29"/>
<ellipse cx="567.785" cy="84.513" rx="1.59042" ry="1.59459" fill="#E3FAFF" fill-opacity="0.29"/>
<ellipse cx="196.684" cy="70.6937" rx="1.59044" ry="1.59459" fill="#E3FAFF" fill-opacity="0.29"/>
<ellipse cx="384.355" cy="60.0629" rx="1.59044" ry="1.59459" fill="#E3FAFF" fill-opacity="0.29"/>
<ellipse cx="1481.58" cy="98.5542" rx="2.02893" ry="2.03416" fill="#E3FAFF" fill-opacity="0.29"/>
<ellipse cx="1046.86" cy="249.509" rx="2.02893" ry="2.03416" fill="#E3FAFF" fill-opacity="0.29"/>
<path d="M1177.34 460.459C1177.34 461.864 1176.2 463.002 1174.8 463.002C1173.4 463.002 1172.26 461.864 1172.26 460.459C1172.26 459.055 1173.4 457.917 1174.8 457.917C1176.2 457.917 1177.34 459.055 1177.34 460.459Z" fill="#E3FAFF" fill-opacity="0.29"/>
<ellipse cx="948.492" cy="484.36" rx="2.02881" ry="2.03416" fill="#E3FAFF" fill-opacity="0.29"/>
<ellipse cx="1008.34" cy="420.284" rx="2.02884" ry="2.03416" fill="#E3FAFF" fill-opacity="0.29"/>
<ellipse cx="859.396" cy="67.1221" rx="2.02887" ry="2.03416" fill="#E3FAFF" fill-opacity="0.29"/>
<ellipse cx="494.103" cy="64.1592" rx="2.02887" ry="2.03416" fill="#E3FAFF" fill-opacity="0.29"/>
<ellipse cx="123.002" cy="50.3393" rx="2.02886" ry="2.03416" fill="#E3FAFF" fill-opacity="0.29"/>
<ellipse cx="310.673" cy="39.709" rx="2.02885" ry="2.03416" fill="#E3FAFF" fill-opacity="0.29"/>
<ellipse cx="1408.54" cy="78.2124" rx="2.02893" ry="2.03416" fill="#E3FAFF" fill-opacity="0.29"/>
<ellipse cx="973.826" cy="229.166" rx="2.02881" ry="2.03416" fill="#E3FAFF" fill-opacity="0.29"/>
<ellipse cx="1118.61" cy="493.26" rx="1.06024" ry="1.06308" fill="#E3FAFF" fill-opacity="0.29"/>
<ellipse cx="969.658" cy="140.098" rx="1.06024" ry="1.06306" fill="#E3FAFF" fill-opacity="0.29"/>
<ellipse cx="604.365" cy="137.135" rx="1.0603" ry="1.06306" fill="#E3FAFF" fill-opacity="0.29"/>
<ellipse cx="233.263" cy="123.315" rx="1.0603" ry="1.06306" fill="#E3FAFF" fill-opacity="0.29"/>
<ellipse cx="420.935" cy="112.684" rx="1.0603" ry="1.06306" fill="#E3FAFF" fill-opacity="0.29"/>
<ellipse cx="953.754" cy="247.467" rx="1.06024" ry="1.06306" fill="#E3FAFF" fill-opacity="0.29"/>
<ellipse cx="723.671" cy="107.143" rx="1.0603" ry="1.06306" fill="#E3FAFF" fill-opacity="0.29"/>
<ellipse cx="761.841" cy="43.359" rx="1.0603" ry="1.06306" fill="#E3FAFF" fill-opacity="0.29"/>
<ellipse cx="396.548" cy="40.3961" rx="1.06027" ry="1.06306" fill="#E3FAFF" fill-opacity="0.29"/>
<ellipse cx="25.447" cy="26.5767" rx="1.06029" ry="1.06306" fill="#E3FAFF" fill-opacity="0.29"/>
<ellipse cx="213.118" cy="15.9459" rx="1.0603" ry="1.06306" fill="#E3FAFF" fill-opacity="0.29"/>
<ellipse rx="1.06185" ry="1.0615" transform="matrix(-0.660698 -0.750652 0.74893 -0.662649 716.668 217.214)" fill="#E3FAFF" fill-opacity="0.29"/>
<ellipse rx="1.06185" ry="1.06151" transform="matrix(-0.660704 -0.750647 0.748935 -0.662643 379.484 139.71)" fill="#E3FAFF" fill-opacity="0.29"/>
<ellipse rx="0.999043" ry="0.99872" transform="matrix(-0.660705 -0.750646 0.748937 -0.662642 806.158 179.746)" fill="#E3FAFF" fill-opacity="0.29"/>
<ellipse rx="0.999035" ry="0.998711" transform="matrix(-0.660703 -0.750647 0.748935 -0.662644 440.865 176.784)" fill="#E3FAFF" fill-opacity="0.29"/>
<ellipse rx="0.999036" ry="0.998713" transform="matrix(-0.660704 -0.750646 0.748936 -0.662643 69.7642 162.964)" fill="#E3FAFF" fill-opacity="0.29"/>
<ellipse rx="0.999035" ry="0.998711" transform="matrix(-0.660703 -0.750647 0.748935 -0.662644 257.436 152.333)" fill="#E3FAFF" fill-opacity="0.29"/>
<ellipse cx="1031.68" cy="466.053" rx="2.02881" ry="2.03416" fill="#E3FAFF" fill-opacity="0.29"/>
<ellipse cx="1046.51" cy="476.251" rx="2.12061" ry="2.12613" fill="#E3FAFF" fill-opacity="0.29"/>
<ellipse cx="1077.32" cy="501.651" rx="3.04327" ry="3.05122" fill="#E3FAFF" fill-opacity="0.29"/>
<ellipse cx="955.593" cy="435.541" rx="2.02884" ry="2.03416" fill="#E3FAFF" fill-opacity="0.29"/>
<ellipse cx="1356.21" cy="92.1164" rx="2.12054" ry="2.12612" fill="#E3FAFF" fill-opacity="0.29"/>
<ellipse cx="921.492" cy="243.07" rx="2.12057" ry="2.12611" fill="#E3FAFF" fill-opacity="0.29"/>
<ellipse cx="967.766" cy="457.408" rx="3.04327" ry="2.54269" fill="#E3FAFF" fill-opacity="0.29"/>
<ellipse cx="1097.35" cy="503.844" rx="1.0144" ry="1.01707" fill="#E3FAFF" fill-opacity="0.29"/>
<ellipse cx="948.406" cy="150.682" rx="1.01447" ry="1.01708" fill="#E3FAFF" fill-opacity="0.29"/>
<ellipse cx="583.113" cy="147.719" rx="1.01443" ry="1.01708" fill="#E3FAFF" fill-opacity="0.29"/>
<ellipse cx="212.012" cy="133.899" rx="1.01443" ry="1.01708" fill="#E3FAFF" fill-opacity="0.29"/>
<ellipse cx="399.683" cy="123.269" rx="1.01442" ry="1.01708" fill="#E3FAFF" fill-opacity="0.29"/>
<ellipse cx="932.502" cy="258.051" rx="1.01447" ry="1.01709" fill="#E3FAFF" fill-opacity="0.29"/>
<ellipse cx="702.419" cy="117.728" rx="1.01443" ry="1.01708" fill="#E3FAFF" fill-opacity="0.29"/>
<ellipse cx="740.59" cy="53.9438" rx="1.0144" ry="1.01708" fill="#E3FAFF" fill-opacity="0.29"/>
<ellipse cx="375.297" cy="50.9809" rx="1.01443" ry="1.01708" fill="#E3FAFF" fill-opacity="0.29"/>
<ellipse cx="4.19509" cy="37.1611" rx="1.01443" ry="1.01708" fill="#E3FAFF" fill-opacity="0.29"/>
<ellipse cx="191.866" cy="26.5308" rx="1.01443" ry="1.01708" fill="#E3FAFF" fill-opacity="0.29"/>
<ellipse rx="1.01593" ry="1.0156" transform="matrix(-0.660707 -0.750644 0.748939 -0.662639 738.644 226.187)" fill="#E3FAFF" fill-opacity="0.29"/>
<ellipse rx="0.955829" ry="0.955519" transform="matrix(-0.660701 -0.750649 0.748933 -0.662645 826.835 188.188)" fill="#E3FAFF" fill-opacity="0.29"/>
<ellipse cx="1091.04" cy="390.143" rx="1.0603" ry="1.06305" fill="#E3FAFF" fill-opacity="0.29"/>
<ellipse cx="942.09" cy="36.9805" rx="1.0603" ry="1.06306" fill="#E3FAFF" fill-opacity="0.29"/>
<ellipse cx="1076.61" cy="371.425" rx="2.53607" ry="2.54271" fill="#E3FAFF" fill-opacity="0.29"/>
<ellipse cx="1147.83" cy="437.066" rx="1.52167" ry="1.52562" fill="#E3FAFF" fill-opacity="0.29"/>
<ellipse cx="998.88" cy="83.904" rx="1.52164" ry="1.52562" fill="#E3FAFF" fill-opacity="0.29"/>
<ellipse cx="1009.36" cy="386.721" rx="2.02884" ry="2.03416" fill="#E3FAFF" fill-opacity="0.29"/>
<ellipse cx="860.41" cy="33.5586" rx="2.02887" ry="2.03416" fill="#E3FAFF" fill-opacity="0.29"/>
<ellipse cx="1116.89" cy="472.156" rx="2.02881" ry="2.03416" fill="#E3FAFF" fill-opacity="0.29"/>
<ellipse cx="1082.37" cy="281.038" rx="2.02887" ry="2.03416" fill="#E3FAFF" fill-opacity="0.29"/>
<ellipse cx="1157.46" cy="139.57" rx="3.04327" ry="3.05125" fill="#E3FAFF" fill-opacity="0.29"/>
<ellipse cx="633.004" cy="297.218" rx="3.0433" ry="3.05124" fill="#E3FAFF" fill-opacity="0.29"/>
<ellipse cx="71.0101" cy="254.5" rx="3.04329" ry="3.05125" fill="#E3FAFF" fill-opacity="0.29"/>
<ellipse cx="1235.58" cy="385.704" rx="3.04327" ry="3.05124" fill="#E3FAFF" fill-opacity="0.29"/>
<ellipse cx="446.349" cy="130.416" rx="3.04327" ry="3.05124" fill="#E3FAFF" fill-opacity="0.29"/>
<ellipse cx="1190.43" cy="203.137" rx="4.56494" ry="4.57687" fill="#E3FAFF" fill-opacity="0.29"/>
<ellipse cx="665.973" cy="360.785" rx="4.56494" ry="4.57689" fill="#E3FAFF" fill-opacity="0.29"/>
<ellipse cx="103.979" cy="318.068" rx="4.56493" ry="4.57687" fill="#E3FAFF" fill-opacity="0.29"/>
<ellipse cx="1268.54" cy="449.271" rx="4.56494" ry="4.57687" fill="#E3FAFF" fill-opacity="0.29"/>
<ellipse cx="1334.99" cy="280.944" rx="3.04327" ry="3.05124" fill="#E3FAFF" fill-opacity="0.29"/>
<ellipse cx="810.53" cy="438.592" rx="3.04327" ry="3.05124" fill="#E3FAFF" fill-opacity="0.29"/>
<ellipse cx="248.535" cy="395.874" rx="3.04329" ry="3.05124" fill="#E3FAFF" fill-opacity="0.29"/>
<ellipse cx="1413.1" cy="527.078" rx="3.04327" ry="3.05124" fill="#E3FAFF" fill-opacity="0.29"/>
<ellipse cx="1281.22" cy="51.084" rx="3.04327" ry="3.05124" fill="#E3FAFF" fill-opacity="0.29"/>
<ellipse cx="756.765" cy="208.731" rx="3.0433" ry="3.05124" fill="#E3FAFF" fill-opacity="0.29"/>
<ellipse cx="419.581" cy="131.228" rx="3.04329" ry="3.05125" fill="#E3FAFF" fill-opacity="0.29"/>
<ellipse cx="194.77" cy="166.014" rx="3.04329" ry="3.05125" fill="#E3FAFF" fill-opacity="0.29"/>
<ellipse cx="1359.34" cy="297.218" rx="3.04327" ry="3.05124" fill="#E3FAFF" fill-opacity="0.29"/>
<ellipse cx="834.875" cy="454.865" rx="3.0433" ry="3.05124" fill="#E3FAFF" fill-opacity="0.29"/>
<ellipse cx="272.882" cy="412.147" rx="3.04329" ry="3.05124" fill="#E3FAFF" fill-opacity="0.29"/>
<ellipse cx="570.11" cy="41.9301" rx="3.0433" ry="3.05124" fill="#E3FAFF" fill-opacity="0.29"/>
<ellipse cx="1369.99" cy="74.9856" rx="4.56494" ry="4.57687" fill="#E3FAFF" fill-opacity="0.29"/>
<ellipse cx="845.527" cy="232.633" rx="4.56494" ry="4.57687" fill="#E3FAFF" fill-opacity="0.29"/>
<ellipse cx="508.344" cy="155.129" rx="4.56493" ry="4.57686" fill="#E3FAFF" fill-opacity="0.29"/>
<ellipse cx="283.533" cy="189.916" rx="4.56494" ry="4.57686" fill="#E3FAFF" fill-opacity="0.29"/>
<ellipse cx="1448.1" cy="321.119" rx="4.56494" ry="4.57686" fill="#E3FAFF" fill-opacity="0.29"/>
<ellipse cx="658.873" cy="65.8322" rx="4.56494" ry="4.57686" fill="#E3FAFF" fill-opacity="0.29"/>
<ellipse cx="834.875" cy="57.187" rx="3.0433" ry="3.05124" fill="#E3FAFF" fill-opacity="0.29"/>
<ellipse cx="124.976" cy="36.0063" rx="3.04329" ry="3.05124" fill="#E3FAFF" fill-opacity="0.29"/>
<ellipse cx="864.136" cy="153.081" rx="2.12061" ry="2.12613" fill="#E3FAFF" fill-opacity="0.29"/>
<ellipse cx="1326.88" cy="46.6826" rx="1.52167" ry="2.03416" fill="#E3FAFF" fill-opacity="0.29"/>
<ellipse cx="882.691" cy="185.504" rx="1.59048" ry="1.59459" fill="#E3FAFF" fill-opacity="0.29"/>
<ellipse cx="876.26" cy="305.006" rx="1.52164" ry="2.03416" fill="#E3FAFF" fill-opacity="0.29"/>
<ellipse cx="646.777" cy="164.774" rx="2.12057" ry="2.12611" fill="#E3FAFF" fill-opacity="0.29"/>
<ellipse cx="684.348" cy="100.899" rx="1.52164" ry="2.03416" fill="#E3FAFF" fill-opacity="0.29"/>
<ellipse rx="1.52389" ry="2.03119" transform="matrix(-0.660705 -0.750645 0.748937 -0.662642 810.972 237.397)" fill="#E3FAFF" fill-opacity="0.29"/>
<ellipse cx="906.547" cy="198.792" rx="2.12611" ry="2.12057" transform="rotate(-90 906.547 198.792)" fill="#E3FAFF" fill-opacity="0.29"/>
<ellipse cx="152.672" cy="143.638" rx="1.52164" ry="2.03416" fill="#E3FAFF" fill-opacity="0.29"/>
<ellipse cx="1388.25" cy="140.587" rx="1.52167" ry="2.03416" fill="#E3FAFF" fill-opacity="0.29"/>
<ellipse cx="863.787" cy="298.234" rx="1.52164" ry="2.03416" fill="#E3FAFF" fill-opacity="0.29"/>
<ellipse cx="301.793" cy="255.517" rx="1.52165" ry="2.03416" fill="#E3FAFF" fill-opacity="0.29"/>
<ellipse cx="1466.36" cy="386.721" rx="1.52161" ry="2.03416" fill="#E3FAFF" fill-opacity="0.29"/>
<ellipse cx="1036.75" cy="106.006" rx="3.04327" ry="3.05124" fill="#E3FAFF" fill-opacity="0.29"/>
<ellipse cx="1114.86" cy="352.14" rx="3.04327" ry="3.05124" fill="#E3FAFF" fill-opacity="0.29"/>
<ellipse cx="325.632" cy="96.852" rx="3.04327" ry="3.05124" fill="#E3FAFF" fill-opacity="0.29"/>
<ellipse cx="1015.95" cy="154.318" rx="4.56494" ry="4.57686" fill="#E3FAFF" fill-opacity="0.29"/>
<ellipse cx="1094.06" cy="400.451" rx="4.56494" ry="4.57687" fill="#E3FAFF" fill-opacity="0.29"/>
<ellipse cx="304.836" cy="145.164" rx="4.56494" ry="4.57686" fill="#E3FAFF" fill-opacity="0.29"/>
<ellipse cx="1214.27" cy="247.381" rx="3.04327" ry="3.05125" fill="#E3FAFF" fill-opacity="0.29"/>
<ellipse cx="689.813" cy="405.028" rx="3.04327" ry="3.05124" fill="#E3FAFF" fill-opacity="0.29"/>
<ellipse cx="127.818" cy="362.311" rx="3.04329" ry="3.05124" fill="#E3FAFF" fill-opacity="0.29"/>
<ellipse cx="1292.38" cy="493.514" rx="3.04333" ry="3.05124" fill="#E3FAFF" fill-opacity="0.29"/>
<ellipse cx="1160.51" cy="17.5205" rx="3.04327" ry="3.05124" fill="#E3FAFF" fill-opacity="0.29"/>
<ellipse cx="636.047" cy="175.168" rx="3.04327" ry="3.05125" fill="#E3FAFF" fill-opacity="0.29"/>
<ellipse cx="298.864" cy="97.6635" rx="3.04329" ry="3.05124" fill="#E3FAFF" fill-opacity="0.29"/>
<ellipse cx="74.0535" cy="132.45" rx="3.04329" ry="3.05124" fill="#E3FAFF" fill-opacity="0.29"/>
<ellipse rx="3.05058" ry="3.04395" transform="matrix(0.286855 0.957974 -0.957561 0.288232 40.8998 51.3056)" fill="#E3FAFF" fill-opacity="0.29"/>
<ellipse cx="1238.62" cy="263.654" rx="3.04321" ry="3.05124" fill="#E3FAFF" fill-opacity="0.29"/>
<ellipse cx="714.159" cy="421.301" rx="3.04327" ry="3.05124" fill="#E3FAFF" fill-opacity="0.29"/>
<ellipse cx="152.164" cy="378.584" rx="3.0433" ry="3.05124" fill="#E3FAFF" fill-opacity="0.29"/>
<ellipse cx="449.392" cy="8.36667" rx="3.04329" ry="3.05124" fill="#E3FAFF" fill-opacity="0.29"/>
<ellipse cx="714.159" cy="23.6225" rx="3.04327" ry="3.05124" fill="#E3FAFF" fill-opacity="0.29"/>
<ellipse cx="3.04329" cy="14.4692" rx="3.04329" ry="3.05124" fill="#E3FAFF" fill-opacity="0.29"/>
<ellipse cx="793.791" cy="132.959" rx="1.52164" ry="1.52562" fill="#E3FAFF" fill-opacity="0.29"/>
<ellipse cx="428.499" cy="129.996" rx="1.52164" ry="1.52563" fill="#E3FAFF" fill-opacity="0.29"/>
<ellipse cx="57.3976" cy="116.176" rx="1.52165" ry="1.52562" fill="#E3FAFF" fill-opacity="0.29"/>
<ellipse rx="1.52529" ry="1.52197" transform="matrix(0.286855 0.957974 -0.957561 0.288232 51.6569 30.6323)" fill="#E3FAFF" fill-opacity="0.29"/>
<ellipse cx="245.069" cy="105.546" rx="1.52164" ry="1.52562" fill="#E3FAFF" fill-opacity="0.29"/>
<ellipse cx="82.6759" cy="123.805" rx="1.52164" ry="1.52562" fill="#E3FAFF" fill-opacity="0.29"/>
<ellipse cx="1318.25" cy="120.754" rx="1.52161" ry="1.52562" fill="#E3FAFF" fill-opacity="0.29"/>
<ellipse cx="1391.41" cy="26.1413" rx="1.52167" ry="1.52562" fill="#E3FAFF" fill-opacity="0.29"/>
<ellipse cx="1216.46" cy="75.0422" rx="1.52167" ry="1.52562" fill="#E3FAFF" fill-opacity="0.29"/>
<ellipse cx="1122.1" cy="24.0154" rx="1.52167" ry="1.52562" fill="#E3FAFF" fill-opacity="0.29"/>
<ellipse cx="1091.35" cy="129.259" rx="1.52167" ry="1.52562" fill="#E3FAFF" fill-opacity="0.29"/>
<ellipse cx="793.791" cy="278.401" rx="1.52164" ry="1.52562" fill="#E3FAFF" fill-opacity="0.29"/>
<ellipse cx="456.608" cy="200.897" rx="1.52164" ry="1.52562" fill="#E3FAFF" fill-opacity="0.29"/>
<ellipse cx="231.797" cy="235.684" rx="1.52164" ry="1.52562" fill="#E3FAFF" fill-opacity="0.29"/>
<ellipse cx="1396.36" cy="366.887" rx="1.52167" ry="1.52563" fill="#E3FAFF" fill-opacity="0.29"/>
<ellipse cx="607.136" cy="111.6" rx="1.52164" ry="1.52562" fill="#E3FAFF" fill-opacity="0.29"/>
<ellipse cx="1074.28" cy="181.27" rx="3.04333" ry="3.05125" fill="#E3FAFF" fill-opacity="0.29"/>
<ellipse cx="1152.39" cy="427.404" rx="3.04333" ry="3.05124" fill="#E3FAFF" fill-opacity="0.29"/>
<ellipse cx="363.166" cy="172.117" rx="3.04329" ry="3.05125" fill="#E3FAFF" fill-opacity="0.29"/>
<ellipse cx="1251.81" cy="322.645" rx="3.04333" ry="3.05124" fill="#E3FAFF" fill-opacity="0.29"/>
<ellipse cx="1329.92" cy="568.778" rx="3.04327" ry="3.05124" fill="#E3FAFF" fill-opacity="0.29"/>
<ellipse cx="1198.04" cy="92.7842" rx="3.04327" ry="3.05125" fill="#E3FAFF" fill-opacity="0.29"/>
<ellipse cx="673.581" cy="250.432" rx="3.0433" ry="3.05124" fill="#E3FAFF" fill-opacity="0.29"/>
<ellipse cx="336.398" cy="172.928" rx="3.04327" ry="3.05125" fill="#E3FAFF" fill-opacity="0.29"/>
<ellipse cx="111.587" cy="207.714" rx="3.04329" ry="3.05125" fill="#E3FAFF" fill-opacity="0.29"/>
<ellipse cx="1276.15" cy="338.918" rx="3.04327" ry="3.05124" fill="#E3FAFF" fill-opacity="0.29"/>
<ellipse cx="486.926" cy="83.6303" rx="3.04327" ry="3.05124" fill="#E3FAFF" fill-opacity="0.29"/>
<ellipse cx="1249.27" cy="134.993" rx="4.56494" ry="4.57687" fill="#E3FAFF" fill-opacity="0.29"/>
<ellipse cx="724.81" cy="292.641" rx="4.56494" ry="4.57686" fill="#E3FAFF" fill-opacity="0.29"/>
<ellipse cx="387.626" cy="215.136" rx="4.56496" ry="4.57687" fill="#E3FAFF" fill-opacity="0.29"/>
<ellipse cx="162.816" cy="249.923" rx="4.56493" ry="4.57686" fill="#E3FAFF" fill-opacity="0.29"/>
<ellipse cx="1327.38" cy="381.126" rx="4.56488" ry="4.57689" fill="#E3FAFF" fill-opacity="0.29"/>
<ellipse cx="538.155" cy="125.84" rx="4.56491" ry="4.57687" fill="#E3FAFF" fill-opacity="0.29"/>
<ellipse cx="751.693" cy="98.8867" rx="3.04327" ry="3.05124" fill="#E3FAFF" fill-opacity="0.29"/>
<ellipse cx="40.577" cy="89.7329" rx="3.04329" ry="3.05124" fill="#E3FAFF" fill-opacity="0.29"/>
<ellipse cx="815.363" cy="176.468" rx="2.12057" ry="2.12612" fill="#E3FAFF" fill-opacity="0.29"/>
<ellipse cx="104.486" cy="167.54" rx="2.02886" ry="1.52562" fill="#E3FAFF" fill-opacity="0.29"/>
<ellipse cx="1340.06" cy="164.489" rx="2.02887" ry="1.52562" fill="#E3FAFF" fill-opacity="0.29"/>
<ellipse cx="815.602" cy="322.136" rx="2.02881" ry="1.5256" fill="#E3FAFF" fill-opacity="0.29"/>
<ellipse cx="253.607" cy="279.419" rx="2.02886" ry="1.52562" fill="#E3FAFF" fill-opacity="0.29"/>
<ellipse cx="1418.17" cy="410.622" rx="2.02887" ry="1.52563" fill="#E3FAFF" fill-opacity="0.29"/>
<ellipse cx="616.028" cy="155.207" rx="2.12054" ry="2.12612" fill="#E3FAFF" fill-opacity="0.29"/>
<ellipse cx="949.506" cy="130.416" rx="3.04327" ry="3.05124" fill="#E3FAFF" fill-opacity="0.29"/>
<ellipse cx="1027.62" cy="376.55" rx="3.04327" ry="3.05124" fill="#E3FAFF" fill-opacity="0.29"/>
<ellipse cx="238.391" cy="121.263" rx="3.04329" ry="3.05125" fill="#E3FAFF" fill-opacity="0.29"/>
<ellipse cx="1127.03" cy="271.79" rx="3.04327" ry="3.05124" fill="#E3FAFF" fill-opacity="0.29"/>
<ellipse cx="602.572" cy="429.438" rx="3.04327" ry="3.05122" fill="#E3FAFF" fill-opacity="0.29"/>
<ellipse cx="40.577" cy="386.72" rx="3.04329" ry="3.05124" fill="#E3FAFF" fill-opacity="0.29"/>
<ellipse cx="1205.14" cy="517.924" rx="3.04327" ry="3.05124" fill="#E3FAFF" fill-opacity="0.29"/>
<ellipse cx="1073.27" cy="41.9301" rx="3.04327" ry="3.05124" fill="#E3FAFF" fill-opacity="0.29"/>
<ellipse cx="1151.38" cy="288.064" rx="3.04327" ry="3.05124" fill="#E3FAFF" fill-opacity="0.29"/>
<ellipse cx="626.917" cy="445.711" rx="3.04327" ry="3.05124" fill="#E3FAFF" fill-opacity="0.29"/>
<ellipse cx="64.9237" cy="402.994" rx="3.04329" ry="3.05124" fill="#E3FAFF" fill-opacity="0.29"/>
<ellipse cx="362.151" cy="32.7763" rx="3.04329" ry="3.05124" fill="#E3FAFF" fill-opacity="0.29"/>
<ellipse cx="1068.7" cy="61.7634" rx="4.56494" ry="4.57686" fill="#E3FAFF" fill-opacity="0.29"/>
<ellipse cx="1093.16" cy="103.117" rx="3.18085" ry="3.18918" fill="#E3FAFF" fill-opacity="0.29"/>
<ellipse cx="1146.81" cy="307.897" rx="4.56494" ry="4.57689" fill="#E3FAFF" fill-opacity="0.29"/>
<ellipse cx="622.353" cy="465.545" rx="4.56488" ry="4.57689" fill="#E3FAFF" fill-opacity="0.29"/>
<ellipse cx="60.3584" cy="422.827" rx="4.56494" ry="4.57689" fill="#E3FAFF" fill-opacity="0.29"/>
<ellipse cx="357.586" cy="52.6096" rx="4.56494" ry="4.57686" fill="#E3FAFF" fill-opacity="0.29"/>
<ellipse cx="626.917" cy="48.0332" rx="3.04327" ry="3.05124" fill="#E3FAFF" fill-opacity="0.29"/>
<ellipse cx="743.07" cy="147.198" rx="1.52161" ry="1.52562" fill="#E3FAFF" fill-opacity="0.29"/>
<ellipse cx="31.9543" cy="138.044" rx="1.52164" ry="1.52562" fill="#E3FAFF" fill-opacity="0.29"/>
<ellipse cx="1267.53" cy="134.993" rx="1.52161" ry="1.52562" fill="#E3FAFF" fill-opacity="0.29"/>
<ellipse cx="1340.69" cy="40.3806" rx="1.52161" ry="1.52562" fill="#E3FAFF" fill-opacity="0.29"/>
<ellipse cx="1165.74" cy="89.2815" rx="1.52161" ry="1.52562" fill="#E3FAFF" fill-opacity="0.29"/>
<ellipse cx="1052.27" cy="40.8586" rx="1.52167" ry="1.52562" fill="#E3FAFF" fill-opacity="0.29"/>
<ellipse cx="1040.63" cy="143.498" rx="1.52167" ry="1.52561" fill="#E3FAFF" fill-opacity="0.29"/>
<ellipse cx="1024.72" cy="250.866" rx="1.52164" ry="1.52562" fill="#E3FAFF" fill-opacity="0.29"/>
<ellipse cx="794.641" cy="110.543" rx="1.52161" ry="1.52562" fill="#E3FAFF" fill-opacity="0.29"/>
<ellipse cx="832.812" cy="46.759" rx="1.52167" ry="1.52562" fill="#E3FAFF" fill-opacity="0.29"/>
<ellipse cx="467.519" cy="43.7961" rx="1.52164" ry="1.52562" fill="#E3FAFF" fill-opacity="0.29"/>
<ellipse cx="96.4176" cy="29.9763" rx="1.52164" ry="1.52562" fill="#E3FAFF" fill-opacity="0.29"/>
<ellipse cx="284.089" cy="19.3459" rx="1.52165" ry="1.52562" fill="#E3FAFF" fill-opacity="0.29"/>
<ellipse rx="1.52388" ry="1.52338" transform="matrix(-0.660701 -0.750649 0.748933 -0.662646 672.25 161.612)" fill="#E3FAFF" fill-opacity="0.29"/>
<ellipse rx="1.43375" ry="1.43328" transform="matrix(-0.660705 -0.750646 0.748936 -0.662642 764.368 127.434)" fill="#E3FAFF" fill-opacity="0.29"/>
<ellipse cx="1138.15" cy="153.543" rx="1.52161" ry="1.52561" fill="#E3FAFF" fill-opacity="0.29"/>
<ellipse cx="1211.31" cy="58.9309" rx="1.52167" ry="1.52562" fill="#E3FAFF" fill-opacity="0.29"/>
<ellipse cx="1036.36" cy="107.832" rx="1.52161" ry="1.52562" fill="#E3FAFF" fill-opacity="0.29"/>
<ellipse cx="941.998" cy="56.8049" rx="1.52164" ry="1.52562" fill="#E3FAFF" fill-opacity="0.29"/>
<ellipse cx="911.25" cy="162.048" rx="1.52164" ry="1.52562" fill="#E3FAFF" fill-opacity="0.29"/>
<ellipse cx="545.957" cy="159.085" rx="1.52167" ry="1.52562" fill="#E3FAFF" fill-opacity="0.29"/>
<ellipse cx="174.856" cy="145.265" rx="1.52164" ry="1.52561" fill="#E3FAFF" fill-opacity="0.29"/>
<ellipse cx="362.527" cy="134.634" rx="1.52164" ry="1.52561" fill="#E3FAFF" fill-opacity="0.29"/>
<ellipse cx="895.346" cy="269.417" rx="1.52167" ry="1.52562" fill="#E3FAFF" fill-opacity="0.29"/>
<ellipse cx="665.263" cy="129.093" rx="1.52164" ry="1.52563" fill="#E3FAFF" fill-opacity="0.29"/>
<ellipse cx="703.433" cy="65.3093" rx="1.52167" ry="1.52562" fill="#E3FAFF" fill-opacity="0.29"/>
<ellipse rx="1.52389" ry="1.52339" transform="matrix(-0.660706 -0.750645 0.748937 -0.662641 771.729 246.599)" fill="#E3FAFF" fill-opacity="0.29"/>
<ellipse rx="1.52389" ry="1.52339" transform="matrix(-0.660705 -0.750646 0.748936 -0.662642 434.546 169.094)" fill="#E3FAFF" fill-opacity="0.29"/>
<ellipse rx="1.43373" ry="1.43326" transform="matrix(-0.660694 -0.750655 0.748927 -0.662652 857.963 207.392)" fill="#E3FAFF" fill-opacity="0.29"/>
<ellipse cx="1183.74" cy="163.111" rx="1.52167" ry="1.52562" fill="#E3FAFF" fill-opacity="0.29"/>
<ellipse cx="1256.9" cy="68.4983" rx="1.52167" ry="1.52562" fill="#E3FAFF" fill-opacity="0.29"/>
<ellipse cx="1081.96" cy="117.399" rx="1.52161" ry="1.52562" fill="#E3FAFF" fill-opacity="0.29"/>
<ellipse cx="987.591" cy="66.3723" rx="1.52164" ry="1.52562" fill="#E3FAFF" fill-opacity="0.29"/>
<ellipse cx="956.842" cy="171.615" rx="1.52161" ry="1.5256" fill="#E3FAFF" fill-opacity="0.29"/>
<ellipse cx="1226.16" cy="131.219" rx="1.52161" ry="1.52563" fill="#E3FAFF" fill-opacity="0.29"/>
<ellipse cx="1299.32" cy="36.6067" rx="1.52161" ry="1.52562" fill="#E3FAFF" fill-opacity="0.29"/>
<ellipse cx="1124.37" cy="85.5076" rx="1.52161" ry="1.52562" fill="#E3FAFF" fill-opacity="0.29"/>
<ellipse cx="1030" cy="34.4807" rx="1.52173" ry="1.52562" fill="#E3FAFF" fill-opacity="0.29"/>
<ellipse cx="999.254" cy="139.723" rx="1.52164" ry="1.52562" fill="#E3FAFF" fill-opacity="0.29"/>
<ellipse cx="1248.42" cy="118.462" rx="1.52161" ry="1.52562" fill="#E3FAFF" fill-opacity="0.29"/>
<ellipse cx="1321.58" cy="23.8498" rx="1.52167" ry="1.52562" fill="#E3FAFF" fill-opacity="0.29"/>
<ellipse cx="1146.63" cy="72.7507" rx="1.52167" ry="1.52562" fill="#E3FAFF" fill-opacity="0.29"/>
<ellipse cx="1052.27" cy="21.7239" rx="1.52167" ry="1.52562" fill="#E3FAFF" fill-opacity="0.29"/>
<ellipse cx="1021.52" cy="126.967" rx="1.52164" ry="1.52562" fill="#E3FAFF" fill-opacity="0.29"/>
<ellipse cx="1005.62" cy="234.336" rx="1.52164" ry="1.52562" fill="#E3FAFF" fill-opacity="0.29"/>
<ellipse cx="775.532" cy="94.0119" rx="1.52164" ry="1.52562" fill="#E3FAFF" fill-opacity="0.29"/>
<ellipse cx="410.24" cy="91.0491" rx="1.52164" ry="1.52562" fill="#E3FAFF" fill-opacity="0.29"/>
<ellipse cx="39.1388" cy="77.2292" rx="1.52164" ry="1.52562" fill="#E3FAFF" fill-opacity="0.29"/>
<ellipse rx="1.52529" ry="1.52198" transform="matrix(0.286856 0.957974 -0.957561 0.288232 83.6115 1.89987)" fill="#E3FAFF" fill-opacity="0.29"/>
<ellipse cx="226.81" cy="66.5984" rx="1.52164" ry="1.52562" fill="#E3FAFF" fill-opacity="0.29"/>
<ellipse cx="813.703" cy="30.2283" rx="1.52164" ry="1.52562" fill="#E3FAFF" fill-opacity="0.29"/>
<ellipse rx="1.52389" ry="1.52339" transform="matrix(-0.660705 -0.750646 0.748936 -0.662642 672.532 186.915)" fill="#E3FAFF" fill-opacity="0.29"/>
<ellipse rx="1.43374" ry="1.43327" transform="matrix(-0.660699 -0.750651 0.748931 -0.662648 764.633 151.24)" fill="#E3FAFF" fill-opacity="0.29"/>
<ellipse rx="1.43374" ry="1.43328" transform="matrix(-0.660703 -0.750648 0.748935 -0.662644 399.341 148.277)" fill="#E3FAFF" fill-opacity="0.29"/>
<ellipse rx="1.43374" ry="1.43328" transform="matrix(-0.660703 -0.750648 0.748934 -0.662644 28.2394 134.457)" fill="#E3FAFF" fill-opacity="0.29"/>
<ellipse rx="1.43374" ry="1.43327" transform="matrix(-0.660701 -0.750649 0.748933 -0.662646 215.91 123.826)" fill="#E3FAFF" fill-opacity="0.29"/>
<ellipse cx="1218.73" cy="152.48" rx="1.52161" ry="1.52562" fill="#E3FAFF" fill-opacity="0.29"/>
<ellipse cx="1291.89" cy="57.8679" rx="1.52161" ry="1.52562" fill="#E3FAFF" fill-opacity="0.29"/>
<ellipse cx="1116.95" cy="106.769" rx="1.52167" ry="1.52562" fill="#E3FAFF" fill-opacity="0.29"/>
<ellipse cx="1022.58" cy="55.7414" rx="1.52167" ry="1.52562" fill="#E3FAFF" fill-opacity="0.29"/>
<ellipse cx="991.832" cy="160.985" rx="1.52164" ry="1.52562" fill="#E3FAFF" fill-opacity="0.29"/>
<ellipse cx="975.928" cy="268.354" rx="1.52161" ry="1.5256" fill="#E3FAFF" fill-opacity="0.29"/>
<ellipse cx="745.845" cy="128.03" rx="1.52161" ry="1.52562" fill="#E3FAFF" fill-opacity="0.29"/>
<ellipse cx="784.015" cy="64.2463" rx="1.52164" ry="1.52562" fill="#E3FAFF" fill-opacity="0.29"/>
<ellipse rx="1.52389" ry="1.52339" transform="matrix(-0.660705 -0.750646 0.748936 -0.662642 717.616 186.725)" fill="#E3FAFF" fill-opacity="0.29"/>
<ellipse rx="1.43374" ry="1.43327" transform="matrix(-0.6607 -0.75065 0.748932 -0.662647 807.05 151.06)" fill="#E3FAFF" fill-opacity="0.29"/>
<ellipse cx="743.07" cy="292.64" rx="1.52161" ry="1.5256" fill="#E3FAFF" fill-opacity="0.29"/>
<ellipse cx="405.886" cy="215.136" rx="1.52164" ry="1.52562" fill="#E3FAFF" fill-opacity="0.29"/>
<ellipse cx="181.076" cy="249.923" rx="1.52164" ry="1.52561" fill="#E3FAFF" fill-opacity="0.29"/>
<ellipse cx="1345.64" cy="381.127" rx="1.52161" ry="1.52562" fill="#E3FAFF" fill-opacity="0.29"/>
<ellipse cx="556.415" cy="125.839" rx="1.52164" ry="1.52562" fill="#E3FAFF" fill-opacity="0.29"/>
<ellipse cx="1350.21" cy="196.527" rx="2.02893" ry="2.03416" fill="#E3FAFF" fill-opacity="0.29"/>
<ellipse cx="825.746" cy="354.174" rx="2.02887" ry="2.03416" fill="#E3FAFF" fill-opacity="0.29"/>
<ellipse cx="263.752" cy="311.457" rx="2.02885" ry="2.03416" fill="#E3FAFF" fill-opacity="0.29"/>
<ellipse cx="1428.32" cy="442.66" rx="2.02881" ry="2.03416" fill="#E3FAFF" fill-opacity="0.29"/>
<ellipse cx="1266.91" cy="121.051" rx="3.04327" ry="3.05125" fill="#E3FAFF" fill-opacity="0.29"/>
<ellipse cx="738.884" cy="276.258" rx="3.04327" ry="3.05124" fill="#E3FAFF" fill-opacity="0.29"/>
<ellipse cx="401.701" cy="198.753" rx="3.04329" ry="3.05125" fill="#E3FAFF" fill-opacity="0.29"/>
<ellipse cx="137.962" cy="248.397" rx="3.0433" ry="3.05125" fill="#E3FAFF" fill-opacity="0.29"/>
<ellipse cx="1343.25" cy="348.546" rx="3.04327" ry="3.05124" fill="#E3FAFF" fill-opacity="0.29"/>
<ellipse cx="1195.17" cy="26.4384" rx="3.04333" ry="3.05124" fill="#E3FAFF" fill-opacity="0.29"/>
<ellipse cx="555.454" cy="100.853" rx="3.04327" ry="3.05124" fill="#E3FAFF" fill-opacity="0.29"/>
<ellipse cx="1348.18" cy="193.984" rx="4.05768" ry="4.57686" fill="#E3FAFF" fill-opacity="0.29"/>
<ellipse cx="823.717" cy="351.631" rx="4.05774" ry="4.57689" fill="#E3FAFF" fill-opacity="0.29"/>
<ellipse cx="261.723" cy="308.914" rx="4.05772" ry="4.57689" fill="#E3FAFF" fill-opacity="0.29"/>
<ellipse cx="1426.29" cy="440.117" rx="4.05774" ry="4.57687" fill="#E3FAFF" fill-opacity="0.29"/>
<ellipse cx="588.461" cy="194.54" rx="4.24118" ry="4.25224" fill="#E3FAFF" fill-opacity="0.29"/>
<ellipse cx="1443.53" cy="274.842" rx="3.04327" ry="3.05124" fill="#E3FAFF" fill-opacity="0.29"/>
<ellipse cx="919.074" cy="432.489" rx="3.0433" ry="3.05124" fill="#E3FAFF" fill-opacity="0.29"/>
<ellipse cx="357.079" cy="389.772" rx="3.04329" ry="3.05124" fill="#E3FAFF" fill-opacity="0.29"/>
<ellipse cx="1389.77" cy="44.9814" rx="3.04333" ry="3.05124" fill="#E3FAFF" fill-opacity="0.29"/>
<ellipse cx="859.757" cy="186.96" rx="3.04327" ry="3.05125" fill="#E3FAFF" fill-opacity="0.29"/>
<ellipse cx="303.314" cy="159.912" rx="3.04329" ry="3.05125" fill="#E3FAFF" fill-opacity="0.29"/>
<ellipse cx="1467.88" cy="291.115" rx="3.04327" ry="3.05124" fill="#E3FAFF" fill-opacity="0.29"/>
<ellipse cx="943.42" cy="448.763" rx="3.04327" ry="3.05124" fill="#E3FAFF" fill-opacity="0.29"/>
<ellipse cx="381.426" cy="406.045" rx="3.04327" ry="3.05124" fill="#E3FAFF" fill-opacity="0.29"/>
<ellipse cx="943.42" cy="51.084" rx="3.04327" ry="3.05124" fill="#E3FAFF" fill-opacity="0.29"/>
<ellipse cx="1021.53" cy="297.218" rx="3.04327" ry="3.05124" fill="#E3FAFF" fill-opacity="0.29"/>
<ellipse cx="232.305" cy="41.9301" rx="3.0433" ry="3.05124" fill="#E3FAFF" fill-opacity="0.29"/>
<ellipse cx="926.682" cy="149.232" rx="1.52161" ry="1.52561" fill="#E3FAFF" fill-opacity="0.29"/>
<ellipse cx="561.389" cy="146.269" rx="1.52164" ry="1.52562" fill="#E3FAFF" fill-opacity="0.29"/>
<ellipse cx="190.288" cy="132.449" rx="1.52164" ry="1.52563" fill="#E3FAFF" fill-opacity="0.29"/>
<ellipse cx="377.959" cy="121.819" rx="1.52165" ry="1.52562" fill="#E3FAFF" fill-opacity="0.29"/>
<ellipse cx="1052.27" cy="402.299" rx="1.52167" ry="1.52562" fill="#E3FAFF" fill-opacity="0.29"/>
<ellipse cx="903.32" cy="49.1369" rx="1.52164" ry="1.52562" fill="#E3FAFF" fill-opacity="0.29"/>
<ellipse cx="538.028" cy="46.1741" rx="1.52161" ry="1.52562" fill="#E3FAFF" fill-opacity="0.29"/>
<ellipse cx="166.927" cy="32.3542" rx="1.52165" ry="1.52562" fill="#E3FAFF" fill-opacity="0.29"/>
<ellipse cx="354.598" cy="21.7239" rx="1.52165" ry="1.52562" fill="#E3FAFF" fill-opacity="0.29"/>
<ellipse cx="215.567" cy="140.078" rx="1.52164" ry="1.52563" fill="#E3FAFF" fill-opacity="0.29"/>
<ellipse cx="1451.14" cy="137.028" rx="1.52161" ry="1.52563" fill="#E3FAFF" fill-opacity="0.29"/>
<ellipse cx="926.682" cy="294.675" rx="1.52161" ry="1.52562" fill="#E3FAFF" fill-opacity="0.29"/>
<ellipse cx="364.688" cy="251.957" rx="1.52165" ry="1.52562" fill="#E3FAFF" fill-opacity="0.29"/>
<ellipse cx="1215.29" cy="191.441" rx="3.04333" ry="3.05125" fill="#E3FAFF" fill-opacity="0.29"/>
<ellipse cx="690.827" cy="349.089" rx="3.0433" ry="3.05124" fill="#E3FAFF" fill-opacity="0.29"/>
<ellipse cx="128.832" cy="306.371" rx="3.04329" ry="3.05124" fill="#E3FAFF" fill-opacity="0.29"/>
<ellipse cx="1293.4" cy="437.575" rx="3.04327" ry="3.05122" fill="#E3FAFF" fill-opacity="0.29"/>
<ellipse cx="504.171" cy="182.288" rx="3.04329" ry="3.05125" fill="#E3FAFF" fill-opacity="0.29"/>
<ellipse cx="1392.81" cy="332.816" rx="3.04327" ry="3.05124" fill="#E3FAFF" fill-opacity="0.29"/>
<ellipse cx="1470.92" cy="578.949" rx="3.04333" ry="3.05124" fill="#E3FAFF" fill-opacity="0.29"/>
<ellipse cx="1339.05" cy="102.955" rx="3.04333" ry="3.05125" fill="#E3FAFF" fill-opacity="0.29"/>
<ellipse cx="814.587" cy="260.603" rx="3.04327" ry="3.05124" fill="#E3FAFF" fill-opacity="0.29"/>
<ellipse cx="477.404" cy="183.098" rx="3.04329" ry="3.05125" fill="#E3FAFF" fill-opacity="0.29"/>
<ellipse cx="252.593" cy="217.885" rx="3.0433" ry="3.05125" fill="#E3FAFF" fill-opacity="0.29"/>
<ellipse cx="1417.16" cy="349.089" rx="3.04327" ry="3.05124" fill="#E3FAFF" fill-opacity="0.29"/>
<ellipse cx="627.932" cy="93.8012" rx="3.04327" ry="3.05124" fill="#E3FAFF" fill-opacity="0.29"/>
<ellipse cx="892.699" cy="109.057" rx="3.04327" ry="3.05125" fill="#E3FAFF" fill-opacity="0.29"/>
<ellipse cx="970.809" cy="355.191" rx="3.04327" ry="3.05124" fill="#E3FAFF" fill-opacity="0.29"/>
<ellipse cx="181.583" cy="99.9038" rx="3.04329" ry="3.05125" fill="#E3FAFF" fill-opacity="0.29"/>
<ellipse cx="897.264" cy="182.796" rx="1.52164" ry="1.52563" fill="#E3FAFF" fill-opacity="0.29"/>
<ellipse cx="881.359" cy="290.165" rx="1.52161" ry="1.52563" fill="#E3FAFF" fill-opacity="0.29"/>
<ellipse cx="651.276" cy="149.841" rx="1.52164" ry="1.52561" fill="#E3FAFF" fill-opacity="0.29"/>
<ellipse cx="689.446" cy="86.0574" rx="1.52167" ry="1.52562" fill="#E3FAFF" fill-opacity="0.29"/>
<ellipse rx="1.52389" ry="1.52339" transform="matrix(-0.660705 -0.750646 0.748936 -0.662642 796.5 243.384)" fill="#E3FAFF" fill-opacity="0.29"/>
<ellipse rx="1.43375" ry="1.43328" transform="matrix(-0.660706 -0.750645 0.748937 -0.662641 881.269 204.369)" fill="#E3FAFF" fill-opacity="0.29"/>
<ellipse cx="975.374" cy="428.93" rx="1.52161" ry="1.52562" fill="#E3FAFF" fill-opacity="0.29"/>
<ellipse cx="826.427" cy="75.7673" rx="1.52164" ry="1.52562" fill="#E3FAFF" fill-opacity="0.29"/>
<ellipse cx="461.134" cy="72.8044" rx="1.52164" ry="1.52562" fill="#E3FAFF" fill-opacity="0.29"/>
<ellipse cx="90.0329" cy="58.9846" rx="1.52164" ry="1.52562" fill="#E3FAFF" fill-opacity="0.29"/>
<ellipse cx="277.704" cy="48.3542" rx="1.52165" ry="1.52562" fill="#E3FAFF" fill-opacity="0.29"/>
<ellipse cx="186.148" cy="173.642" rx="1.52164" ry="1.52562" fill="#E3FAFF" fill-opacity="0.29"/>
<ellipse cx="1421.72" cy="170.591" rx="1.52167" ry="1.52562" fill="#E3FAFF" fill-opacity="0.29"/>
<ellipse cx="897.264" cy="328.239" rx="1.52164" ry="1.52563" fill="#E3FAFF" fill-opacity="0.29"/>
<ellipse cx="335.269" cy="285.521" rx="1.52165" ry="1.52562" fill="#E3FAFF" fill-opacity="0.29"/>
<ellipse cx="1499.83" cy="416.724" rx="1.52167" ry="1.52562" fill="#E3FAFF" fill-opacity="0.29"/>
</svg>
