<svg width="1440" height="543" viewBox="0 0 1440 543" fill="none" xmlns="http://www.w3.org/2000/svg">
<circle cx="963.445" cy="469.763" r="1.9135" fill="#CDF6FF" fill-opacity="0.21"/>
<circle cx="937.613" cy="365.478" r="2.87024" fill="#CDF6FF" fill-opacity="0.21"/>
<circle cx="1020.5" cy="409.5" r="1.5" fill="#CDF6FF" fill-opacity="0.21"/>
<circle cx="880.022" cy="77.2871" r="1.5" fill="#CDF6FF" fill-opacity="0.21"/>
<circle cx="535.5" cy="74.5" r="1.5" fill="#CDF6FF" fill-opacity="0.21"/>
<circle cx="185.5" cy="61.5" r="1.5" fill="#CDF6FF" fill-opacity="0.21"/>
<circle cx="362.5" cy="51.5" r="1.5" fill="#CDF6FF" fill-opacity="0.21"/>
<circle cx="1397.34" cy="87.7079" r="1.9135" fill="#CDF6FF" fill-opacity="0.21"/>
<circle cx="987.339" cy="229.708" r="1.9135" fill="#CDF6FF" fill-opacity="0.21"/>
<path d="M1110.39 428.145C1110.39 429.466 1109.32 430.537 1108 430.537C1106.68 430.537 1105.61 429.466 1105.61 428.145C1105.61 426.824 1106.68 425.753 1108 425.753C1109.32 425.753 1110.39 426.824 1110.39 428.145Z" fill="#CDF6FF" fill-opacity="0.21"/>
<circle cx="894.56" cy="450.628" r="1.9135" fill="#CDF6FF" fill-opacity="0.21"/>
<circle cx="951.008" cy="390.353" r="1.9135" fill="#CDF6FF" fill-opacity="0.21"/>
<circle cx="810.529" cy="58.1405" r="1.9135" fill="#CDF6FF" fill-opacity="0.21"/>
<circle cx="466.008" cy="55.3534" r="1.9135" fill="#CDF6FF" fill-opacity="0.21"/>
<circle cx="116.008" cy="42.3534" r="1.9135" fill="#CDF6FF" fill-opacity="0.21"/>
<circle cx="293.008" cy="32.3534" r="1.9135" fill="#CDF6FF" fill-opacity="0.21"/>
<circle cx="1328.45" cy="68.5727" r="1.9135" fill="#CDF6FF" fill-opacity="0.21"/>
<circle cx="918.453" cy="210.573" r="1.9135" fill="#CDF6FF" fill-opacity="0.21"/>
<circle cx="1055" cy="459" r="1" fill="#CDF6FF" fill-opacity="0.21"/>
<circle cx="914.522" cy="126.787" r="1" fill="#CDF6FF" fill-opacity="0.21"/>
<circle cx="570" cy="124" r="1" fill="#CDF6FF" fill-opacity="0.21"/>
<circle cx="220" cy="111" r="1" fill="#CDF6FF" fill-opacity="0.21"/>
<circle cx="397" cy="101" r="1" fill="#CDF6FF" fill-opacity="0.21"/>
<circle cx="899.522" cy="227.787" r="1" fill="#CDF6FF" fill-opacity="0.21"/>
<circle cx="682.522" cy="95.7871" r="1" fill="#CDF6FF" fill-opacity="0.21"/>
<circle cx="718.522" cy="35.7871" r="1" fill="#CDF6FF" fill-opacity="0.21"/>
<circle cx="374" cy="33" r="1" fill="#CDF6FF" fill-opacity="0.21"/>
<circle cx="24" cy="20" r="1" fill="#CDF6FF" fill-opacity="0.21"/>
<circle cx="201" cy="10" r="1" fill="#CDF6FF" fill-opacity="0.21"/>
<circle cx="675.917" cy="199.329" r="1" transform="rotate(-131.428 675.917 199.329)" fill="#CDF6FF" fill-opacity="0.21"/>
<circle cx="357.906" cy="126.423" r="1" transform="rotate(-131.428 357.906 126.423)" fill="#CDF6FF" fill-opacity="0.21"/>
<circle cx="760.319" cy="164.084" r="0.940848" transform="rotate(-131.428 760.319 164.084)" fill="#CDF6FF" fill-opacity="0.21"/>
<circle cx="415.797" cy="161.297" r="0.940848" transform="rotate(-131.428 415.797 161.297)" fill="#CDF6FF" fill-opacity="0.21"/>
<circle cx="65.7973" cy="148.297" r="0.940848" transform="rotate(-131.428 65.7973 148.297)" fill="#CDF6FF" fill-opacity="0.21"/>
<circle cx="242.797" cy="138.297" r="0.940848" transform="rotate(-131.428 242.797 138.297)" fill="#CDF6FF" fill-opacity="0.21"/>
<circle cx="973.013" cy="433.407" r="1.9135" fill="#CDF6FF" fill-opacity="0.21"/>
<circle cx="987" cy="443" r="2" fill="#CDF6FF" fill-opacity="0.21"/>
<circle cx="1016.07" cy="466.893" r="2.87024" fill="#CDF6FF" fill-opacity="0.21"/>
<circle cx="901.257" cy="404.704" r="1.9135" fill="#CDF6FF" fill-opacity="0.21"/>
<circle cx="1279.09" cy="81.6519" r="2" fill="#CDF6FF" fill-opacity="0.21"/>
<circle cx="869.094" cy="223.652" r="2" fill="#CDF6FF" fill-opacity="0.21"/>
<ellipse cx="912.738" cy="425.275" rx="2.87024" ry="2.39187" fill="#CDF6FF" fill-opacity="0.21"/>
<circle cx="1034.96" cy="468.957" r="0.956748" fill="#CDF6FF" fill-opacity="0.21"/>
<circle cx="894.478" cy="136.744" r="0.956748" fill="#CDF6FF" fill-opacity="0.21"/>
<circle cx="549.957" cy="133.957" r="0.956748" fill="#CDF6FF" fill-opacity="0.21"/>
<circle cx="199.957" cy="120.957" r="0.956748" fill="#CDF6FF" fill-opacity="0.21"/>
<circle cx="376.957" cy="110.957" r="0.956748" fill="#CDF6FF" fill-opacity="0.21"/>
<circle cx="879.478" cy="237.744" r="0.956748" fill="#CDF6FF" fill-opacity="0.21"/>
<circle cx="662.478" cy="105.744" r="0.956748" fill="#CDF6FF" fill-opacity="0.21"/>
<circle cx="698.478" cy="45.7439" r="0.956748" fill="#CDF6FF" fill-opacity="0.21"/>
<circle cx="353.957" cy="42.9567" r="0.956748" fill="#CDF6FF" fill-opacity="0.21"/>
<circle cx="3.95675" cy="29.9567" r="0.956748" fill="#CDF6FF" fill-opacity="0.21"/>
<circle cx="180.957" cy="19.9567" r="0.956748" fill="#CDF6FF" fill-opacity="0.21"/>
<circle cx="696.644" cy="207.77" r="0.956748" transform="rotate(-131.428 696.644 207.77)" fill="#CDF6FF" fill-opacity="0.21"/>
<circle cx="779.821" cy="172.025" r="0.900154" transform="rotate(-131.428 779.821 172.025)" fill="#CDF6FF" fill-opacity="0.21"/>
<circle cx="1029" cy="362" r="1" fill="#CDF6FF" fill-opacity="0.21"/>
<circle cx="888.522" cy="29.7871" r="1" fill="#CDF6FF" fill-opacity="0.21"/>
<circle cx="1015.39" cy="344.392" r="2.39187" fill="#CDF6FF" fill-opacity="0.21"/>
<circle cx="1082.56" cy="406.14" r="1.43512" fill="#CDF6FF" fill-opacity="0.21"/>
<circle cx="942.082" cy="73.9268" r="1.43512" fill="#CDF6FF" fill-opacity="0.21"/>
<circle cx="951.964" cy="358.781" r="1.9135" fill="#CDF6FF" fill-opacity="0.21"/>
<circle cx="811.486" cy="26.5678" r="1.9135" fill="#CDF6FF" fill-opacity="0.21"/>
<circle cx="1053.38" cy="439.148" r="1.9135" fill="#CDF6FF" fill-opacity="0.21"/>
<circle cx="1430.83" cy="117.367" r="1.9135" fill="#CDF6FF" fill-opacity="0.21"/>
<circle cx="1020.83" cy="259.367" r="1.9135" fill="#CDF6FF" fill-opacity="0.21"/>
<circle cx="1091.65" cy="126.291" r="2.87024" fill="#CDF6FF" fill-opacity="0.21"/>
<circle cx="597.011" cy="274.587" r="2.87024" fill="#CDF6FF" fill-opacity="0.21"/>
<circle cx="66.9724" cy="234.403" r="2.87024" fill="#CDF6FF" fill-opacity="0.21"/>
<circle cx="1165.32" cy="357.824" r="2.87024" fill="#CDF6FF" fill-opacity="0.21"/>
<circle cx="420.969" cy="117.68" r="2.87024" fill="#CDF6FF" fill-opacity="0.21"/>
<circle cx="1122.74" cy="186.088" r="4.30537" fill="#CDF6FF" fill-opacity="0.21"/>
<circle cx="628.105" cy="334.383" r="4.30537" fill="#CDF6FF" fill-opacity="0.21"/>
<circle cx="98.0667" cy="294.2" r="4.30537" fill="#CDF6FF" fill-opacity="0.21"/>
<circle cx="1196.41" cy="417.621" r="4.30537" fill="#CDF6FF" fill-opacity="0.21"/>
<circle cx="1259.08" cy="259.279" r="2.87024" fill="#CDF6FF" fill-opacity="0.21"/>
<circle cx="764.442" cy="407.575" r="2.87024" fill="#CDF6FF" fill-opacity="0.21"/>
<circle cx="234.403" cy="367.391" r="2.87024" fill="#CDF6FF" fill-opacity="0.21"/>
<circle cx="1332.75" cy="490.812" r="2.87024" fill="#CDF6FF" fill-opacity="0.21"/>
<circle cx="1208.37" cy="43.0538" r="2.87024" fill="#CDF6FF" fill-opacity="0.21"/>
<circle cx="713.734" cy="191.35" r="2.87024" fill="#CDF6FF" fill-opacity="0.21"/>
<circle cx="395.723" cy="118.443" r="2.87024" fill="#CDF6FF" fill-opacity="0.21"/>
<circle cx="183.696" cy="151.166" r="2.87024" fill="#CDF6FF" fill-opacity="0.21"/>
<circle cx="1282.04" cy="274.587" r="2.87024" fill="#CDF6FF" fill-opacity="0.21"/>
<circle cx="787.404" cy="422.883" r="2.87024" fill="#CDF6FF" fill-opacity="0.21"/>
<circle cx="257.365" cy="382.699" r="2.87024" fill="#CDF6FF" fill-opacity="0.21"/>
<circle cx="537.692" cy="34.443" r="2.87024" fill="#CDF6FF" fill-opacity="0.21"/>
<circle cx="1292.09" cy="65.5373" r="4.30537" fill="#CDF6FF" fill-opacity="0.21"/>
<circle cx="797.45" cy="213.833" r="4.30537" fill="#CDF6FF" fill-opacity="0.21"/>
<circle cx="479.439" cy="140.926" r="4.30537" fill="#CDF6FF" fill-opacity="0.21"/>
<circle cx="267.411" cy="173.65" r="4.30537" fill="#CDF6FF" fill-opacity="0.21"/>
<circle cx="1365.76" cy="297.07" r="4.30537" fill="#CDF6FF" fill-opacity="0.21"/>
<circle cx="621.408" cy="56.9269" r="4.30537" fill="#CDF6FF" fill-opacity="0.21"/>
<circle cx="787.404" cy="48.7946" r="2.87024" fill="#CDF6FF" fill-opacity="0.21"/>
<circle cx="117.87" cy="28.8702" r="2.87024" fill="#CDF6FF" fill-opacity="0.21"/>
<circle cx="815" cy="139" r="2" fill="#CDF6FF" fill-opacity="0.21"/>
<ellipse cx="1251.44" cy="38.9135" rx="1.43512" ry="1.9135" fill="#CDF6FF" fill-opacity="0.21"/>
<circle cx="832.5" cy="169.5" r="1.5" fill="#CDF6FF" fill-opacity="0.21"/>
<ellipse cx="826.435" cy="281.913" rx="1.43512" ry="1.9135" fill="#CDF6FF" fill-opacity="0.21"/>
<circle cx="610" cy="150" r="2" fill="#CDF6FF" fill-opacity="0.21"/>
<ellipse cx="645.435" cy="89.9135" rx="1.43512" ry="1.9135" fill="#CDF6FF" fill-opacity="0.21"/>
<ellipse cx="764.86" cy="218.315" rx="1.43512" ry="1.9135" transform="rotate(-131.428 764.86 218.315)" fill="#CDF6FF" fill-opacity="0.21"/>
<ellipse cx="855" cy="182" rx="2" ry="2" transform="rotate(-90 855 182)" fill="#CDF6FF" fill-opacity="0.21"/>
<ellipse cx="143.991" cy="130.118" rx="1.43512" ry="1.9135" fill="#CDF6FF" fill-opacity="0.21"/>
<ellipse cx="1309.31" cy="127.247" rx="1.43512" ry="1.9135" fill="#CDF6FF" fill-opacity="0.21"/>
<ellipse cx="814.671" cy="275.543" rx="1.43512" ry="1.9135" fill="#CDF6FF" fill-opacity="0.21"/>
<ellipse cx="284.633" cy="235.36" rx="1.43512" ry="1.9135" fill="#CDF6FF" fill-opacity="0.21"/>
<ellipse cx="1382.98" cy="358.781" rx="1.43512" ry="1.9135" fill="#CDF6FF" fill-opacity="0.21"/>
<circle cx="977.797" cy="94.7179" r="2.87024" fill="#CDF6FF" fill-opacity="0.21"/>
<circle cx="1051.47" cy="326.251" r="2.87024" fill="#CDF6FF" fill-opacity="0.21"/>
<circle cx="307.116" cy="86.1071" r="2.87024" fill="#CDF6FF" fill-opacity="0.21"/>
<circle cx="958.183" cy="140.164" r="4.30537" fill="#CDF6FF" fill-opacity="0.21"/>
<circle cx="1031.85" cy="371.696" r="4.30537" fill="#CDF6FF" fill-opacity="0.21"/>
<circle cx="287.503" cy="131.553" r="4.30537" fill="#CDF6FF" fill-opacity="0.21"/>
<circle cx="1145.23" cy="227.706" r="2.87024" fill="#CDF6FF" fill-opacity="0.21"/>
<circle cx="650.589" cy="376.002" r="2.87024" fill="#CDF6FF" fill-opacity="0.21"/>
<circle cx="120.55" cy="335.818" r="2.87024" fill="#CDF6FF" fill-opacity="0.21"/>
<circle cx="1218.9" cy="459.239" r="2.87024" fill="#CDF6FF" fill-opacity="0.21"/>
<circle cx="1094.52" cy="11.4811" r="2.87024" fill="#CDF6FF" fill-opacity="0.21"/>
<circle cx="599.881" cy="159.777" r="2.87024" fill="#CDF6FF" fill-opacity="0.21"/>
<circle cx="281.87" cy="86.8702" r="2.87024" fill="#CDF6FF" fill-opacity="0.21"/>
<circle cx="69.8426" cy="119.593" r="2.87024" fill="#CDF6FF" fill-opacity="0.21"/>
<circle cx="38.5743" cy="43.2623" r="2.87024" transform="rotate(73.2891 38.5743 43.2623)" fill="#CDF6FF" fill-opacity="0.21"/>
<circle cx="1168.19" cy="243.014" r="2.87024" fill="#CDF6FF" fill-opacity="0.21"/>
<circle cx="673.551" cy="391.31" r="2.87024" fill="#CDF6FF" fill-opacity="0.21"/>
<circle cx="143.512" cy="351.127" r="2.87024" fill="#CDF6FF" fill-opacity="0.21"/>
<circle cx="423.839" cy="2.87024" r="2.87024" fill="#CDF6FF" fill-opacity="0.21"/>
<circle cx="673.551" cy="17.2213" r="2.87024" fill="#CDF6FF" fill-opacity="0.21"/>
<circle cx="2.87024" cy="8.61097" r="2.87024" fill="#CDF6FF" fill-opacity="0.21"/>
<circle cx="748.656" cy="120.072" r="1.43512" fill="#CDF6FF" fill-opacity="0.21"/>
<circle cx="404.134" cy="117.285" r="1.43512" fill="#CDF6FF" fill-opacity="0.21"/>
<circle cx="54.1339" cy="104.285" r="1.43512" fill="#CDF6FF" fill-opacity="0.21"/>
<circle cx="48.7195" cy="23.815" r="1.43512" transform="rotate(73.2891 48.7195 23.815)" fill="#CDF6FF" fill-opacity="0.21"/>
<circle cx="231.134" cy="94.2847" r="1.43512" fill="#CDF6FF" fill-opacity="0.21"/>
<circle cx="77.9749" cy="111.461" r="1.43512" fill="#CDF6FF" fill-opacity="0.21"/>
<circle cx="1243.29" cy="108.591" r="1.43512" fill="#CDF6FF" fill-opacity="0.21"/>
<circle cx="1312.29" cy="19.5909" r="1.43512" fill="#CDF6FF" fill-opacity="0.21"/>
<circle cx="1147.29" cy="65.5909" r="1.43512" fill="#CDF6FF" fill-opacity="0.21"/>
<circle cx="1058.29" cy="17.5909" r="1.43512" fill="#CDF6FF" fill-opacity="0.21"/>
<circle cx="1029.29" cy="116.591" r="1.43512" fill="#CDF6FF" fill-opacity="0.21"/>
<circle cx="748.656" cy="256.887" r="1.43512" fill="#CDF6FF" fill-opacity="0.21"/>
<circle cx="430.645" cy="183.98" r="1.43512" fill="#CDF6FF" fill-opacity="0.21"/>
<circle cx="218.617" cy="216.703" r="1.43512" fill="#CDF6FF" fill-opacity="0.21"/>
<circle cx="1316.96" cy="340.124" r="1.43512" fill="#CDF6FF" fill-opacity="0.21"/>
<circle cx="572.614" cy="99.98" r="1.43512" fill="#CDF6FF" fill-opacity="0.21"/>
<circle cx="1013.2" cy="165.518" r="2.87024" fill="#CDF6FF" fill-opacity="0.21"/>
<circle cx="1086.87" cy="397.05" r="2.87024" fill="#CDF6FF" fill-opacity="0.21"/>
<circle cx="342.516" cy="156.907" r="2.87024" fill="#CDF6FF" fill-opacity="0.21"/>
<circle cx="1180.63" cy="298.505" r="2.87024" fill="#CDF6FF" fill-opacity="0.21"/>
<circle cx="1254.3" cy="530.039" r="2.87024" fill="#CDF6FF" fill-opacity="0.21"/>
<circle cx="1129.92" cy="82.2804" r="2.87024" fill="#CDF6FF" fill-opacity="0.21"/>
<circle cx="635.281" cy="230.576" r="2.87024" fill="#CDF6FF" fill-opacity="0.21"/>
<circle cx="317.27" cy="157.67" r="2.87024" fill="#CDF6FF" fill-opacity="0.21"/>
<circle cx="105.242" cy="190.393" r="2.87024" fill="#CDF6FF" fill-opacity="0.21"/>
<circle cx="1203.59" cy="313.814" r="2.87024" fill="#CDF6FF" fill-opacity="0.21"/>
<circle cx="459.239" cy="73.6696" r="2.87024" fill="#CDF6FF" fill-opacity="0.21"/>
<circle cx="1178.24" cy="121.986" r="4.30537" fill="#CDF6FF" fill-opacity="0.21"/>
<circle cx="683.597" cy="270.281" r="4.30537" fill="#CDF6FF" fill-opacity="0.21"/>
<circle cx="365.586" cy="197.375" r="4.30537" fill="#CDF6FF" fill-opacity="0.21"/>
<circle cx="153.558" cy="230.098" r="4.30537" fill="#CDF6FF" fill-opacity="0.21"/>
<circle cx="1251.91" cy="353.518" r="4.30537" fill="#CDF6FF" fill-opacity="0.21"/>
<circle cx="507.555" cy="113.375" r="4.30537" fill="#CDF6FF" fill-opacity="0.21"/>
<circle cx="708.95" cy="88.0206" r="2.87024" fill="#CDF6FF" fill-opacity="0.21"/>
<circle cx="38.2699" cy="79.4098" r="2.87024" fill="#CDF6FF" fill-opacity="0.21"/>
<circle cx="769" cy="161" r="2" fill="#CDF6FF" fill-opacity="0.21"/>
<ellipse cx="98.545" cy="152.602" rx="1.9135" ry="1.43512" fill="#CDF6FF" fill-opacity="0.21"/>
<ellipse cx="1263.86" cy="149.731" rx="1.9135" ry="1.43512" fill="#CDF6FF" fill-opacity="0.21"/>
<ellipse cx="769.226" cy="298.027" rx="1.9135" ry="1.43512" fill="#CDF6FF" fill-opacity="0.21"/>
<ellipse cx="239.187" cy="257.844" rx="1.9135" ry="1.43512" fill="#CDF6FF" fill-opacity="0.21"/>
<ellipse cx="1337.53" cy="381.264" rx="1.9135" ry="1.43512" fill="#CDF6FF" fill-opacity="0.21"/>
<circle cx="581" cy="141" r="2" fill="#CDF6FF" fill-opacity="0.21"/>
<circle cx="895.516" cy="117.68" r="2.87024" fill="#CDF6FF" fill-opacity="0.21"/>
<circle cx="969.186" cy="349.213" r="2.87024" fill="#CDF6FF" fill-opacity="0.21"/>
<circle cx="224.836" cy="109.069" r="2.87024" fill="#CDF6FF" fill-opacity="0.21"/>
<circle cx="1062.95" cy="250.668" r="2.87024" fill="#CDF6FF" fill-opacity="0.21"/>
<circle cx="568.308" cy="398.964" r="2.87024" fill="#CDF6FF" fill-opacity="0.21"/>
<circle cx="38.2699" cy="358.78" r="2.87024" fill="#CDF6FF" fill-opacity="0.21"/>
<circle cx="1136.62" cy="482.201" r="2.87024" fill="#CDF6FF" fill-opacity="0.21"/>
<circle cx="1012.24" cy="34.443" r="2.87024" fill="#CDF6FF" fill-opacity="0.21"/>
<circle cx="1085.91" cy="265.976" r="2.87024" fill="#CDF6FF" fill-opacity="0.21"/>
<circle cx="591.27" cy="414.272" r="2.87024" fill="#CDF6FF" fill-opacity="0.21"/>
<circle cx="61.2318" cy="374.089" r="2.87024" fill="#CDF6FF" fill-opacity="0.21"/>
<circle cx="341.559" cy="25.8322" r="2.87024" fill="#CDF6FF" fill-opacity="0.21"/>
<circle cx="1007.93" cy="53.0998" r="4.30537" fill="#CDF6FF" fill-opacity="0.21"/>
<circle cx="1031" cy="92" r="3" fill="#CDF6FF" fill-opacity="0.21"/>
<circle cx="1081.6" cy="284.633" r="4.30537" fill="#CDF6FF" fill-opacity="0.21"/>
<circle cx="586.965" cy="432.929" r="4.30537" fill="#CDF6FF" fill-opacity="0.21"/>
<circle cx="56.9265" cy="392.745" r="4.30537" fill="#CDF6FF" fill-opacity="0.21"/>
<circle cx="337.254" cy="44.489" r="4.30537" fill="#CDF6FF" fill-opacity="0.21"/>
<circle cx="591.27" cy="40.1837" r="2.87024" fill="#CDF6FF" fill-opacity="0.21"/>
<circle cx="700.818" cy="133.466" r="1.43512" fill="#CDF6FF" fill-opacity="0.21"/>
<circle cx="30.1375" cy="124.856" r="1.43512" fill="#CDF6FF" fill-opacity="0.21"/>
<circle cx="1195.46" cy="121.985" r="1.43512" fill="#CDF6FF" fill-opacity="0.21"/>
<circle cx="1264.46" cy="32.9854" r="1.43512" fill="#CDF6FF" fill-opacity="0.21"/>
<circle cx="1099.46" cy="78.9854" r="1.43512" fill="#CDF6FF" fill-opacity="0.21"/>
<circle cx="992.435" cy="33.4351" r="1.43512" fill="#CDF6FF" fill-opacity="0.21"/>
<circle cx="981.457" cy="129.985" r="1.43512" fill="#CDF6FF" fill-opacity="0.21"/>
<circle cx="966.457" cy="230.985" r="1.43512" fill="#CDF6FF" fill-opacity="0.21"/>
<circle cx="749.457" cy="98.9854" r="1.43512" fill="#CDF6FF" fill-opacity="0.21"/>
<circle cx="785.457" cy="38.9854" r="1.43512" fill="#CDF6FF" fill-opacity="0.21"/>
<circle cx="440.935" cy="36.1983" r="1.43512" fill="#CDF6FF" fill-opacity="0.21"/>
<circle cx="90.9352" cy="23.1983" r="1.43512" fill="#CDF6FF" fill-opacity="0.21"/>
<circle cx="267.935" cy="13.1983" r="1.43512" fill="#CDF6FF" fill-opacity="0.21"/>
<circle cx="634.026" cy="147.026" r="1.43512" transform="rotate(-131.428 634.026 147.026)" fill="#CDF6FF" fill-opacity="0.21"/>
<circle cx="720.906" cy="114.874" r="1.35023" transform="rotate(-131.428 720.906 114.874)" fill="#CDF6FF" fill-opacity="0.21"/>
<circle cx="1073.44" cy="139.435" r="1.43512" fill="#CDF6FF" fill-opacity="0.21"/>
<circle cx="1142.44" cy="50.4351" r="1.43512" fill="#CDF6FF" fill-opacity="0.21"/>
<circle cx="977.435" cy="96.4351" r="1.43512" fill="#CDF6FF" fill-opacity="0.21"/>
<circle cx="888.435" cy="48.4351" r="1.43512" fill="#CDF6FF" fill-opacity="0.21"/>
<circle cx="859.435" cy="147.435" r="1.43512" fill="#CDF6FF" fill-opacity="0.21"/>
<circle cx="514.913" cy="144.648" r="1.43512" fill="#CDF6FF" fill-opacity="0.21"/>
<circle cx="164.913" cy="131.648" r="1.43512" fill="#CDF6FF" fill-opacity="0.21"/>
<circle cx="341.913" cy="121.648" r="1.43512" fill="#CDF6FF" fill-opacity="0.21"/>
<circle cx="844.435" cy="248.435" r="1.43512" fill="#CDF6FF" fill-opacity="0.21"/>
<circle cx="627.435" cy="116.435" r="1.43512" fill="#CDF6FF" fill-opacity="0.21"/>
<circle cx="663.435" cy="56.4351" r="1.43512" fill="#CDF6FF" fill-opacity="0.21"/>
<circle cx="727.848" cy="226.97" r="1.43512" transform="rotate(-131.428 727.848 226.97)" fill="#CDF6FF" fill-opacity="0.21"/>
<circle cx="409.837" cy="154.064" r="1.43512" transform="rotate(-131.428 409.837 154.064)" fill="#CDF6FF" fill-opacity="0.21"/>
<circle cx="809.178" cy="190.09" r="1.35023" transform="rotate(-131.428 809.178 190.09)" fill="#CDF6FF" fill-opacity="0.21"/>
<circle cx="1116.44" cy="148.435" r="1.43512" fill="#CDF6FF" fill-opacity="0.21"/>
<circle cx="1185.44" cy="59.4351" r="1.43512" fill="#CDF6FF" fill-opacity="0.21"/>
<circle cx="1020.44" cy="105.435" r="1.43512" fill="#CDF6FF" fill-opacity="0.21"/>
<circle cx="931.435" cy="57.4351" r="1.43512" fill="#CDF6FF" fill-opacity="0.21"/>
<circle cx="902.435" cy="156.435" r="1.43512" fill="#CDF6FF" fill-opacity="0.21"/>
<circle cx="1156.44" cy="118.435" r="1.43512" fill="#CDF6FF" fill-opacity="0.21"/>
<circle cx="1225.44" cy="29.4351" r="1.43512" fill="#CDF6FF" fill-opacity="0.21"/>
<circle cx="1060.44" cy="75.4351" r="1.43512" fill="#CDF6FF" fill-opacity="0.21"/>
<circle cx="971.435" cy="27.4351" r="1.43512" fill="#CDF6FF" fill-opacity="0.21"/>
<circle cx="942.435" cy="126.435" r="1.43512" fill="#CDF6FF" fill-opacity="0.21"/>
<circle cx="1177.44" cy="106.435" r="1.43512" fill="#CDF6FF" fill-opacity="0.21"/>
<circle cx="1246.44" cy="17.4351" r="1.43512" fill="#CDF6FF" fill-opacity="0.21"/>
<circle cx="1081.44" cy="63.4351" r="1.43512" fill="#CDF6FF" fill-opacity="0.21"/>
<circle cx="992.435" cy="15.4351" r="1.43512" fill="#CDF6FF" fill-opacity="0.21"/>
<circle cx="963.435" cy="114.435" r="1.43512" fill="#CDF6FF" fill-opacity="0.21"/>
<circle cx="948.435" cy="215.435" r="1.43512" fill="#CDF6FF" fill-opacity="0.21"/>
<circle cx="731.435" cy="83.4351" r="1.43512" fill="#CDF6FF" fill-opacity="0.21"/>
<circle cx="386.913" cy="80.648" r="1.43512" fill="#CDF6FF" fill-opacity="0.21"/>
<circle cx="36.9135" cy="67.648" r="1.43512" fill="#CDF6FF" fill-opacity="0.21"/>
<circle cx="213.913" cy="57.648" r="1.43512" fill="#CDF6FF" fill-opacity="0.21"/>
<circle cx="767.435" cy="23.4351" r="1.43512" fill="#CDF6FF" fill-opacity="0.21"/>
<circle cx="634.291" cy="170.827" r="1.43512" transform="rotate(-131.428 634.291 170.827)" fill="#CDF6FF" fill-opacity="0.21"/>
<circle cx="721.155" cy="137.268" r="1.35023" transform="rotate(-131.428 721.155 137.268)" fill="#CDF6FF" fill-opacity="0.21"/>
<circle cx="376.634" cy="134.481" r="1.35023" transform="rotate(-131.428 376.634 134.481)" fill="#CDF6FF" fill-opacity="0.21"/>
<circle cx="26.6335" cy="121.481" r="1.35023" transform="rotate(-131.428 26.6335 121.481)" fill="#CDF6FF" fill-opacity="0.21"/>
<circle cx="203.633" cy="111.481" r="1.35023" transform="rotate(-131.428 203.633 111.481)" fill="#CDF6FF" fill-opacity="0.21"/>
<circle cx="1149.44" cy="138.435" r="1.43512" fill="#CDF6FF" fill-opacity="0.21"/>
<circle cx="1218.44" cy="49.4351" r="1.43512" fill="#CDF6FF" fill-opacity="0.21"/>
<circle cx="1053.44" cy="95.4351" r="1.43512" fill="#CDF6FF" fill-opacity="0.21"/>
<circle cx="964.435" cy="47.4351" r="1.43512" fill="#CDF6FF" fill-opacity="0.21"/>
<circle cx="935.435" cy="146.435" r="1.43512" fill="#CDF6FF" fill-opacity="0.21"/>
<circle cx="920.435" cy="247.435" r="1.43512" fill="#CDF6FF" fill-opacity="0.21"/>
<circle cx="703.435" cy="115.435" r="1.43512" fill="#CDF6FF" fill-opacity="0.21"/>
<circle cx="739.435" cy="55.4351" r="1.43512" fill="#CDF6FF" fill-opacity="0.21"/>
<circle cx="676.811" cy="170.648" r="1.43512" transform="rotate(-131.428 676.811 170.648)" fill="#CDF6FF" fill-opacity="0.21"/>
<circle cx="761.16" cy="137.1" r="1.35023" transform="rotate(-131.428 761.16 137.1)" fill="#CDF6FF" fill-opacity="0.21"/>
<circle cx="700.818" cy="270.281" r="1.43512" fill="#CDF6FF" fill-opacity="0.21"/>
<circle cx="382.807" cy="197.375" r="1.43512" fill="#CDF6FF" fill-opacity="0.21"/>
<circle cx="170.779" cy="230.098" r="1.43512" fill="#CDF6FF" fill-opacity="0.21"/>
<circle cx="1269.13" cy="353.519" r="1.43512" fill="#CDF6FF" fill-opacity="0.21"/>
<circle cx="524.776" cy="113.375" r="1.43512" fill="#CDF6FF" fill-opacity="0.21"/>
<circle cx="1273.43" cy="179.869" r="1.9135" fill="#CDF6FF" fill-opacity="0.21"/>
<circle cx="778.793" cy="328.164" r="1.9135" fill="#CDF6FF" fill-opacity="0.21"/>
<circle cx="248.755" cy="287.981" r="1.9135" fill="#CDF6FF" fill-opacity="0.21"/>
<circle cx="1347.1" cy="411.402" r="1.9135" fill="#CDF6FF" fill-opacity="0.21"/>
<circle cx="1194.87" cy="108.87" r="2.87024" fill="#CDF6FF" fill-opacity="0.21"/>
<circle cx="696.87" cy="254.87" r="2.87024" fill="#CDF6FF" fill-opacity="0.21"/>
<circle cx="378.859" cy="181.964" r="2.87024" fill="#CDF6FF" fill-opacity="0.21"/>
<circle cx="130.118" cy="228.663" r="2.87024" fill="#CDF6FF" fill-opacity="0.21"/>
<circle cx="1266.87" cy="322.87" r="2.87024" fill="#CDF6FF" fill-opacity="0.21"/>
<circle cx="1127.21" cy="19.8702" r="2.87024" fill="#CDF6FF" fill-opacity="0.21"/>
<circle cx="523.87" cy="89.8702" r="2.87024" fill="#CDF6FF" fill-opacity="0.21"/>
<ellipse cx="1271.52" cy="177.477" rx="3.82699" ry="4.30537" fill="#CDF6FF" fill-opacity="0.21"/>
<ellipse cx="776.88" cy="325.773" rx="3.82699" ry="4.30537" fill="#CDF6FF" fill-opacity="0.21"/>
<ellipse cx="246.841" cy="285.59" rx="3.82699" ry="4.30537" fill="#CDF6FF" fill-opacity="0.21"/>
<ellipse cx="1345.19" cy="409.01" rx="3.82699" ry="4.30537" fill="#CDF6FF" fill-opacity="0.21"/>
<circle cx="555" cy="178" r="4" fill="#CDF6FF" fill-opacity="0.21"/>
<circle cx="1361.45" cy="253.538" r="2.87024" fill="#CDF6FF" fill-opacity="0.21"/>
<circle cx="866.814" cy="401.834" r="2.87024" fill="#CDF6FF" fill-opacity="0.21"/>
<circle cx="336.775" cy="361.651" r="2.87024" fill="#CDF6FF" fill-opacity="0.21"/>
<circle cx="1435.12" cy="485.071" r="2.87024" fill="#CDF6FF" fill-opacity="0.21"/>
<circle cx="1310.75" cy="37.3131" r="2.87024" fill="#CDF6FF" fill-opacity="0.21"/>
<circle cx="810.87" cy="170.87" r="2.87024" fill="#CDF6FF" fill-opacity="0.21"/>
<circle cx="286.068" cy="145.426" r="2.87024" fill="#CDF6FF" fill-opacity="0.21"/>
<circle cx="1384.41" cy="268.846" r="2.87024" fill="#CDF6FF" fill-opacity="0.21"/>
<circle cx="889.776" cy="417.142" r="2.87024" fill="#CDF6FF" fill-opacity="0.21"/>
<circle cx="359.737" cy="376.959" r="2.87024" fill="#CDF6FF" fill-opacity="0.21"/>
<circle cx="889.776" cy="43.0538" r="2.87024" fill="#CDF6FF" fill-opacity="0.21"/>
<circle cx="963.445" cy="274.587" r="2.87024" fill="#CDF6FF" fill-opacity="0.21"/>
<circle cx="219.095" cy="34.443" r="2.87024" fill="#CDF6FF" fill-opacity="0.21"/>
<circle cx="873.99" cy="135.38" r="1.43512" fill="#CDF6FF" fill-opacity="0.21"/>
<circle cx="529.468" cy="132.593" r="1.43512" fill="#CDF6FF" fill-opacity="0.21"/>
<circle cx="179.468" cy="119.593" r="1.43512" fill="#CDF6FF" fill-opacity="0.21"/>
<circle cx="356.468" cy="109.593" r="1.43512" fill="#CDF6FF" fill-opacity="0.21"/>
<circle cx="992.435" cy="373.435" r="1.43512" fill="#CDF6FF" fill-opacity="0.21"/>
<circle cx="851.957" cy="41.2222" r="1.43512" fill="#CDF6FF" fill-opacity="0.21"/>
<circle cx="507.435" cy="38.4351" r="1.43512" fill="#CDF6FF" fill-opacity="0.21"/>
<circle cx="157.435" cy="25.4351" r="1.43512" fill="#CDF6FF" fill-opacity="0.21"/>
<circle cx="334.435" cy="15.4351" r="1.43512" fill="#CDF6FF" fill-opacity="0.21"/>
<circle cx="203.309" cy="126.769" r="1.43512" fill="#CDF6FF" fill-opacity="0.21"/>
<circle cx="1368.63" cy="123.899" r="1.43512" fill="#CDF6FF" fill-opacity="0.21"/>
<circle cx="873.99" cy="272.195" r="1.43512" fill="#CDF6FF" fill-opacity="0.21"/>
<circle cx="343.951" cy="232.011" r="1.43512" fill="#CDF6FF" fill-opacity="0.21"/>
<circle cx="1146.18" cy="175.085" r="2.87024" fill="#CDF6FF" fill-opacity="0.21"/>
<circle cx="651.546" cy="323.381" r="2.87024" fill="#CDF6FF" fill-opacity="0.21"/>
<circle cx="121.507" cy="283.197" r="2.87024" fill="#CDF6FF" fill-opacity="0.21"/>
<circle cx="1219.85" cy="406.618" r="2.87024" fill="#CDF6FF" fill-opacity="0.21"/>
<circle cx="475.504" cy="166.474" r="2.87024" fill="#CDF6FF" fill-opacity="0.21"/>
<circle cx="1313.62" cy="308.073" r="2.87024" fill="#CDF6FF" fill-opacity="0.21"/>
<circle cx="1387.29" cy="539.606" r="2.87024" fill="#CDF6FF" fill-opacity="0.21"/>
<circle cx="1262.91" cy="91.8478" r="2.87024" fill="#CDF6FF" fill-opacity="0.21"/>
<circle cx="768.269" cy="240.144" r="2.87024" fill="#CDF6FF" fill-opacity="0.21"/>
<circle cx="450.258" cy="167.237" r="2.87024" fill="#CDF6FF" fill-opacity="0.21"/>
<circle cx="238.23" cy="199.96" r="2.87024" fill="#CDF6FF" fill-opacity="0.21"/>
<circle cx="1336.58" cy="323.381" r="2.87024" fill="#CDF6FF" fill-opacity="0.21"/>
<circle cx="592.227" cy="83.2369" r="2.87024" fill="#CDF6FF" fill-opacity="0.21"/>
<circle cx="841.939" cy="97.588" r="2.87024" fill="#CDF6FF" fill-opacity="0.21"/>
<circle cx="915.608" cy="329.121" r="2.87024" fill="#CDF6FF" fill-opacity="0.21"/>
<circle cx="171.258" cy="88.9777" r="2.87024" fill="#CDF6FF" fill-opacity="0.21"/>
<circle cx="846.244" cy="166.953" r="1.43512" fill="#CDF6FF" fill-opacity="0.21"/>
<circle cx="831.244" cy="267.953" r="1.43512" fill="#CDF6FF" fill-opacity="0.21"/>
<circle cx="614.244" cy="135.953" r="1.43512" fill="#CDF6FF" fill-opacity="0.21"/>
<circle cx="650.244" cy="75.9527" r="1.43512" fill="#CDF6FF" fill-opacity="0.21"/>
<circle cx="751.21" cy="223.947" r="1.43512" transform="rotate(-131.428 751.21 223.947)" fill="#CDF6FF" fill-opacity="0.21"/>
<circle cx="831.159" cy="187.246" r="1.35023" transform="rotate(-131.428 831.159 187.246)" fill="#CDF6FF" fill-opacity="0.21"/>
<circle cx="919.913" cy="398.486" r="1.43512" fill="#CDF6FF" fill-opacity="0.21"/>
<circle cx="779.435" cy="66.273" r="1.43512" fill="#CDF6FF" fill-opacity="0.21"/>
<circle cx="434.913" cy="63.4859" r="1.43512" fill="#CDF6FF" fill-opacity="0.21"/>
<circle cx="84.9135" cy="50.4859" r="1.43512" fill="#CDF6FF" fill-opacity="0.21"/>
<circle cx="261.913" cy="40.4859" r="1.43512" fill="#CDF6FF" fill-opacity="0.21"/>
<circle cx="175.563" cy="158.342" r="1.43512" fill="#CDF6FF" fill-opacity="0.21"/>
<circle cx="1340.88" cy="155.472" r="1.43512" fill="#CDF6FF" fill-opacity="0.21"/>
<circle cx="846.244" cy="303.768" r="1.43512" fill="#CDF6FF" fill-opacity="0.21"/>
<circle cx="316.205" cy="263.584" r="1.43512" fill="#CDF6FF" fill-opacity="0.21"/>
<circle cx="1414.55" cy="387.004" r="1.43512" fill="#CDF6FF" fill-opacity="0.21"/>
</svg>
