<svg xmlns="http://www.w3.org/2000/svg" xmlns:xlink="http://www.w3.org/1999/xlink" viewBox="0 0 798.38 619.94"><defs><style>.cls-1,.cls-2,.cls-3{fill-opacity:0.4;}.cls-1{fill:url(#linear-gradient);}.cls-2{fill:url(#linear-gradient-2);}.cls-3{fill:url(#linear-gradient-3);}.cls-4,.cls-6{opacity:0.4;}.cls-5,.cls-6{fill:#22c3e8;}</style><linearGradient id="linear-gradient" x1="726.75" y1="392.62" x2="726.75" y2="619.94" gradientUnits="userSpaceOnUse"><stop offset="0" stop-color="#22c3e8"/><stop offset="0.92" stop-color="#1d282e" stop-opacity="0.49"/></linearGradient><linearGradient id="linear-gradient-2" x1="470.14" y1="951.87" x2="470.14" y2="662.22" gradientTransform="matrix(1, 0, 0, -1, 0, 1282)" xlink:href="#linear-gradient"/><linearGradient id="linear-gradient-3" x1="193.7" y1="1087.62" x2="193.7" y2="662.16" gradientTransform="matrix(1, 0, 0, -1, 0, 1282)" xlink:href="#linear-gradient"/></defs><g id="Layer_2" data-name="Layer 2"><g id="posts"><path class="cls-1" d="M732.52,407.31c.29,1.82.09,2.14-.95,3.67-3.71,5.47-2.11,11.87-2,17.86,1,55.51,5.71,110.87,6.72,166.38.15,8.06,1.11,16.38,1,24.72h-16.4c-.09-1.38-.28-2.81-.26-4.33.71-65.2-2.41-130.78-1.73-196,.06-2.95-1-5.9-2.44-9.1a2,2,0,0,1-.17-.93l.51-11.82c.08-3.72.23-4.15,6.14-5.06a9.2,9.2,0,0,1,3.31.08l3,.61a2.31,2.31,0,0,1,1.82,1.9Z"/><path class="cls-2" d="M478,348.67c.41,2.32.16,2.73-1.12,4.71-4.6,7.06-2.41,15.19-2.13,22.83,2.57,70.78,5.41,141.55,8,212.33.39,10.29,0,20.59,0,31.24H463.36c-.14-1.76-.42-3.59-.43-5.53q-1-124.77-2-249.52c0-3.76-1.46-7.5-3.33-11.54a2.68,2.68,0,0,1-.24-1.18l.36-15.09c0-4.76.2-5.3,7.72-6.61a12,12,0,0,1,4.23,0l3.82.7a3,3,0,0,1,2.37,2.39Z"/><path class="cls-3" d="M200.05,197.07c2.63,4.17,3.3,10.25,3,15.43-.27,8.72-.22,13.75-1.84,19a28,28,0,0,1-1.88,4.19h0a3.12,3.12,0,0,0-.71,2.13c4.86,127.42,9.73,254.3,14.65,382.06H181.78c0-16.36.1-32.61,0-48.87Q180.48,404.7,179,238.42c0-2.3-1.94-4.55-2.8-6.88a30.46,30.46,0,0,1-2-6.72c-.21-3.36,0-9.24.14-12.61l1.34-15.16c.07-.92,2.25-2.08,3.59-2.39C188.12,194.24,197,193.82,200.05,197.07Z"/></g><g id="right_blades"><g class="cls-4"><path class="cls-5" d="M759.83,508.73a.94.94,0,0,1-1-.18.71.71,0,0,1-.19-.23,31.83,31.83,0,0,1-3-5.39c-10.3-27.9-20.43-55.86-30.8-83.73-1.49-4-4.12-8.38-6.32-12.5a.79.79,0,0,1,.41-1.11l3.95-2.19a2.47,2.47,0,0,1-.44,0l-9.63-1.72c-3.2.8-6.15,1.69-9.14,2.22-2.18.39-4.57.85-6.64.33q-37.46-9.49-74.8-19.39a46.91,46.91,0,0,1-7-2.87,1,1,0,0,1-.58-1.09,1.15,1.15,0,0,1,.23-.47,1,1,0,0,1,.71-.32,31.73,31.73,0,0,1,6.17.09c29.31,5,58.59,10.24,87.92,15.2,4.17.7,9.31.62,14,.77a.8.8,0,0,1,.76.92l-.09,4.52a2.17,2.17,0,0,1,.27-.37l6.3-7.48c.91-3.17,1.61-6.16,2.65-9,.75-2.07,1.55-4.37,3-5.91q27-27.69,54.18-55.08a47.47,47.47,0,0,1,6-4.62,1,1,0,0,1,1.23.05,1,1,0,0,1,.22,1.2,32.31,32.31,0,0,1-3.17,5.3c-19,22.87-38.16,45.62-57.12,68.55-2.69,3.26-5.19,7.74-7.66,11.71a.8.8,0,0,1-1.17.2l-3.87-2.33a2.68,2.68,0,0,1,.19.42l3.32,9.2c2.29,2.36,4.53,4.46,6.49,6.79,1.42,1.69,3,3.54,3.61,5.6q10.49,37.18,20.61,74.46a48,48,0,0,1,1,7.5A1,1,0,0,1,759.83,508.73Z"/></g></g><g id="middle_blades"><g class="cls-4"><path class="cls-5" d="M593.7,415a1.26,1.26,0,0,1-1.09.64,1.21,1.21,0,0,1-.38-.06,42.23,42.23,0,0,1-7.55-2.68c-33.92-18.4-67.73-37-101.7-55.32-4.85-2.6-11.18-4.65-16.86-6.78a1,1,0,0,1-.55-1.44l2-5.51-.48.33-10.87,6.56c-2.43,3.52-4.54,6.91-7,10-1.79,2.24-3.73,4.74-6.2,6q-44.65,22.78-89.54,45.1c-2.91,1.46-6.15,2.2-9.28,3.18a1.28,1.28,0,0,1-1.67-1.22,1.23,1.23,0,0,1,.41-.92,41.4,41.4,0,0,1,6.1-5.19c32.9-20.18,65.91-40.16,98.76-60.42,4.67-2.89,9.62-7.36,14.29-11.21a1,1,0,0,1,1.53.25l3.79,4.48a2.74,2.74,0,0,1-.06-.59l-.25-12.69c-1.83-3.87-3.71-7.38-5.14-11.07-1.05-2.66-2.24-5.59-2.1-8.37Q462.44,258,465.55,208c.2-3.25,1.18-6.43,1.89-9.63a1.28,1.28,0,0,1,1.24-1,1.25,1.25,0,0,1,1.24,1,41.79,41.79,0,0,1,1.45,7.88c1,38.58,1.82,77.16,2.95,115.74.16,5.49,1.56,12,2.55,18a1,1,0,0,1-1,1.2l-5.77,1a2.61,2.61,0,0,1,.54.25l11.11,6.13c4.26.34,8.24.47,12.15,1.07,2.83.43,6,.86,8.3,2.37q42.06,27.28,83.83,55c2.71,1.8,5,4.24,7.39,6.46A1.27,1.27,0,0,1,593.7,415Z"/></g></g><g id="left_blades"><path class="cls-6" d="M373.86,324l-.28.49a1.38,1.38,0,0,1-1.61.63c-3-.92-6.19-1.61-8.94-3.05-26.74-14-53.58-27.83-80-42.4-25.24-13.86-50-28.47-75.06-42.78a8.18,8.18,0,0,0-5.07-1.45,15,15,0,0,1-8.41-1.42c-11.05-5.76-9.56-8.23-8.88-11.08a5.58,5.58,0,0,1-.13-.78l-.09.17c-2.06,3.88-9.56,5.94-13.83,7-3.1.76-6.29,2.52-7.41,5.15-5.86,13.88-17.72,19.83-30.18,25.91-39.28,19.18-78.3,38.91-117.52,58.21-4.48,2.2-9.53,3.3-14.35,4.79a1.37,1.37,0,0,1-1.6-.61l-.29-.49a1.4,1.4,0,0,1,.26-1.72c2.32-2.16,4.49-4.55,7.12-6.21,25.5-16.15,50.88-32.49,76.72-48.1,24.62-14.93,49.67-29.08,74.57-43.61a8.17,8.17,0,0,0,3.8-3.67,15.07,15.07,0,0,1,5.43-6.58c10.52-6.68,11.91-4.15,14-2.15a6.7,6.7,0,0,1,.74.27l-.1-.14c-2.33-3.74-.36-11.25.86-15.48.89-3.06,1-6.71-.75-9-9.09-12-8.32-25.25-7.35-39.08,3-43.61,5.45-87.27,8.35-130.89.33-5,1.9-9.89,3-14.82A1.38,1.38,0,0,1,188.23,0h.57a1.37,1.37,0,0,1,1.35,1.08c.72,3.09,1.7,6.16,1.83,9.27,1.23,30.16,2.69,60.31,3.29,90.5.62,28.78.35,57.54.49,86.39a8.11,8.11,0,0,0,1.27,5.11,15,15,0,0,1,3,8c.53,12.45-2.35,12.39-5.15,13.23a5.93,5.93,0,0,1-.6.5h.17c4.4-.15,9.92,5.31,13,8.49,2.21,2.3,5.33,4.19,8.17,3.84,14.94-1.86,26,5.43,37.52,13.18,36.25,24.43,72.85,48.35,109.18,72.67,4.15,2.78,7.61,6.6,11.32,10A1.39,1.39,0,0,1,373.86,324Z"/></g></g></svg>