<svg xmlns="http://www.w3.org/2000/svg" viewBox="0 0 374.04 325.16"><defs><style>.cls-1{fill:#22c3e8;opacity:0.4;}</style></defs><g id="Layer_2" data-name="Layer 2"><g id="left_blades"><path class="cls-1" d="M373.86,324l-.28.49a1.38,1.38,0,0,1-1.61.63c-3-.92-6.19-1.61-8.94-3.05-26.74-14-53.58-27.83-80-42.4-25.24-13.86-50-28.47-75.06-42.78a8.18,8.18,0,0,0-5.07-1.45,15,15,0,0,1-8.41-1.42c-11.05-5.76-9.56-8.23-8.88-11.08a5.58,5.58,0,0,1-.13-.78l-.09.17c-2.06,3.88-9.56,5.94-13.83,7-3.1.76-6.29,2.52-7.41,5.15-5.86,13.88-17.72,19.83-30.18,25.91-39.28,19.18-78.3,38.91-117.52,58.21-4.48,2.2-9.53,3.3-14.35,4.79a1.37,1.37,0,0,1-1.6-.61l-.29-.49a1.4,1.4,0,0,1,.26-1.72c2.32-2.16,4.49-4.55,7.12-6.21,25.5-16.15,50.88-32.49,76.72-48.1,24.62-14.93,49.67-29.08,74.57-43.61a8.17,8.17,0,0,0,3.8-3.67,15.07,15.07,0,0,1,5.43-6.58c10.52-6.68,11.91-4.15,14-2.15a6.7,6.7,0,0,1,.74.27l-.1-.14c-2.33-3.74-.36-11.25.86-15.48.89-3.06,1-6.71-.75-9-9.09-12-8.32-25.25-7.35-39.08,3-43.61,5.45-87.27,8.35-130.89.33-5,1.9-9.89,3-14.82A1.38,1.38,0,0,1,188.23,0h.57a1.37,1.37,0,0,1,1.35,1.08c.72,3.09,1.7,6.16,1.83,9.27,1.23,30.16,2.69,60.31,3.29,90.5.62,28.78.35,57.54.49,86.39a8.11,8.11,0,0,0,1.27,5.11,15,15,0,0,1,3,8c.53,12.45-2.35,12.39-5.15,13.23a5.93,5.93,0,0,1-.6.5h.17c4.4-.15,9.92,5.31,13,8.49,2.21,2.3,5.33,4.19,8.17,3.84,14.94-1.86,26,5.43,37.52,13.18,36.25,24.43,72.85,48.35,109.18,72.67,4.15,2.78,7.61,6.6,11.32,10A1.39,1.39,0,0,1,373.86,324Z"/></g></g></svg>